<svg width="65" height="65" viewBox="0 0 65 65" fill="none" xmlns="http://www.w3.org/2000/svg">
<path d="M58.9565 0.868898C58.6223 1.26993 57.3524 2.07199 56.2162 2.60669C54.8794 3.20824 53.9437 4.14397 53.6763 5.28023C53.4758 6.34964 48.5298 11.8304 40.8434 19.5836L28.4114 32.0824L32.0875 35.7585C51.0028 16.9769 57.3524 11.2288 58.4887 10.761C59.8254 10.2931 61.0954 8.88949 62.2984 6.68383L64.1699 3.34192C61.8306 0.735221 60.828 0 60.427 0C59.9591 0 59.3576 0.40103 58.9565 0.868898ZM21.0541 30.5503C20.7199 30.7508 20.5194 32.0207 20.5862 33.3575C20.653 34.6942 20.4525 36.0978 20.1852 36.5657C19.9178 36.9667 17.378 38.3703 14.5708 39.7071C10.4268 41.6454 8.82266 42.8485 6.61699 45.6557C5.07971 47.5272 2.94089 50.9359 1.93831 53.1416C0.868898 55.3473 0 58.1545 0 59.3576C0 60.8948 0.534706 61.9643 2.00515 63.1673C3.1414 64.1031 4.47817 64.8383 5.01287 64.8383C5.54758 64.8383 8.28795 63.7021 11.0952 62.3653C13.9024 60.9617 17.7121 58.4218 19.5836 56.7509C21.923 54.7457 23.5939 52.5401 24.5965 50.067C25.3986 48.0619 26.3343 45.9899 26.6685 45.4552C26.9358 44.9205 28.6736 44.1184 30.4783 43.7174C32.8844 43.2495 33.8202 42.7148 33.9539 41.7122C34.0875 40.8434 32.5503 38.8382 28.941 35.2289C26.0669 32.4217 23.2597 30.0824 22.6582 30.0824C22.0566 30.0824 21.3883 30.2829 21.0541 30.5503Z" fill="#CCD5FF"/>
</svg>
