<svg width="41" height="72" viewBox="0 0 41 72" fill="none" xmlns="http://www.w3.org/2000/svg">
<path fill-rule="evenodd" clip-rule="evenodd" d="M34.2391 0.27293C38.2728 1.68008 39.369 2.54168 40.3452 6.37895V35.782L40.3356 38.0093C40.2502 57.8829 40.2215 64.5638 39.4058 65.5608C39.245 65.7675 39.1347 65.9855 39.0119 66.2284C38.6323 66.979 38.1321 67.9679 35.6482 69.6002C33.2997 70.7274 31.0452 71.1971 21.0876 71.1971C10.5664 71.1971 7.37244 70.4456 4.6482 68.8486C3.05123 67.8153 2.39366 66.4062 1.83002 65.0911C1.26638 63.682 0.890625 51.4699 0.890625 35.5002C0.890625 19.5305 1.26638 7.31835 1.83002 5.90926C1.90582 5.7324 1.98161 5.54535 2.06015 5.35154L2.06015 5.35153L2.06015 5.35152L2.06016 5.35151C2.56564 4.10408 3.18469 2.57639 4.6482 1.68202C7.00655 0.250167 10.2711 0.253159 27.6454 0.269085C29.6489 0.270921 31.8401 0.27293 34.2391 0.27293ZM21.0887 60.8638C20.9993 60.8638 20.9106 60.861 20.8225 60.8555C20.2988 60.9004 19.7933 60.7632 19.2501 60.4441C17.8365 59.7602 16.8615 58.3122 16.8615 56.6365C16.8615 54.3018 18.7541 52.4092 21.0887 52.4092C23.4234 52.4092 25.316 54.3018 25.316 56.6365C25.316 58.9711 23.4234 60.8638 21.0887 60.8638ZM10.285 7.31836C9.24741 7.31836 8.40625 8.15952 8.40625 9.19715V36.4396C8.40625 37.4772 9.24741 38.3184 10.285 38.3184H31.8911C32.9287 38.3184 33.7699 37.4772 33.7699 36.4396V9.19715C33.7699 8.15952 32.9287 7.31836 31.8911 7.31836H10.285ZM14.043 15.3031C14.043 14.006 15.0944 12.9546 16.3915 12.9546H26.7248C28.0218 12.9546 29.0733 14.006 29.0733 15.3031C29.0733 16.6001 28.0218 17.6516 26.7248 17.6516H16.3915C15.0944 17.6516 14.043 16.6001 14.043 15.3031ZM16.3915 19.5304C15.0944 19.5304 14.043 20.5818 14.043 21.8789C14.043 23.1759 15.0944 24.2274 16.3915 24.2274H26.7248C28.0218 24.2274 29.0733 23.1759 29.0733 21.8789C29.0733 20.5818 28.0218 19.5304 26.7248 19.5304H16.3915Z" fill="#CCD5FF"/>
</svg>
