<svg width="294" height="292" viewBox="0 0 294 292" fill="none" xmlns="http://www.w3.org/2000/svg">
<g filter="url(#filter0_dd_509_13531)">
<rect x="45.4473" y="49.5" width="105" height="145" rx="3.5" stroke="#D9D9DA"/>
<path d="M277.443 14.3461L268.943 9.45216C266.276 7.91681 262.947 9.84156 262.947 12.9186V263.059C262.947 266.434 266.868 268.292 269.48 266.155L277.98 259.2C278.909 258.441 279.447 257.304 279.447 256.104V17.8126C279.447 16.3818 278.683 15.06 277.443 14.3461Z" fill="#D9D9DA"/>
<path d="M254.499 271.083L253.653 271.583C253.191 271.856 252.664 272 252.127 272H193.519C192.535 272 191.613 271.517 191.053 270.708L188.342 266.792C187.782 265.983 186.86 265.5 185.875 265.5H86.2608C85.4235 265.5 84.6243 265.85 84.0564 266.465L79.8382 271.035C79.2703 271.65 78.4711 272 77.6338 272H21.0191C20.0347 272 19.1129 271.517 18.5525 270.708L18.2064 270.208C16.8289 268.218 18.253 265.5 20.673 265.5H86.2608H185.875H252.973C256.027 265.5 257.128 269.529 254.499 271.083Z" fill="#D9D9DA"/>
<path opacity="0.5" d="M257.947 267H260.947C262.052 267 262.947 266.105 262.947 265V11C262.947 9.89543 262.052 9 260.947 9H257.947C256.843 9 255.947 9.89543 255.947 11V265C255.947 266.105 256.843 267 257.947 267Z" fill="#D9D9DA"/>
<path d="M256.947 216V263C256.947 265.209 255.156 267 252.947 267H18.9473C16.7381 267 14.9473 265.209 14.9473 263V216C14.9473 213.791 16.7381 212 18.9473 212H252.947C255.156 212 256.947 213.791 256.947 216Z" fill="#D9D9DA"/>
<path d="M253.947 213.5H16.4473C15.3427 213.5 14.4473 212.605 14.4473 211.5V11C14.4473 9.89543 15.3427 9 16.4473 9H253.947C255.052 9 255.947 9.89543 255.947 11V211.5C255.947 212.605 255.052 213.5 253.947 213.5Z" fill="#D9D9DA"/>
<path d="M50.3649 20H24.9473C23.8427 20 22.9473 20.8954 22.9473 22V198.926C22.9473 199.301 23.0526 199.669 23.2513 199.986L25.1433 203.014C25.3419 203.331 25.4473 203.699 25.4473 204.074V210.5C25.4473 211.605 26.3427 212.5 27.4473 212.5H243.947C245.052 212.5 245.947 211.605 245.947 210.5V22C245.947 20.8954 245.052 20 243.947 20H221.53C221.149 20 220.777 19.8915 220.456 19.6873L215.939 16.8127C215.618 16.6085 215.245 16.5 214.865 16.5H57.0297C56.6493 16.5 56.2768 16.6085 55.9559 16.8127L51.4386 19.6873C51.1177 19.8915 50.7452 20 50.3649 20Z" fill="#D9D9DA"/>
<path d="M39.4473 202L23.9473 213H246.947L232.447 202H39.4473Z" fill="#D9D9DA"/>
<path d="M233.155 203.099L242.155 210.715C243.455 211.814 245.447 210.891 245.447 209.188V23.2361C245.447 21.7493 243.883 20.7823 242.553 21.4472L233.553 25.9472C232.875 26.286 232.447 26.9785 232.447 27.7361V50.5V201.572C232.447 202.161 232.706 202.719 233.155 203.099Z" fill="#D9D9DA"/>
<path d="M33.4473 27H230.947C232.052 27 232.947 27.8954 232.947 29V201C232.947 202.105 232.052 203 230.947 203H40.9473C39.8427 203 38.9473 202.105 38.9473 201V43.4133C38.9473 42.8332 38.6955 42.2818 38.2571 41.9019L32.1374 36.5981C31.6991 36.2182 31.4473 35.6668 31.4473 35.0867V29C31.4473 27.8954 32.3427 27 33.4473 27Z" fill="#D9D9DA"/>
</g>
<path d="M277.443 14.3461L268.943 9.45216C266.276 7.91681 262.947 9.84156 262.947 12.9186V263.059C262.947 266.434 266.868 268.292 269.48 266.155L277.98 259.2C278.909 258.441 279.447 257.304 279.447 256.104V17.8126C279.447 16.3818 278.683 15.06 277.443 14.3461Z" fill="#E3E5ED" fill-opacity="0.5" stroke="white" stroke-opacity="0.58"/>
<path d="M254.499 271.083L253.653 271.583C253.191 271.856 252.664 272 252.127 272H193.519C192.535 272 191.613 271.517 191.053 270.708L188.342 266.792C187.782 265.983 186.86 265.5 185.875 265.5H86.2608C85.4235 265.5 84.6243 265.85 84.0564 266.465L79.8382 271.035C79.2703 271.65 78.4711 272 77.6338 272H21.0191C20.0347 272 19.1129 271.517 18.5525 270.708L18.2064 270.208C16.8289 268.218 18.253 265.5 20.673 265.5H86.2608H185.875H252.973C256.027 265.5 257.128 269.529 254.499 271.083Z" fill="#7B85B5" fill-opacity="0.5" stroke="white" stroke-opacity="0.58"/>
<path d="M257.947 267H260.947C262.052 267 262.947 266.105 262.947 265V11C262.947 9.89543 262.052 9 260.947 9H257.947C256.843 9 255.947 9.89543 255.947 11V265C255.947 266.105 256.843 267 257.947 267Z" fill="url(#paint0_linear_509_13531)" fill-opacity="0.5" stroke="white" stroke-opacity="0.58"/>
<path d="M256.947 216V263C256.947 265.209 255.156 267 252.947 267H18.9473C16.7381 267 14.9473 265.209 14.9473 263V216C14.9473 213.791 16.7381 212 18.9473 212H252.947C255.156 212 256.947 213.791 256.947 216Z" fill="url(#paint1_linear_509_13531)" fill-opacity="0.5" stroke="white" stroke-opacity="0.58"/>
<path d="M253.947 213.5H16.4473C15.3427 213.5 14.4473 212.605 14.4473 211.5V11C14.4473 9.89543 15.3427 9 16.4473 9H253.947C255.052 9 255.947 9.89543 255.947 11V211.5C255.947 212.605 255.052 213.5 253.947 213.5Z" fill="url(#paint2_linear_509_13531)" fill-opacity="0.5" stroke="white" stroke-opacity="0.58"/>
<path d="M50.3649 20H24.9473C23.8427 20 22.9473 20.8954 22.9473 22V198.926C22.9473 199.301 23.0526 199.669 23.2513 199.986L25.1433 203.014C25.3419 203.331 25.4473 203.699 25.4473 204.074V210.5C25.4473 211.605 26.3427 212.5 27.4473 212.5H243.947C245.052 212.5 245.947 211.605 245.947 210.5V22C245.947 20.8954 245.052 20 243.947 20H221.53C221.149 20 220.777 19.8915 220.456 19.6873L215.939 16.8127C215.618 16.6085 215.245 16.5 214.865 16.5H57.0297C56.6493 16.5 56.2768 16.6085 55.9559 16.8127L51.4386 19.6873C51.1177 19.8915 50.7452 20 50.3649 20Z" fill="url(#paint3_linear_509_13531)" fill-opacity="0.5" stroke="white" stroke-opacity="0.58"/>
<path d="M39.4473 202L23.9473 213H246.947L232.447 202H39.4473Z" fill="#E0E5FF" fill-opacity="0.5" stroke="white" stroke-opacity="0.58"/>
<path d="M233.155 203.099L242.155 210.715C243.455 211.814 245.447 210.891 245.447 209.188V23.2361C245.447 21.7493 243.883 20.7823 242.553 21.4472L233.553 25.9472C232.875 26.286 232.447 26.9785 232.447 27.7361V50.5V201.572C232.447 202.161 232.706 202.719 233.155 203.099Z" fill="url(#paint4_linear_509_13531)" fill-opacity="0.5" stroke="white" stroke-opacity="0.58"/>
<path d="M33.4473 27H230.947C232.052 27 232.947 27.8954 232.947 29V201C232.947 202.105 232.052 203 230.947 203H40.9473C39.8427 203 38.9473 202.105 38.9473 201V43.4133C38.9473 42.8332 38.6955 42.2818 38.2571 41.9019L32.1374 36.5981C31.6991 36.2182 31.4473 35.6668 31.4473 35.0867V29C31.4473 27.8954 32.3427 27 33.4473 27Z" fill="url(#paint5_linear_509_13531)" fill-opacity="0.5" stroke="white" stroke-opacity="0.58"/>
<defs>
<filter id="filter0_dd_509_13531" x="0.447266" y="0.912598" width="293" height="291.087" filterUnits="userSpaceOnUse" color-interpolation-filters="sRGB">
<feFlood flood-opacity="0" result="BackgroundImageFix"/>
<feColorMatrix in="SourceAlpha" type="matrix" values="0 0 0 0 0 0 0 0 0 0 0 0 0 0 0 0 0 0 127 0" result="hardAlpha"/>
<feOffset dy="2"/>
<feGaussianBlur stdDeviation="1.5"/>
<feColorMatrix type="matrix" values="0 0 0 0 0 0 0 0 0 0 0 0 0 0 0 0 0 0 0.3 0"/>
<feBlend mode="normal" in2="BackgroundImageFix" result="effect1_dropShadow_509_13531"/>
<feColorMatrix in="SourceAlpha" type="matrix" values="0 0 0 0 0 0 0 0 0 0 0 0 0 0 0 0 0 0 127 0" result="hardAlpha"/>
<feMorphology radius="4" operator="dilate" in="SourceAlpha" result="effect2_dropShadow_509_13531"/>
<feOffset dy="6"/>
<feGaussianBlur stdDeviation="5"/>
<feColorMatrix type="matrix" values="0 0 0 0 0 0 0 0 0 0 0 0 0 0 0 0 0 0 0.15 0"/>
<feBlend mode="normal" in2="effect1_dropShadow_509_13531" result="effect2_dropShadow_509_13531"/>
<feBlend mode="normal" in="SourceGraphic" in2="effect2_dropShadow_509_13531" result="shape"/>
</filter>
<linearGradient id="paint0_linear_509_13531" x1="259.681" y1="-98.7845" x2="255.603" y2="280.652" gradientUnits="userSpaceOnUse">
<stop stop-color="#BEC3D6"/>
<stop offset="1" stop-color="#BEC6EB"/>
</linearGradient>
<linearGradient id="paint1_linear_509_13531" x1="147.722" y1="211.53" x2="146.569" y2="275.002" gradientUnits="userSpaceOnUse">
<stop stop-color="#CCD5FF"/>
<stop offset="1" stop-color="#CFD0D6"/>
</linearGradient>
<linearGradient id="paint2_linear_509_13531" x1="135.197" y1="9" x2="135.197" y2="213.5" gradientUnits="userSpaceOnUse">
<stop stop-color="#EAEDFF"/>
<stop offset="1" stop-color="#CDD4FB"/>
</linearGradient>
<linearGradient id="paint3_linear_509_13531" x1="34.4473" y1="246" x2="22.9473" y2="-31" gradientUnits="userSpaceOnUse">
<stop stop-color="#CCD5FF"/>
<stop offset="1" stop-color="#9EA5C6"/>
</linearGradient>
<linearGradient id="paint4_linear_509_13531" x1="298.947" y1="147.5" x2="238.947" y2="148.5" gradientUnits="userSpaceOnUse">
<stop stop-color="#CCD5FF"/>
<stop offset="1" stop-color="#BBBED0"/>
</linearGradient>
<linearGradient id="paint5_linear_509_13531" x1="125.447" y1="-66" x2="132.197" y2="203" gradientUnits="userSpaceOnUse">
<stop stop-color="#CCD5FF"/>
<stop offset="1" stop-color="#A1AADA"/>
</linearGradient>
</defs>
</svg>
