<svg width="58" height="65" viewBox="0 0 58 65" fill="none" xmlns="http://www.w3.org/2000/svg">
<path fill-rule="evenodd" clip-rule="evenodd" d="M27.2847 0.827141H3.71127C1.93773 0.827141 0.5 2.26488 0.5 4.03841V61.0384C0.5 62.8119 1.93774 64.2497 3.71127 64.2497H54.2887C56.0623 64.2497 57.5 62.8119 57.5 61.0384V4.03841C57.5 2.26487 56.0623 0.827141 54.2887 0.827141H29.0236C28.461 0.727129 27.8738 0.722769 27.2847 0.827141ZM23.3787 7.26189C18.3859 8.74836 14.2241 12.164 11.7577 16.6443C15.1433 16.6829 18.1026 17.0233 20.815 17.8413C21.8489 16.9256 23.0517 16.1962 24.3707 15.7058C24.6189 13.7348 24.4133 11.2288 23.3787 7.26189ZM14.6452 39.5623C11.4535 36.1562 9.45998 31.6137 9.33724 26.6071C9.58293 26.6397 9.83414 26.6543 10.0895 26.6498C13.1635 26.595 15.345 26.7904 17.0326 27.1784C17.1266 28.4203 17.4211 29.6062 17.8838 30.7037C16.4771 33.2349 15.4723 36.1415 14.6452 39.5623ZM23.0667 44.8741C24.939 45.4657 26.9323 45.7849 29.0002 45.7849C31.7577 45.7849 34.3827 45.2174 36.7647 44.1929C34.2131 42.8321 32.0712 41.3049 30.262 39.4263C29.6999 38.8427 29.1844 38.24 28.7079 37.6183C28.5766 37.6228 28.4448 37.6251 28.3125 37.6251C27.442 37.6251 26.5944 37.5268 25.7803 37.3406C25.2209 38.7144 24.6945 40.4389 24.1848 42.6819C23.9934 43.5243 23.5998 44.2682 23.0667 44.8741ZM34.32 16.7253C34.6699 13.6797 34.3738 10.5269 33.5971 6.98691C38.1868 8.08584 42.1511 10.7937 44.8606 14.4809C44.4202 14.6811 44.0016 14.949 43.62 15.2858C41.0416 17.5609 39.1105 18.874 37.4543 19.648C36.6059 18.4862 35.5414 17.4923 34.32 16.7253ZM45.3013 37.1259C47.4275 33.9842 48.6693 30.195 48.6693 26.1158C48.6693 25.4692 48.6381 24.8299 48.5771 24.1993C45.3909 26.8165 42.3868 28.6698 39.1007 29.7266C38.7646 30.7898 38.2756 31.7852 37.6595 32.6868C39.1126 34.123 41.2989 35.5074 45.3013 37.1259Z" fill="#CCD5FF"/>
</svg>
