<svg width="67" height="67" viewBox="0 0 67 67" fill="none" xmlns="http://www.w3.org/2000/svg">
<path fill-rule="evenodd" clip-rule="evenodd" d="M20.0988 2.0098C20.8358 2.0098 21.7738 2.6128 22.1088 3.3498C22.5778 4.2878 22.5108 5.0248 21.9078 5.6948C21.5058 6.2978 20.6348 6.7668 20.0988 6.7668C19.5628 6.7668 18.6918 6.2978 18.2228 5.6948C17.6868 4.9578 17.6198 4.2878 18.0888 3.3498C18.4908 2.6128 19.3618 2.0098 20.0988 2.0098ZM29.1438 2.0098C29.4788 1.9428 30.2158 2.4118 30.6848 3.0148C31.0868 3.5508 31.3548 4.6228 31.1538 5.3598C30.8858 6.3648 30.3498 6.6328 28.9428 6.5658C27.5358 6.4318 27.0668 5.9628 26.9328 4.6898C26.7988 3.7518 27.1338 2.8138 27.6028 2.5458C28.0718 2.2778 28.8088 2.0098 29.1438 2.0098ZM37.7868 2.0098C38.1888 2.0098 38.9258 2.2778 39.3948 2.5458C39.8638 2.8138 40.1988 3.7518 40.0648 4.6898C39.9308 5.9628 39.4618 6.4318 38.0548 6.5658C36.6478 6.6328 36.1118 6.3648 35.8438 5.3598C35.6428 4.6228 35.8438 3.5508 36.2458 3.0148C36.6478 2.4788 37.3178 2.0098 37.7868 2.0098ZM46.8988 2.0098C47.6358 2.0098 48.5738 2.6128 48.9088 3.3498C49.3778 4.2878 49.3108 5.0248 48.7748 5.6948C48.3058 6.2978 47.4348 6.7668 46.8988 6.7668C46.3628 6.7668 45.4918 6.2978 45.0228 5.6948C44.4868 4.9578 44.4198 4.2878 44.8888 3.3498C45.2908 2.6128 46.1618 2.0098 46.8988 2.0098ZM4.6888 17.4198C4.8898 17.4198 5.4258 17.7548 5.8948 18.2238C6.3638 18.6928 6.6988 19.5638 6.7658 20.0998C6.7658 20.6358 6.29679 21.5068 5.69379 21.9758C5.0238 22.5118 4.2868 22.5788 3.3488 22.1098C2.6118 21.7748 1.94179 20.8368 1.87479 20.0998C1.80779 19.4298 2.34379 18.4918 3.08079 18.1568C3.75079 17.7548 4.4878 17.4198 4.6888 17.4198ZM62.1078 17.4198C62.2418 17.4198 62.9118 17.6878 63.6488 18.0898C64.3858 18.4918 64.9888 19.3628 64.9888 20.0998C64.9888 20.8368 64.3858 21.7748 63.6488 22.1098C62.7108 22.5788 61.9738 22.5118 61.3038 21.9758C60.7008 21.5068 60.1648 20.6358 60.1648 20.0328C60.0978 19.4968 60.4328 18.6928 60.9688 18.2238C61.5048 17.7548 61.9738 17.4198 62.1078 17.4198ZM4.6218 26.9338C5.9618 27.0678 6.4308 27.5368 6.4978 29.0108C6.63179 30.4178 6.36379 30.8868 5.15779 31.2218C4.35379 31.4228 3.28179 31.2218 2.81279 30.6858C2.20979 30.1498 2.07579 29.2118 2.34379 28.2738C2.74579 27.0678 3.2818 26.7998 4.6218 26.9338ZM62.7778 26.7998C63.7828 26.7998 64.4528 27.2688 64.7208 28.3408C64.9218 29.1448 64.7208 30.2168 64.1848 30.6858C63.7158 31.2218 62.6438 31.4228 61.7728 31.2218C60.8348 30.9538 60.2318 30.2838 60.1648 29.2788C60.0978 28.4078 60.2988 27.4698 60.6338 27.2688C60.9688 27.0008 61.9068 26.7998 62.7778 26.7998ZM4.2868 35.5098C4.6888 35.5098 5.4258 35.7778 5.8948 36.0458C6.3638 36.3138 6.6988 37.2518 6.5648 38.1898C6.4308 39.4628 5.96179 39.9318 4.48779 40.0658C3.14779 40.1328 2.61179 39.8648 2.34379 38.8598C2.14279 38.1228 2.34379 37.0508 2.74579 36.5148C3.14779 35.9788 3.8178 35.5098 4.2868 35.5098ZM62.6438 35.5098C62.9788 35.4428 63.7158 35.9118 64.1848 36.5148C64.5868 37.0508 64.8548 38.1228 64.6538 38.8598C64.3858 39.8648 63.8498 40.1328 62.5098 40.0658C61.0358 39.9318 60.5668 39.4628 60.4328 38.1898C60.2988 37.2518 60.6338 36.3138 61.1028 36.0458C61.5718 35.7778 62.3088 35.5098 62.6438 35.5098ZM4.6888 44.2198C4.8898 44.2198 5.4258 44.5548 5.8948 45.0238C6.3638 45.4928 6.6988 46.3638 6.7658 46.8998C6.7658 47.4358 6.29679 48.3068 5.69379 48.7758C5.0238 49.3118 4.2868 49.3788 3.3488 48.9098C2.6118 48.5748 1.94179 47.6368 1.87479 46.8998C1.80779 46.2298 2.34379 45.2918 3.08079 44.9568C3.75079 44.5548 4.4878 44.2198 4.6888 44.2198ZM62.1078 44.2198C62.2418 44.2198 62.9118 44.5548 63.6488 44.8898C64.3858 45.2248 64.9888 46.1628 64.9888 46.8998C64.9888 47.6368 64.3858 48.5748 63.6488 48.9098C62.7108 49.3788 61.9738 49.3118 61.3038 48.7758C60.7008 48.3068 60.1648 47.4358 60.1648 46.8998C60.0978 46.2968 60.4328 45.4928 60.9688 45.0238C61.5048 44.5548 61.9738 44.2198 62.1078 44.2198ZM20.0318 60.2998C20.6348 60.2328 21.5058 60.7018 21.9078 61.3048C22.5108 61.9748 22.5778 62.7118 22.1088 63.6498C21.7068 64.3868 20.8358 64.9898 20.0988 64.9898C19.3618 64.9898 18.4238 64.3868 18.0888 63.6498C17.6198 62.7118 17.6198 61.9748 18.1558 61.3048C18.5578 60.7688 19.4288 60.2998 20.0318 60.2998ZM29.2778 60.2998C30.2828 60.2998 30.9528 60.7688 31.2208 61.8408C31.4218 62.6448 31.2208 63.7168 30.6848 64.1858C30.2158 64.7218 29.1438 64.9228 28.2728 64.7218C27.3348 64.4538 26.7318 63.7838 26.6648 62.7788C26.5978 61.9078 26.7988 60.9698 27.1338 60.7688C27.4688 60.5008 28.4068 60.2998 29.2778 60.2998ZM38.1218 60.4338C39.4618 60.5678 39.9308 61.0368 39.9978 62.5108C40.1318 63.9178 39.8638 64.3868 38.6578 64.7218C37.8538 64.9228 36.7818 64.7218 36.3128 64.1858C35.7098 63.6498 35.5758 62.7118 35.8438 61.7738C36.2458 60.5678 36.7818 60.2998 38.1218 60.4338ZM46.8318 60.2998C47.4348 60.2328 48.3058 60.7018 48.7078 61.3048C49.3108 61.9748 49.3778 62.7118 48.9088 63.6498C48.5738 64.3868 47.6358 64.9898 46.8988 64.9898C46.1618 64.9898 45.2238 64.3868 44.8888 63.6498C44.4198 62.7118 44.4198 61.9748 44.9558 61.3048C45.3578 60.7688 46.2288 60.2998 46.8318 60.2998ZM34.3028 10.9208C51.7898 11.0548 53.6658 11.1888 54.7378 12.2608C55.8098 13.3328 55.9438 15.2758 56.1448 32.3608C56.2788 43.8848 56.0778 51.9248 55.6758 52.9298C55.2738 53.8678 54.1348 55.0068 53.1298 55.4758C51.7228 56.1458 46.6308 56.2798 32.3598 56.1458C15.2748 55.9448 13.3318 55.8108 12.2598 54.7388C11.1878 53.6668 11.0538 51.7238 10.8528 34.6388C10.7188 20.6358 10.8528 15.2758 11.4558 13.8688C11.9248 12.8638 12.9298 11.7248 13.6668 11.3898C14.4708 11.0548 23.5158 10.8538 34.3028 10.9208ZM22.7788 44.2198H44.2188V22.7798H22.7788V44.2198Z" fill="#CCD5FF"/>
</svg>
