<svg width="35" height="35" viewBox="0 0 35 35" fill="none" xmlns="http://www.w3.org/2000/svg">
<mask id="path-1-inside-1_509_33490" fill="white">
<path fill-rule="evenodd" clip-rule="evenodd" d="M9.85737 0.00345151C10.2559 0.00345151 10.7631 0.329513 10.9442 0.728033C11.1978 1.23524 11.1616 1.63376 10.8356 1.99605C10.6182 2.32211 10.1472 2.57572 9.85737 2.57572C9.56754 2.57572 9.09656 2.32211 8.84296 1.99605C8.55312 1.59753 8.51689 1.23524 8.7705 0.728033C8.98787 0.329513 9.45885 0.00345151 9.85737 0.00345151ZM14.7483 0.00345151C14.9294 -0.0327776 15.328 0.220826 15.5816 0.546888C15.7989 0.83672 15.9439 1.41639 15.8352 1.81491C15.6903 2.35834 15.4004 2.50326 14.6396 2.46703C13.8788 2.39457 13.6252 2.14097 13.5527 1.45261C13.4803 0.945408 13.6614 0.438201 13.915 0.293284C14.1686 0.148368 14.5672 0.00345151 14.7483 0.00345151ZM19.4219 0.00345151C19.6392 0.00345151 20.0377 0.148368 20.2913 0.293284C20.545 0.438201 20.7261 0.945408 20.6536 1.45261C20.5812 2.14097 20.3276 2.39457 19.5668 2.46703C18.806 2.50326 18.5161 2.35834 18.3712 1.81491C18.2625 1.41639 18.3712 0.83672 18.5886 0.546888C18.806 0.257055 19.1682 0.00345151 19.4219 0.00345151ZM24.349 0.00345151C24.7475 0.00345151 25.2547 0.329513 25.4359 0.728033C25.6895 1.23524 25.6533 1.63376 25.3634 1.99605C25.1098 2.32211 24.6388 2.57572 24.349 2.57572C24.0592 2.57572 23.5882 2.32211 23.3346 1.99605C23.0448 1.59753 23.0085 1.23524 23.2621 0.728033C23.4795 0.329513 23.9505 0.00345151 24.349 0.00345151ZM1.52468 8.33614C1.63337 8.33614 1.9232 8.51729 2.1768 8.77089C2.43041 9.02449 2.61155 9.49547 2.64778 9.78531C2.64778 10.0751 2.39418 10.5461 2.06812 10.7997C1.70582 11.0896 1.3073 11.1258 0.800097 10.8722C0.401577 10.691 0.0392865 10.1838 0.00305744 9.78531C-0.0331717 9.42301 0.256661 8.91581 0.655181 8.73466C1.01747 8.51729 1.41599 8.33614 1.52468 8.33614ZM32.573 8.33614C32.6455 8.33614 33.0078 8.48106 33.4063 8.69843C33.8048 8.91581 34.1309 9.38679 34.1309 9.78531C34.1309 10.1838 33.8048 10.691 33.4063 10.8722C32.8991 11.1258 32.5005 11.0896 32.1383 10.7997C31.8122 10.5461 31.5224 10.0751 31.5224 9.74908C31.4861 9.45924 31.6673 9.02449 31.9571 8.77089C32.2469 8.51729 32.5006 8.33614 32.573 8.33614ZM1.48845 13.4807C2.21303 13.5531 2.46664 13.8067 2.50286 14.6038C2.57532 15.3646 2.43041 15.6182 1.77828 15.7993C1.34353 15.908 0.763868 15.7993 0.510265 15.5095C0.184203 15.2197 0.111745 14.7125 0.256661 14.2053C0.474036 13.5531 0.763868 13.4082 1.48845 13.4807ZM32.9353 13.4082C33.4787 13.4082 33.841 13.6618 33.9859 14.2415C34.0946 14.6762 33.9859 15.2559 33.6961 15.5095C33.4425 15.7993 32.8628 15.908 32.3919 15.7993C31.8847 15.6544 31.5586 15.2921 31.5224 14.7487C31.4861 14.2777 31.5948 13.7705 31.776 13.6618C31.9571 13.5169 32.4643 13.4082 32.9353 13.4082ZM1.3073 18.118C1.52468 18.118 1.9232 18.2629 2.1768 18.4078C2.43041 18.5527 2.61155 19.0599 2.53909 19.5672C2.46664 20.2555 2.21303 20.5091 1.41599 20.5816C0.69141 20.6178 0.401577 20.4729 0.256661 19.9294C0.147974 19.5309 0.256661 18.9513 0.474036 18.6614C0.69141 18.3716 1.0537 18.118 1.3073 18.118ZM32.8628 18.118C33.044 18.0818 33.4425 18.3354 33.6961 18.6614C33.9135 18.9513 34.0584 19.5309 33.9497 19.9294C33.8048 20.4729 33.515 20.6178 32.7904 20.5816C31.9933 20.5091 31.7397 20.2555 31.6673 19.5672C31.5948 19.0599 31.776 18.5527 32.0296 18.4078C32.2832 18.2629 32.6817 18.118 32.8628 18.118ZM1.52468 22.8278C1.63337 22.8278 1.9232 23.0089 2.1768 23.2625C2.43041 23.5161 2.61155 23.9871 2.64778 24.2769C2.64778 24.5668 2.39418 25.0378 2.06812 25.2914C1.70582 25.5812 1.3073 25.6174 0.800097 25.3638C0.401577 25.1827 0.0392865 24.6755 0.00305744 24.2769C-0.0331717 23.9146 0.256661 23.4074 0.655181 23.2263C1.01747 23.0089 1.41599 22.8278 1.52468 22.8278ZM32.573 22.8278C32.6455 22.8278 33.0078 23.0089 33.4063 23.1901C33.8048 23.3712 34.1309 23.8784 34.1309 24.2769C34.1309 24.6755 33.8048 25.1827 33.4063 25.3638C32.8991 25.6174 32.5005 25.5812 32.1383 25.2914C31.8122 25.0378 31.5224 24.5668 31.5224 24.2769C31.4861 23.9509 31.6673 23.5161 31.9571 23.2625C32.2469 23.0089 32.5006 22.8278 32.573 22.8278ZM9.82114 31.5228C10.1472 31.4865 10.6182 31.7401 10.8356 32.0662C11.1616 32.4285 11.1978 32.827 10.9442 33.3342C10.7269 33.7327 10.2559 34.0588 9.85737 34.0588C9.45885 34.0588 8.95164 33.7327 8.7705 33.3342C8.51689 32.827 8.51689 32.4285 8.80673 32.0662C9.0241 31.7764 9.49508 31.5228 9.82114 31.5228ZM14.8208 31.5228C15.3642 31.5228 15.7265 31.7764 15.8714 32.356C15.9801 32.7908 15.8714 33.3704 15.5816 33.624C15.328 33.9139 14.7483 34.0226 14.2773 33.9139C13.7701 33.769 13.444 33.4067 13.4078 32.8632C13.3716 32.3923 13.4803 31.885 13.6614 31.7764C13.8426 31.6314 14.3498 31.5228 14.8208 31.5228ZM19.603 31.5952C20.3276 31.6677 20.5812 31.9213 20.6174 32.7183C20.6899 33.4791 20.545 33.7327 19.8928 33.9139C19.4581 34.0226 18.8784 33.9139 18.6248 33.624C18.2987 33.3342 18.2263 32.827 18.3712 32.3198C18.5886 31.6677 18.8784 31.5228 19.603 31.5952ZM24.3128 31.5228C24.6388 31.4865 25.1098 31.7401 25.3272 32.0662C25.6533 32.4285 25.6895 32.827 25.4359 33.3342C25.2547 33.7327 24.7475 34.0588 24.349 34.0588C23.9505 34.0588 23.4433 33.7327 23.2621 33.3342C23.0085 32.827 23.0085 32.4285 23.2984 32.0662C23.5157 31.7764 23.9867 31.5228 24.3128 31.5228ZM17.5379 4.82192C26.9937 4.89438 28.0081 4.96684 28.5878 5.5465C29.1675 6.12617 29.2399 7.17681 29.3486 16.4152C29.4211 22.6466 29.3124 26.9941 29.095 27.5376C28.8776 28.0448 28.2617 28.6607 27.7183 28.9143C26.9575 29.2766 24.2041 29.349 16.4873 29.2766C7.24888 29.1679 6.19823 29.0954 5.61857 28.5157C5.0389 27.9361 4.96644 26.8854 4.85776 17.647C4.7853 10.0751 4.85776 7.17681 5.18382 6.416C5.43742 5.87256 5.98086 5.25667 6.37938 5.07552C6.81413 4.89438 11.7051 4.78569 17.5379 4.82192ZM11.3065 22.8278H22.8998V11.2345H11.3065V22.8278Z"/>
</mask>
<path fill-rule="evenodd" clip-rule="evenodd" d="M9.85737 0.00345151C10.2559 0.00345151 10.7631 0.329513 10.9442 0.728033C11.1978 1.23524 11.1616 1.63376 10.8356 1.99605C10.6182 2.32211 10.1472 2.57572 9.85737 2.57572C9.56754 2.57572 9.09656 2.32211 8.84296 1.99605C8.55312 1.59753 8.51689 1.23524 8.7705 0.728033C8.98787 0.329513 9.45885 0.00345151 9.85737 0.00345151ZM14.7483 0.00345151C14.9294 -0.0327776 15.328 0.220826 15.5816 0.546888C15.7989 0.83672 15.9439 1.41639 15.8352 1.81491C15.6903 2.35834 15.4004 2.50326 14.6396 2.46703C13.8788 2.39457 13.6252 2.14097 13.5527 1.45261C13.4803 0.945408 13.6614 0.438201 13.915 0.293284C14.1686 0.148368 14.5672 0.00345151 14.7483 0.00345151ZM19.4219 0.00345151C19.6392 0.00345151 20.0377 0.148368 20.2913 0.293284C20.545 0.438201 20.7261 0.945408 20.6536 1.45261C20.5812 2.14097 20.3276 2.39457 19.5668 2.46703C18.806 2.50326 18.5161 2.35834 18.3712 1.81491C18.2625 1.41639 18.3712 0.83672 18.5886 0.546888C18.806 0.257055 19.1682 0.00345151 19.4219 0.00345151ZM24.349 0.00345151C24.7475 0.00345151 25.2547 0.329513 25.4359 0.728033C25.6895 1.23524 25.6533 1.63376 25.3634 1.99605C25.1098 2.32211 24.6388 2.57572 24.349 2.57572C24.0592 2.57572 23.5882 2.32211 23.3346 1.99605C23.0448 1.59753 23.0085 1.23524 23.2621 0.728033C23.4795 0.329513 23.9505 0.00345151 24.349 0.00345151ZM1.52468 8.33614C1.63337 8.33614 1.9232 8.51729 2.1768 8.77089C2.43041 9.02449 2.61155 9.49547 2.64778 9.78531C2.64778 10.0751 2.39418 10.5461 2.06812 10.7997C1.70582 11.0896 1.3073 11.1258 0.800097 10.8722C0.401577 10.691 0.0392865 10.1838 0.00305744 9.78531C-0.0331717 9.42301 0.256661 8.91581 0.655181 8.73466C1.01747 8.51729 1.41599 8.33614 1.52468 8.33614ZM32.573 8.33614C32.6455 8.33614 33.0078 8.48106 33.4063 8.69843C33.8048 8.91581 34.1309 9.38679 34.1309 9.78531C34.1309 10.1838 33.8048 10.691 33.4063 10.8722C32.8991 11.1258 32.5005 11.0896 32.1383 10.7997C31.8122 10.5461 31.5224 10.0751 31.5224 9.74908C31.4861 9.45924 31.6673 9.02449 31.9571 8.77089C32.2469 8.51729 32.5006 8.33614 32.573 8.33614ZM1.48845 13.4807C2.21303 13.5531 2.46664 13.8067 2.50286 14.6038C2.57532 15.3646 2.43041 15.6182 1.77828 15.7993C1.34353 15.908 0.763868 15.7993 0.510265 15.5095C0.184203 15.2197 0.111745 14.7125 0.256661 14.2053C0.474036 13.5531 0.763868 13.4082 1.48845 13.4807ZM32.9353 13.4082C33.4787 13.4082 33.841 13.6618 33.9859 14.2415C34.0946 14.6762 33.9859 15.2559 33.6961 15.5095C33.4425 15.7993 32.8628 15.908 32.3919 15.7993C31.8847 15.6544 31.5586 15.2921 31.5224 14.7487C31.4861 14.2777 31.5948 13.7705 31.776 13.6618C31.9571 13.5169 32.4643 13.4082 32.9353 13.4082ZM1.3073 18.118C1.52468 18.118 1.9232 18.2629 2.1768 18.4078C2.43041 18.5527 2.61155 19.0599 2.53909 19.5672C2.46664 20.2555 2.21303 20.5091 1.41599 20.5816C0.69141 20.6178 0.401577 20.4729 0.256661 19.9294C0.147974 19.5309 0.256661 18.9513 0.474036 18.6614C0.69141 18.3716 1.0537 18.118 1.3073 18.118ZM32.8628 18.118C33.044 18.0818 33.4425 18.3354 33.6961 18.6614C33.9135 18.9513 34.0584 19.5309 33.9497 19.9294C33.8048 20.4729 33.515 20.6178 32.7904 20.5816C31.9933 20.5091 31.7397 20.2555 31.6673 19.5672C31.5948 19.0599 31.776 18.5527 32.0296 18.4078C32.2832 18.2629 32.6817 18.118 32.8628 18.118ZM1.52468 22.8278C1.63337 22.8278 1.9232 23.0089 2.1768 23.2625C2.43041 23.5161 2.61155 23.9871 2.64778 24.2769C2.64778 24.5668 2.39418 25.0378 2.06812 25.2914C1.70582 25.5812 1.3073 25.6174 0.800097 25.3638C0.401577 25.1827 0.0392865 24.6755 0.00305744 24.2769C-0.0331717 23.9146 0.256661 23.4074 0.655181 23.2263C1.01747 23.0089 1.41599 22.8278 1.52468 22.8278ZM32.573 22.8278C32.6455 22.8278 33.0078 23.0089 33.4063 23.1901C33.8048 23.3712 34.1309 23.8784 34.1309 24.2769C34.1309 24.6755 33.8048 25.1827 33.4063 25.3638C32.8991 25.6174 32.5005 25.5812 32.1383 25.2914C31.8122 25.0378 31.5224 24.5668 31.5224 24.2769C31.4861 23.9509 31.6673 23.5161 31.9571 23.2625C32.2469 23.0089 32.5006 22.8278 32.573 22.8278ZM9.82114 31.5228C10.1472 31.4865 10.6182 31.7401 10.8356 32.0662C11.1616 32.4285 11.1978 32.827 10.9442 33.3342C10.7269 33.7327 10.2559 34.0588 9.85737 34.0588C9.45885 34.0588 8.95164 33.7327 8.7705 33.3342C8.51689 32.827 8.51689 32.4285 8.80673 32.0662C9.0241 31.7764 9.49508 31.5228 9.82114 31.5228ZM14.8208 31.5228C15.3642 31.5228 15.7265 31.7764 15.8714 32.356C15.9801 32.7908 15.8714 33.3704 15.5816 33.624C15.328 33.9139 14.7483 34.0226 14.2773 33.9139C13.7701 33.769 13.444 33.4067 13.4078 32.8632C13.3716 32.3923 13.4803 31.885 13.6614 31.7764C13.8426 31.6314 14.3498 31.5228 14.8208 31.5228ZM19.603 31.5952C20.3276 31.6677 20.5812 31.9213 20.6174 32.7183C20.6899 33.4791 20.545 33.7327 19.8928 33.9139C19.4581 34.0226 18.8784 33.9139 18.6248 33.624C18.2987 33.3342 18.2263 32.827 18.3712 32.3198C18.5886 31.6677 18.8784 31.5228 19.603 31.5952ZM24.3128 31.5228C24.6388 31.4865 25.1098 31.7401 25.3272 32.0662C25.6533 32.4285 25.6895 32.827 25.4359 33.3342C25.2547 33.7327 24.7475 34.0588 24.349 34.0588C23.9505 34.0588 23.4433 33.7327 23.2621 33.3342C23.0085 32.827 23.0085 32.4285 23.2984 32.0662C23.5157 31.7764 23.9867 31.5228 24.3128 31.5228ZM17.5379 4.82192C26.9937 4.89438 28.0081 4.96684 28.5878 5.5465C29.1675 6.12617 29.2399 7.17681 29.3486 16.4152C29.4211 22.6466 29.3124 26.9941 29.095 27.5376C28.8776 28.0448 28.2617 28.6607 27.7183 28.9143C26.9575 29.2766 24.2041 29.349 16.4873 29.2766C7.24888 29.1679 6.19823 29.0954 5.61857 28.5157C5.0389 27.9361 4.96644 26.8854 4.85776 17.647C4.7853 10.0751 4.85776 7.17681 5.18382 6.416C5.43742 5.87256 5.98086 5.25667 6.37938 5.07552C6.81413 4.89438 11.7051 4.78569 17.5379 4.82192ZM11.3065 22.8278H22.8998V11.2345H11.3065V22.8278Z" stroke="#A2845E" stroke-width="2" mask="url(#path-1-inside-1_509_33490)"/>
</svg>
