<svg width="57" height="57" viewBox="0 0 57 57" fill="none" xmlns="http://www.w3.org/2000/svg">
<path d="M20.5205 3.70527C18.4685 4.50327 15.8465 5.81427 14.5925 6.66927C13.3955 7.58127 11.5145 9.23427 10.4885 10.3743C9.40555 11.5713 7.98055 13.6233 7.29655 14.9913C6.66955 16.3023 5.75755 18.6963 5.35855 20.2353C4.84555 22.1733 4.56055 26.8473 4.56055 34.7703C4.56055 44.9163 4.67455 46.6263 5.52955 47.8803C6.09955 48.6783 7.06855 49.7613 7.69555 50.2743C8.32255 50.8443 9.80455 51.2433 11.0015 51.3003C12.1415 51.3003 13.6805 51.0153 14.4215 50.6163C15.1055 50.2173 16.0745 49.8753 16.5305 49.7613C16.9865 49.6473 17.7275 49.2483 18.1265 48.9063C18.6965 48.3363 18.8675 45.7713 18.8105 38.8743V29.6403C16.3595 28.6713 15.2195 28.1583 14.6495 27.8733C14.1365 27.5883 12.5405 27.3603 11.1155 27.3603H8.55055C8.83555 19.3803 8.89255 19.2093 11.1155 17.2713C12.3695 16.2453 14.8205 14.8203 16.5305 14.1933C18.2405 13.5663 21.6035 12.7113 23.9405 12.3693C27.1325 11.9133 29.4125 11.9133 32.7755 12.3693C35.2835 12.7113 38.7605 13.5663 40.4705 14.1933C42.1805 14.8203 44.6315 16.2453 45.8855 17.2713C48.1085 19.2093 48.1655 19.3803 48.3365 23.3133L48.4505 27.3603C44.4605 27.3603 42.8645 27.5883 42.2945 27.8733C41.7815 28.1583 40.6415 28.6713 39.7865 29.0133L38.1905 29.6403L38.4755 48.7353C42.4655 50.6733 44.6315 51.2433 45.8855 51.3003C47.5385 51.3003 48.5645 50.9013 49.7615 49.8753C50.6165 49.0773 51.5855 47.8233 51.8705 47.0253C52.2125 46.2273 52.4405 40.4133 52.4405 34.0293C52.4405 25.9923 52.2125 21.7173 51.6425 19.9503C51.2435 18.5253 50.3315 16.3023 49.6475 14.9913C49.0205 13.6233 47.3675 11.3433 46.0565 9.91827C44.6885 8.43627 42.5795 6.66927 41.3255 5.92827C40.0715 5.18727 37.5065 4.10427 35.6255 3.42027C33.4025 2.67927 30.8375 2.28027 28.2155 2.28027C25.4225 2.33727 23.0855 2.79327 20.5205 3.70527Z" fill="#CCD5FF"/>
</svg>
