<svg width="71" height="71" viewBox="0 0 71 71" fill="none" xmlns="http://www.w3.org/2000/svg">
<path d="M25.2748 0.301304C23.0217 0.623182 20.4466 1.34741 19.4005 1.83023C18.4349 2.39351 17.2279 3.76149 16.745 4.96854C16.2622 6.25605 16.1013 9.23342 16.4232 12.0498C16.6646 14.7053 17.3083 19.5335 17.8716 22.7523L18.8372 28.5461H32.1147H45.3922C46.9211 19.5335 47.5649 14.7053 47.8063 12.0498C48.1281 9.23342 47.9672 6.25605 47.4844 4.96854C47.0016 3.76149 45.4726 2.31304 43.9437 1.66929C42.5757 1.02553 38.6327 0.381774 35.3335 0.140366C32.0342 -0.101043 27.4475 -0.0205735 25.2748 0.301304ZM4.11133 24.2812C3.46758 24.6031 3.1457 25.6492 3.30664 26.5344C3.46758 27.6609 4.27227 28.2242 5.80119 28.3047C7.81293 28.5461 7.97387 28.7875 7.97387 32.3282C7.97387 34.5008 8.61762 37.4782 9.42232 39.0071C10.388 41.0189 11.6755 42.1454 13.7677 42.7892C15.4575 43.3525 19.6419 44.0767 23.0217 44.3986L29.2983 45.0423C29.6202 50.3533 29.3787 51.158 28.2522 51.3994C27.528 51.5604 23.8264 52.2041 20.1248 52.8479C16.4232 53.4112 13.0434 54.3768 12.4802 54.9401C11.8364 55.7448 11.8364 56.2276 12.6411 56.9518C13.2044 57.5151 13.6067 58.7221 13.6067 59.6878C13.6067 60.8144 14.4114 62.0214 15.6185 62.7456C17.0669 63.6308 18.0326 63.7113 19.2396 63.148C20.3125 62.6115 20.849 61.5386 20.849 59.9292C20.849 58.0784 21.2513 57.4346 22.6193 57.1932C23.6654 56.9518 25.6772 56.6299 27.0451 56.3885C28.9764 56.0667 29.7811 56.2276 30.103 57.1128C30.3444 57.7565 31.2295 58.3198 32.1147 58.3198C32.9999 58.3198 33.885 57.7565 34.1264 57.1128C34.4483 56.2276 35.253 56.0667 37.1038 56.3885C38.5523 56.6299 40.564 56.9518 41.5296 57.1932C42.9781 57.4346 43.3804 58.0784 43.3804 59.9292C43.3804 61.5386 43.9169 62.6115 44.9898 63.148C46.1969 63.7113 47.1625 63.6308 48.611 62.7456C49.818 62.0214 50.6227 60.8144 50.6227 59.6878C50.6227 58.7221 51.025 57.5151 51.5883 56.9518C52.393 56.2276 52.393 55.7448 51.7493 54.9401C51.186 54.3768 47.9672 53.4112 44.507 52.8479C40.9664 52.2041 37.3452 51.6408 36.2991 51.3994C34.7702 51.158 34.5288 50.5947 34.6897 48.0197L34.9311 45.0423C44.5875 44.0767 48.7719 43.3525 50.4618 42.7892C52.554 42.1454 53.8415 41.0189 54.8071 39.0071C55.6118 37.4782 56.2556 34.5008 56.2556 32.3282C56.2556 28.7875 56.4165 28.5461 58.4282 28.3047C60.1181 28.2242 60.7618 27.6609 60.8423 26.2929C61.0033 25.0054 60.6009 24.3617 59.2329 24.0398C58.2673 23.7984 56.497 23.7984 55.2095 24.0398C54.0024 24.2812 52.7954 25.0054 52.393 25.4883C52.0711 26.0515 51.6688 28.868 51.4274 31.6844C51.186 34.9837 50.6227 37.1563 49.818 37.6391C48.9328 38.2024 48.1281 37.961 46.7602 36.754C45.0703 35.0641 44.1851 34.9837 32.1147 34.9837C20.0443 34.9837 19.1591 35.0641 17.3888 36.754C16.1013 37.961 15.2966 38.2024 14.4114 37.6391C13.6067 37.0759 13.0434 34.9837 12.802 31.5235C12.5606 28.6266 11.9973 25.8101 11.595 25.4078C11.1122 24.925 9.50279 24.3617 7.97387 24.1203C6.44495 23.8789 4.67462 23.9593 4.11133 24.2812Z" fill="#CCD5FF"/>
</svg>
