<svg width="50" height="65" viewBox="0 0 50 65" fill="none" xmlns="http://www.w3.org/2000/svg">
<path fill-rule="evenodd" clip-rule="evenodd" d="M25.8772 0.598948C44.9302 0.744948 46.9742 0.890948 48.1422 2.05895C49.3102 3.22695 49.4562 5.12495 49.4562 42.1359C49.4562 42.1359 48.9453 44.9099 46.9013 44.9099C44.8573 44.9099 8.21101 44.91 3.83116 44.9099C-0.548701 44.9099 0.181155 41.2599 0.181155 41.2599V23.3749C0.181155 11.0379 0.473156 4.90595 1.05716 3.66495C1.49516 2.64295 2.59016 1.47495 3.39316 1.10995C4.26916 0.744948 14.1242 0.525948 25.8772 0.598948ZM16.6792 11.0379C15.5112 11.7679 13.6132 13.3739 12.7372 14.9799C11.7882 16.5859 11.0582 19.2139 10.7662 20.4549C10.5472 21.6229 10.7662 24.2509 11.2772 26.222C11.7882 28.1929 12.4452 29.8719 12.7372 30.0179C13.1022 30.1639 14.4892 29.6529 15.8762 28.8499C17.9932 27.6819 18.6502 27.5359 19.5262 28.2659C20.5482 29.1419 20.4752 29.5069 19.1612 31.5509C18.3582 32.8649 17.7012 34.1789 17.7012 34.4709C17.7012 34.8359 18.5042 35.493 19.5262 35.931C20.5482 36.442 22.9572 36.8799 25.0012 36.8799C27.1912 36.8799 29.8192 36.2959 31.5712 35.4199C33.1772 34.6169 35.2942 32.8649 36.2432 31.5509C37.1922 30.3099 38.3602 27.8279 38.7982 26.0759C39.2362 24.3969 39.4552 21.9149 39.2362 20.6009C39.0172 19.3599 38.5063 16.8049 37.4113 14.9799C36.0973 12.9359 33.6882 11.1839 31.9362 10.3079C30.3302 9.50495 27.5562 8.77495 25.7312 8.70195C23.9062 8.55595 21.6432 8.70195 20.6212 9.06695C19.5992 9.35895 17.8472 10.2349 16.6792 11.0379ZM49.4562 48.633L49.6752 53.524C49.8212 56.59 49.5292 60.021 49.1642 61.116C48.7262 62.284 47.7043 63.4519 46.5363 63.8899C45.2953 64.3279 36.9732 64.62 23.7602 64.474C5.14516 64.255 2.4443 63.9629 1.2763 62.7949C0.254299 61.7729 0.473156 60.167 0.0351562 48.925L22.9572 49.144C36.8272 49.29 45.4413 48.633 47.6312 48.633H49.4562ZM40.1852 57.831C40.4772 58.415 41.3532 58.853 42.1562 58.707C42.9592 58.561 43.7622 57.831 43.8352 57.028C43.9812 56.225 43.6162 55.349 42.9592 55.057C42.3022 54.765 41.3532 54.984 40.6962 55.568C40.0392 56.2249 39.8202 57.101 40.1852 57.831ZM25.0012 20.1629C25.8042 20.1629 26.8262 20.8199 27.1912 21.6229C27.7022 22.6449 27.6292 23.3749 27.0452 24.1779C26.5342 24.8349 25.5852 25.3459 25.0012 25.3459C24.4172 25.3459 23.5412 24.8349 23.0302 24.1779C22.3732 23.3749 22.3002 22.6449 22.8112 21.6229C23.2492 20.8199 24.2712 20.1629 25.0012 20.1629Z" fill="#CCD5FF"/>
</svg>
