<svg width="40" height="52" viewBox="0 0 40 52" fill="none" xmlns="http://www.w3.org/2000/svg">
<path d="M0.607849 32.8487L0.607953 32.8482L0.608017 32.8479L0.608043 32.8477L0.608185 32.847L0.608316 32.8463L0.617555 32.8001V32.7506V18.35C0.617555 13.3855 0.67634 9.67671 0.79338 7.0872C0.851929 5.7918 0.924754 4.78378 1.01096 4.04201C1.10005 3.27546 1.19739 2.8584 1.2753 2.69284L1.27902 2.68493L1.28246 2.6769C1.43041 2.33168 1.702 1.93774 2.02081 1.59179C2.33731 1.24835 2.65947 0.996501 2.89581 0.88479C2.89623 0.88468 2.89672 0.884549 2.89728 0.884399C2.90715 0.881767 2.93958 0.873115 3.00588 0.86147C3.09009 0.846677 3.2042 0.831122 3.34992 0.815329C3.64078 0.783807 4.03606 0.75361 4.52796 0.725346C5.51053 0.668887 6.85769 0.621288 8.48267 0.584607C11.7314 0.511273 16.0758 0.481886 20.804 0.51125C28.481 0.570079 32.7099 0.628932 35.1384 0.78937C37.598 0.951872 38.0588 1.21803 38.3812 1.54038C38.4711 1.63028 38.5385 1.71323 38.6013 1.84135C38.6683 1.97791 38.7392 2.18463 38.8059 2.52984C38.9409 3.22835 39.0432 4.40333 39.1167 6.51627C39.2631 10.7252 39.2927 18.5333 39.2928 33.4044C39.2907 33.4137 39.2882 33.4245 39.2853 33.4367C39.273 33.4887 39.2533 33.5653 39.2248 33.6582C39.1672 33.8459 39.0764 34.0908 38.9437 34.3309C38.6708 34.8248 38.2893 35.1895 37.7356 35.1895H3.05646C2.24331 35.1895 1.71688 35.0203 1.37449 34.8063C1.03611 34.5948 0.842117 34.3177 0.728779 34.0344C0.612763 33.7444 0.580843 33.4449 0.580835 33.2098C0.580832 33.094 0.588573 32.9983 0.59596 32.9337C0.59964 32.9015 0.603187 32.8773 0.60554 32.8626L0.607849 32.8487ZM8.15367 15.8844L8.15105 15.8955L8.14894 15.9067C8.04781 16.4461 8.05314 17.2656 8.12756 18.1215C8.203 18.989 8.35392 19.9428 8.56782 20.7678C8.77744 21.5764 9.01815 22.3298 9.23938 22.902C9.34948 23.1867 9.45858 23.4365 9.5606 23.629C9.61123 23.7245 9.66573 23.8166 9.72356 23.8952C9.76973 23.958 9.86226 24.0753 10.0038 24.146L10.0224 24.1553L10.0417 24.1631C10.167 24.2132 10.2927 24.2205 10.3849 24.2186C10.4838 24.2165 10.5862 24.2026 10.6857 24.183C10.885 24.1438 11.1144 24.0737 11.3564 23.9839C11.8414 23.804 12.4236 23.5276 13.0008 23.1937C13.863 22.7182 14.3471 22.5 14.6826 22.4431C14.8322 22.4178 14.9348 22.4286 15.0223 22.457C15.1154 22.4872 15.2243 22.5481 15.3711 22.6702C15.5686 22.8396 15.6675 22.9476 15.7178 23.0293C15.7545 23.0891 15.7638 23.1306 15.7557 23.1984C15.7445 23.2913 15.6973 23.4401 15.5649 23.6927C15.4349 23.941 15.2437 24.2514 14.9793 24.6628L14.9792 24.6627L14.9732 24.6724C14.6437 25.2116 14.3427 25.7531 14.1224 26.1937C14.0126 26.4133 13.9197 26.6141 13.853 26.7803C13.8198 26.8631 13.7904 26.9439 13.7686 27.0181C13.7499 27.0817 13.7243 27.1805 13.7243 27.2843C13.7243 27.5239 13.8461 27.7215 13.9405 27.8454C14.0463 27.9842 14.1852 28.1173 14.3368 28.2394C14.6386 28.4826 15.0415 28.723 15.4836 28.9138C15.9616 29.1496 16.7034 29.348 17.5027 29.4886C18.3212 29.6326 19.2467 29.724 20.1021 29.724C21.9338 29.724 24.1278 29.2396 25.6157 28.4956C26.3063 28.1503 27.0878 27.6118 27.7903 27.0302C28.4887 26.4519 29.1388 25.8064 29.5552 25.2315C30.364 24.1711 31.3285 22.1151 31.6956 20.6486C31.8804 19.9395 32.0163 19.0736 32.0842 18.2516C32.1516 17.4351 32.1552 16.6233 32.057 16.0342L32.0562 16.0296C31.8806 15.0343 31.4581 12.8913 30.5232 11.3333L30.5193 11.3267L30.5151 11.3202C29.3922 9.57341 27.3685 8.11096 25.9096 7.38153C24.5577 6.70558 22.262 6.10034 20.7199 6.03644C19.961 5.97631 19.1172 5.9767 18.3556 6.02948C17.6106 6.08111 16.9008 6.18563 16.4228 6.35315C15.5352 6.61033 14.0927 7.33616 13.1271 7.99835C12.1504 8.61098 10.5546 9.9522 9.79258 11.3435C8.98828 12.7088 8.38871 14.8855 8.15367 15.8844ZM39.4696 42.6477L39.4697 42.6491C39.5274 43.861 39.4985 45.1486 39.419 46.2406C39.3387 47.3425 39.2103 48.1922 39.0861 48.5716C38.7727 49.3994 38.0466 50.2086 37.2713 50.5017C37.1975 50.527 37.0295 50.5635 36.7371 50.6025C36.4507 50.6407 36.076 50.6775 35.6136 50.712C34.6895 50.781 33.4343 50.8395 31.8731 50.8835C28.7518 50.9714 24.4239 51.0008 19.1088 50.9421C11.6098 50.8539 7.33702 50.751 4.82214 50.5542C2.26568 50.3541 1.67537 50.0591 1.3529 49.7366C1.08906 49.4728 0.925941 49.1289 0.822249 47.5591C0.764052 46.6781 0.724974 45.4697 0.669548 43.7559C0.631301 42.5732 0.585271 41.1499 0.519803 39.4273L18.451 39.5986C24.0441 39.6575 28.5778 39.5545 31.9341 39.4367C33.5432 39.3803 34.8719 39.3209 35.9162 39.2743C37.0631 39.2231 37.8671 39.1872 38.3233 39.1872H39.3146L39.4696 42.6477ZM32.4072 43.8974L32.3962 43.9072L32.3858 43.9176C31.7457 44.5577 31.4669 45.4893 31.8807 46.3169C32.0616 46.6785 32.3966 46.9537 32.7576 47.1203C33.1236 47.2893 33.5658 47.3703 34.0044 47.2905C34.4365 47.212 34.8473 46.9829 35.1595 46.6798C35.4657 46.3826 35.7138 45.9775 35.7626 45.5146C35.8995 44.7112 35.5528 43.7531 34.7646 43.4028C34.0088 43.0669 33.0396 43.3353 32.4072 43.8974ZM21.4103 17.1462L21.4141 17.1547L21.4182 17.163C21.5993 17.5252 21.6526 17.7875 21.6384 18.0008C21.6245 18.2088 21.5428 18.4267 21.3484 18.6957C21.1916 18.8951 20.9556 19.087 20.7024 19.2291C20.4368 19.3781 20.2158 19.437 20.1021 19.437C19.9928 19.437 19.7892 19.3812 19.5405 19.2345C19.3017 19.0936 19.0724 18.8987 18.9098 18.6896L18.9099 18.6895L18.9021 18.68C18.6792 18.4076 18.5902 18.191 18.5723 17.9898C18.5541 17.7854 18.6035 17.5303 18.7818 17.1713C18.9118 16.9368 19.1402 16.7027 19.4074 16.5266C19.684 16.3443 19.9409 16.2638 20.1021 16.2638C20.3007 16.2638 20.5735 16.3503 20.8409 16.5266C21.1062 16.7014 21.3114 16.9288 21.4103 17.1462Z" stroke="#5356FF"/>
</svg>
