<svg width="101" height="53" viewBox="0 0 101 53" fill="none" xmlns="http://www.w3.org/2000/svg">
<path fill-rule="evenodd" clip-rule="evenodd" d="M0.5 10C0.5 4.47715 4.97715 0 10.5 0H90.5C96.0228 0 100.5 4.47715 100.5 10V43C100.5 48.5229 96.0229 53 90.5 53H10.5C4.97716 53 0.5 48.5228 0.5 43V10ZM11.5 12C11.5 10.8954 12.3954 10 13.5 10H18.5C19.6046 10 20.5 10.8954 20.5 12V17C20.5 18.1046 19.6046 19 18.5 19H13.5C12.3954 19 11.5 18.1046 11.5 17V12ZM24.5 10C23.3954 10 22.5 10.8954 22.5 12V17C22.5 18.1046 23.3954 19 24.5 19H29.5C30.6046 19 31.5 18.1046 31.5 17V12C31.5 10.8954 30.6046 10 29.5 10H24.5ZM17.5 24C17.5 22.8954 18.3954 22 19.5 22H24.5C25.6046 22 26.5 22.8954 26.5 24V29C26.5 30.1046 25.6046 31 24.5 31H19.5C18.3954 31 17.5 30.1046 17.5 29V24ZM24.5 34C23.3954 34 22.5 34.8954 22.5 36V41C22.5 42.1046 23.3954 43 24.5 43H75.5C76.6046 43 77.5 42.1046 77.5 41V36C77.5 34.8954 76.6046 34 75.5 34H24.5ZM33.5 12C33.5 10.8954 34.3954 10 35.5 10H40.5C41.6046 10 42.5 10.8954 42.5 12V17C42.5 18.1046 41.6046 19 40.5 19H35.5C34.3954 19 33.5 18.1046 33.5 17V12ZM30.5 22C29.3954 22 28.5 22.8954 28.5 24V29C28.5 30.1046 29.3954 31 30.5 31H35.5C36.6046 31 37.5 30.1046 37.5 29V24C37.5 22.8954 36.6046 22 35.5 22H30.5ZM44.5 12C44.5 10.8954 45.3954 10 46.5 10H51.5C52.6046 10 53.5 10.8954 53.5 12V17C53.5 18.1046 52.6046 19 51.5 19H46.5C45.3954 19 44.5 18.1046 44.5 17V12ZM41.5 22C40.3954 22 39.5 22.8954 39.5 24V29C39.5 30.1046 40.3954 31 41.5 31H46.5C47.6046 31 48.5 30.1046 48.5 29V24C48.5 22.8954 47.6046 22 46.5 22H41.5ZM55.5 12C55.5 10.8954 56.3954 10 57.5 10H62.5C63.6046 10 64.5 10.8954 64.5 12V17C64.5 18.1046 63.6046 19 62.5 19H57.5C56.3954 19 55.5 18.1046 55.5 17V12ZM52.5 22C51.3954 22 50.5 22.8954 50.5 24V29C50.5 30.1046 51.3954 31 52.5 31H57.5C58.6046 31 59.5 30.1046 59.5 29V24C59.5 22.8954 58.6046 22 57.5 22H52.5ZM66.5 12C66.5 10.8954 67.3954 10 68.5 10H73.5C74.6046 10 75.5 10.8954 75.5 12V17C75.5 18.1046 74.6046 19 73.5 19H68.5C67.3954 19 66.5 18.1046 66.5 17V12ZM63.5 22C62.3954 22 61.5 22.8954 61.5 24V29C61.5 30.1046 62.3954 31 63.5 31H68.5C69.6046 31 70.5 30.1046 70.5 29V24C70.5 22.8954 69.6046 22 68.5 22H63.5ZM77.5 12C77.5 10.8954 78.3954 10 79.5 10H84.5C85.6046 10 86.5 10.8954 86.5 12V17C86.5 18.1046 85.6046 19 84.5 19H79.5C78.3954 19 77.5 18.1046 77.5 17V12ZM74.5 22C73.3954 22 72.5 22.8954 72.5 24V29C72.5 30.1046 73.3954 31 74.5 31H79.5C80.6046 31 81.5 30.1046 81.5 29V24C81.5 22.8954 80.6046 22 79.5 22H74.5Z" fill="#CCD5FF"/>
</svg>
