<svg width="81" height="24" viewBox="0 0 81 24" fill="none" xmlns="http://www.w3.org/2000/svg">
<path d="M7.42049 4.9801C8.7903 4.90445 10.1394 5.34081 11.206 6.20453C11.6689 6.63929 12.0305 7.17074 12.2651 7.76114C12.4998 8.35155 12.6017 8.98644 12.5636 9.62071V17.9714H9.50588L8.66194 16.2816H8.58244C8.26088 16.6938 7.88901 17.064 7.47553 17.3836C7.08322 17.6672 6.64144 17.8748 6.17293 17.9959C5.58635 18.1368 4.98425 18.2027 4.38109 18.1918C3.69387 18.2022 3.01424 18.0468 2.39967 17.7387C1.81381 17.4368 1.33224 16.9653 1.01757 16.3857C0.656117 15.6695 0.481506 14.8734 0.509987 14.0715C0.465109 13.4824 0.571988 12.8916 0.820399 12.3557C1.06881 11.8197 1.45044 11.3565 1.92878 11.0104C3.16402 10.2763 4.57749 9.89708 6.01393 9.91458L8.14212 9.84723V9.66969C8.16634 9.44707 8.14106 9.22185 8.06811 9.01016C7.99516 8.79848 7.87633 8.60556 7.72015 8.44525C7.40783 8.20265 7.02058 8.07703 6.62548 8.09017C6.05538 8.099 5.48931 8.18761 4.94372 8.35342C4.30347 8.5279 3.67614 8.74679 3.06626 9.00849L1.79424 6.13107C2.58363 5.73427 3.42292 5.44597 4.28936 5.27396C5.32021 5.06852 6.36947 4.97004 7.42049 4.9801ZM8.18493 12.2716L7.17587 12.3145C6.57809 12.2851 5.98484 12.432 5.46965 12.7369C5.30667 12.8631 5.17692 13.0272 5.09166 13.215C5.0064 13.4027 4.96821 13.6085 4.98041 13.8144C4.96588 13.9903 4.98951 14.1673 5.04968 14.3332C5.10984 14.4991 5.20513 14.65 5.329 14.7756C5.5861 14.9932 5.9162 15.1048 6.25243 15.0878C6.75494 15.0977 7.24243 14.9161 7.61619 14.5797C7.79827 14.4193 7.94342 14.2214 8.04161 13.9994C8.13981 13.7774 8.1887 13.5368 8.18493 13.294V12.2716Z" fill="#284380"/>
<path d="M19.9637 17.9714H15.5605V0.4375H19.9637V17.9714Z" fill="#284380"/>
<path d="M38.7002 5.22533H33.1229C32.8966 5.18859 32.5786 5.14574 32.1627 5.10288L30.9396 4.99268C30.536 4.95595 30.2364 4.94371 30.0345 4.94371C28.7602 4.90784 27.4916 5.12852 26.3041 5.59266C25.3549 5.96786 24.5422 6.62342 23.9741 7.47217C23.4219 8.36181 23.1433 9.39443 23.173 10.4414C23.1394 11.44 23.385 12.4281 23.8824 13.2944C24.3311 14.0788 25.013 14.7037 25.8332 15.082C27.0507 15.6782 28.3803 16.01 29.7349 16.0555C32.1403 16.0555 33.9464 15.58 35.1532 14.629C35.7556 14.1535 36.2361 13.5412 36.5552 12.8428C36.8742 12.1444 37.0225 11.38 36.9879 10.6129C36.9792 10.2783 36.9341 9.94576 36.8533 9.62106C36.7788 9.31133 36.6636 9.01283 36.5109 8.73334L38.7002 7.92521V5.22533ZM31.3066 12.3209C31.1715 12.5187 30.9884 12.6787 30.7743 12.7859C30.5603 12.893 30.3225 12.9437 30.0835 12.9332C29.8349 12.9502 29.5861 12.9029 29.3612 12.7956C29.1362 12.6884 28.9427 12.5249 28.7992 12.3209C28.4763 11.7653 28.3272 11.1256 28.3711 10.4843C28.3287 9.84311 28.4777 9.20377 28.7992 8.64763C28.9427 8.44368 29.1362 8.28019 29.3612 8.17295C29.5861 8.06571 29.8349 8.01834 30.0835 8.03541C30.3226 8.02429 30.5606 8.07473 30.7747 8.18191C30.9889 8.28909 31.172 8.44943 31.3066 8.64763C31.6119 9.20949 31.7539 9.84576 31.7163 10.4843C31.7701 11.124 31.6271 11.7649 31.3066 12.3209Z" fill="#284380"/>
<path d="M52.9506 11.5614C52.9608 12.5276 52.8057 13.4883 52.492 14.4021C52.2419 15.1774 51.8243 15.8881 51.2689 16.4836C50.7024 17.0557 50.0148 17.493 49.2569 17.7632C48.3983 18.0633 47.4938 18.2105 46.5844 18.1978C45.7192 18.2067 44.8595 18.0595 44.0465 17.7632C43.2948 17.4838 42.6111 17.0476 42.0406 16.4836C41.4525 15.8945 40.9997 15.1842 40.7135 14.4021C40.3916 13.4903 40.2342 12.5284 40.2488 11.5614C40.2104 10.3206 40.4749 9.08917 41.0193 7.9738C41.5028 7.02734 42.262 6.25021 43.1964 5.74533C44.2575 5.21156 45.434 4.94867 46.6211 4.98005C47.7562 4.96027 48.8784 5.22324 49.8868 5.74533C50.8387 6.25151 51.6213 7.02639 52.1373 7.9738C52.7108 9.08023 52.9908 10.3155 52.9506 11.5614ZM44.6886 11.5614C44.6764 12.1791 44.7401 12.7959 44.8782 13.3981C44.9672 13.829 45.1797 14.2247 45.4897 14.5368C45.7952 14.8034 46.1918 14.9416 46.5966 14.9225C46.7968 14.9312 46.9966 14.8999 47.1845 14.8305C47.3725 14.7612 47.5447 14.6551 47.6913 14.5184C48.0002 14.2055 48.2125 13.8102 48.3029 13.3797C48.4356 12.7768 48.4972 12.1603 48.4863 11.543C48.4998 10.9256 48.4382 10.3089 48.3029 9.70638C48.2137 9.28431 48.0008 8.89847 47.6913 8.59826C47.3827 8.33824 46.9873 8.20481 46.5844 8.22481C46.2868 8.21234 45.9922 8.28822 45.7376 8.4429C45.483 8.59758 45.2797 8.82416 45.1534 9.09416C44.8047 9.86789 44.6454 10.7137 44.6886 11.5614Z" fill="#284380"/>
<path d="M52.4922 17.1756C52.4762 16.9019 52.5563 16.6312 52.7185 16.4103C52.8027 16.3191 52.9064 16.2481 53.0218 16.2025C53.1372 16.1569 53.2614 16.138 53.3851 16.147C53.5155 16.1354 53.6468 16.153 53.7695 16.1985C53.8922 16.2441 54.0032 16.3164 54.0945 16.4103C54.2419 16.6383 54.3204 16.904 54.3204 17.1756C54.3204 17.4471 54.2419 17.7129 54.0945 17.9408C54.0049 18.0292 53.8974 18.0974 53.7792 18.1407C53.6611 18.184 53.535 18.2014 53.4096 18.1919C53.2854 18.1997 53.1611 18.1796 53.0457 18.133C52.9303 18.0864 52.8269 18.0144 52.743 17.9225C52.5769 17.7093 52.4885 17.4459 52.4922 17.1756Z" fill="#284380"/>
<path d="M59.3172 0.4375V5.42096C59.3172 5.84951 59.3172 6.3148 59.3172 6.82906C59.3172 7.34332 59.3172 7.75963 59.2682 8.10248H59.3355C59.6377 7.32874 60.1745 6.66928 60.8705 6.21684C61.6811 5.69811 62.6306 5.43965 63.5919 5.47606C64.2864 5.44116 64.9794 5.56847 65.6162 5.84792C66.2531 6.12737 66.8162 6.5513 67.2612 7.08619C68.1296 8.1637 68.5577 9.7371 68.5577 11.8064C68.5736 12.9499 68.3658 14.0855 67.9461 15.1491C67.6041 16.0887 66.9696 16.8934 66.1361 17.4445C65.3025 17.9957 64.3142 18.2641 63.3167 18.2102C62.4179 18.2487 61.5281 18.0185 60.7604 17.549C60.1329 17.1501 59.6339 16.5782 59.3233 15.9021H59.2315L59.0175 17.9837H58.1797V0.4375H59.3172ZM63.4512 6.46785C62.6186 6.42727 61.7933 6.64077 61.0845 7.08007C60.4526 7.53229 59.9829 8.17633 59.7453 8.91673C59.4394 9.8591 59.2947 10.8464 59.3172 11.837V12.0146C59.2322 13.3677 59.5538 14.7153 60.2406 15.8838C60.8603 16.7735 61.8592 17.2164 63.2372 17.2123C63.8291 17.2497 64.4211 17.1415 64.9616 16.8971C65.502 16.6528 65.9745 16.2796 66.3378 15.8103C67.1106 14.6265 67.4797 13.2239 67.3896 11.8125C67.3896 10.0493 67.0655 8.71469 66.4111 7.82085C66.0689 7.36688 65.6191 7.00543 65.1023 6.7692C64.5855 6.53297 64.0181 6.4294 63.4512 6.46785Z" fill="#284380"/>
<path d="M69.9014 5.72119H71.1245L74.0905 13.4964C74.2739 13.9555 74.4329 14.378 74.5736 14.7637C74.7143 15.1494 74.8305 15.5044 74.9344 15.8289C75.0384 16.1534 75.1301 16.4411 75.1974 16.6983H75.2647C75.3747 16.3554 75.5276 15.9085 75.7172 15.3636C75.9068 14.8188 76.1147 14.2127 76.3288 13.527L79.2764 5.72119H80.4995L74.91 20.2736C74.6757 20.9011 74.3765 21.5023 74.0171 22.0674C73.7315 22.5255 73.3417 22.9094 72.8796 23.1878C72.3979 23.4491 71.8556 23.578 71.3079 23.5612C71.0538 23.5644 70.7999 23.5439 70.5496 23.5C70.3303 23.4587 70.1137 23.4035 69.9014 23.3347V22.3552C70.1023 22.4174 70.3064 22.4685 70.5129 22.5082C70.7365 22.5515 70.964 22.572 71.1917 22.5694C71.5793 22.5805 71.9631 22.4897 72.3048 22.3062C72.6428 22.1028 72.9295 21.8241 73.1426 21.4919C73.4245 21.0467 73.6582 20.5726 73.8397 20.0777L74.6714 17.9043L69.9014 5.72119Z" fill="#284380"/>
<path d="M30.1943 23.3284C26.0541 23.3284 22.8068 20.9714 22.8068 17.9715C22.7917 17.6997 22.8322 17.4277 22.9258 17.1721C23.0193 16.9165 23.164 16.6827 23.3509 16.4849C23.5378 16.2872 23.763 16.1297 24.0127 16.022C24.2625 15.9144 24.5316 15.8589 24.8035 15.8589C25.0754 15.8589 25.3445 15.9144 25.5942 16.022C25.844 16.1297 26.0692 16.2872 26.2561 16.4849C26.443 16.6827 26.5876 16.9165 26.6812 17.1721C26.7747 17.4277 26.8152 17.6997 26.8002 17.9715C26.8002 18.3082 28.0233 19.3306 30.1943 19.3306C32.3653 19.3306 33.5945 18.3082 33.5945 17.9715C33.5795 17.6997 33.62 17.4277 33.7135 17.1721C33.8071 16.9165 33.9517 16.6827 34.1386 16.4849C34.3255 16.2872 34.5507 16.1297 34.8005 16.022C35.0502 15.9144 35.3193 15.8589 35.5912 15.8589C35.8631 15.8589 36.1322 15.9144 36.382 16.022C36.6317 16.1297 36.8569 16.2872 37.0438 16.4849C37.2307 16.6827 37.3753 16.9165 37.4689 17.1721C37.5624 17.4277 37.6029 17.6997 37.5879 17.9715C37.5879 20.9714 34.3406 23.3284 30.1943 23.3284Z" fill="#C73260"/>
</svg>
