<svg width="87" height="87" viewBox="0 0 87 87" fill="none" xmlns="http://www.w3.org/2000/svg">
<path fill-rule="evenodd" clip-rule="evenodd" d="M16.5557 19.1636C14.6356 19.1636 13.0791 20.7201 13.0791 22.6402V59.1449C13.0791 61.065 14.6356 62.6215 16.5557 62.6215H43.761H69.575H70.4436C72.3637 62.6215 73.9202 61.065 73.9202 59.1449V43.2786C73.9208 42.5237 73.9208 41.7293 73.9208 40.8925C73.9208 39.8383 73.9208 38.8513 73.9202 37.9266V22.6402C73.9202 20.7201 72.3637 19.1636 70.4436 19.1636H69.575H17.6862H16.5557ZM31.332 72.6168C31.332 72.1823 32.375 70.5309 33.7657 68.9664C36.1124 66.1851 36.2862 66.0982 43.5003 66.1851C50.7143 66.1851 50.975 66.272 53.3217 68.9664C54.6255 70.5309 55.6685 72.1823 55.6685 72.6168C55.6685 73.1383 54.9732 74.1813 54.104 75.0505C52.8872 76.3542 51.1488 76.615 43.5003 76.5281C36.1124 76.5281 34.1133 76.1804 32.8096 74.9636C32.0274 74.1813 31.332 73.1383 31.332 72.6168Z" fill="#CCD5FF"/>
</svg>
