<svg width="57" height="59" viewBox="0 0 57 59" fill="none" xmlns="http://www.w3.org/2000/svg">
<path fill-rule="evenodd" clip-rule="evenodd" d="M25.473 0.364746C23.8012 0.364746 22.4459 1.71999 22.4459 3.39177V5.66204H8.06757C3.88812 5.66204 0.5 9.05015 0.5 13.2296V51.0675C0.5 55.2469 3.88811 58.635 8.06757 58.635H48.9324C53.1119 58.635 56.5 55.2469 56.5 51.0675V13.2296C56.5 9.05016 53.1119 5.66204 48.9324 5.66204H48.1129C48.1542 5.41594 48.1757 5.16312 48.1757 4.90529C48.1757 2.39761 46.1428 0.364746 43.6351 0.364746H35.3108C32.8031 0.364746 30.7703 2.39761 30.7703 4.90529C30.7703 5.16312 30.7918 5.41594 30.833 5.66204H28.5V3.39177C28.5 1.71999 27.1448 0.364746 25.473 0.364746ZM8.06757 45.0133C6.39579 45.0133 5.04054 46.3686 5.04054 48.0404C5.04054 49.7121 6.39579 51.0674 8.06757 51.0674H33.0405C34.7123 51.0674 36.0676 49.7121 36.0676 48.0404C36.0676 46.3686 34.7123 45.0133 33.0405 45.0133H8.06757ZM5.04054 39.716C5.04054 38.0443 6.39579 36.689 8.06757 36.689H33.0405C34.7123 36.689 36.0676 38.0443 36.0676 39.716C36.0676 41.3878 34.7123 42.7431 33.0405 42.7431H8.06757C6.39579 42.7431 5.04054 41.3878 5.04054 39.716ZM48.1757 38.9593C48.1757 37.2875 46.8204 35.9322 45.1486 35.9322C43.4769 35.9322 42.1216 37.2875 42.1216 38.9593V48.0404C42.1216 49.7121 43.4769 51.0674 45.1486 51.0674C46.8204 51.0674 48.1757 49.7121 48.1757 48.0404V38.9593ZM10.3378 14.7431C10.466 14.7431 10.5923 14.751 10.7162 14.7665C10.8402 14.751 10.9665 14.7431 11.0946 14.7431H13.3649C15.0366 14.7431 16.3919 16.0983 16.3919 17.7701C16.3919 19.4419 15.0366 20.7971 13.3649 20.7971V26.8512C13.3649 28.5229 12.0096 29.8782 10.3378 29.8782C8.66606 29.8782 7.31081 28.5229 7.31081 26.8512V17.7701C7.31081 16.0983 8.66606 14.7431 10.3378 14.7431ZM22.8243 14.7665C22.7004 14.751 22.5741 14.7431 22.4459 14.7431C20.7742 14.7431 19.4189 16.0983 19.4189 17.7701V26.8512C19.4189 28.5229 20.7742 29.8782 22.4459 29.8782C24.1177 29.8782 25.473 28.5229 25.473 26.8512L25.473 20.7971C27.1448 20.7971 28.5 19.4419 28.5 17.7701C28.5 16.0983 27.1448 14.7431 25.473 14.7431H23.2027C23.0746 14.7431 22.9483 14.751 22.8243 14.7665ZM48.1752 17.77C48.1752 16.0983 46.82 14.743 45.1482 14.743H36.0671C34.3953 14.743 33.0401 16.0983 33.0401 17.77V26.8511C33.0401 28.5229 34.3953 29.8782 36.0671 29.8782H45.1482C46.82 29.8782 48.1752 28.5229 48.1752 26.8511V17.77ZM44.3914 20.0403C44.3914 19.2044 43.7138 18.5268 42.8779 18.5268H38.3374C37.5015 18.5268 36.8238 19.2044 36.8238 20.0403V24.5809C36.8238 25.4167 37.5015 26.0944 38.3374 26.0944H42.8779C43.7138 26.0944 44.3914 25.4167 44.3914 24.5809V20.0403ZM36.0676 3.39177C34.8137 3.39177 33.7973 4.40821 33.7973 5.66204C33.7973 6.91588 34.8137 7.93231 36.0676 7.93231H42.8784C44.1322 7.93231 45.1487 6.91588 45.1487 5.66204C45.1487 4.40821 44.1322 3.39177 42.8784 3.39177H36.0676Z" fill="#CCD5FF"/>
</svg>
