<svg width="44" height="67" viewBox="0 0 44 67" fill="none" xmlns="http://www.w3.org/2000/svg">
<path d="M13.9309 2.39588C11.6989 3.47588 8.6749 5.85188 6.8749 7.93988C5.0749 9.95588 3.2029 13.1239 2.5549 15.1399C1.9069 17.1559 1.33091 21.3319 1.33091 24.4999L1.25891 30.2599L20.3389 30.6199C20.3389 23.6359 20.1229 22.6999 19.2589 22.6999C18.3949 22.6999 17.4591 20.3959 17.4591 15.8599C17.3871 11.6839 18.3949 10.5319 19.2589 9.73988C20.3389 9.73988 20.4109 8.08388 20.3389 4.84388C20.3389 1.09988 20.1229 0.379883 19.0429 0.451883C18.3949 0.451883 16.0909 1.31588 13.9309 2.39588ZM24.6589 5.05988C24.6589 8.73188 24.8749 9.73988 25.7389 9.73988C26.6029 9.73988 27.5391 10.8919 27.5391 15.8599C27.5391 20.6839 26.6029 22.0519 25.7389 22.3399C24.9469 22.6279 24.6589 23.7799 24.6589 26.6599V30.6199H43.3789C44.0989 27.5239 44.0989 24.7159 43.8829 22.3399C43.6669 19.9639 42.9469 16.5799 42.3709 14.7799C41.7229 12.9799 39.8509 9.95588 38.1949 8.01188C36.3949 5.92388 33.3709 3.61988 30.9229 2.46788C28.6909 1.31588 26.3149 0.379883 25.7389 0.379883C24.8749 0.379883 24.6589 1.38788 24.6589 5.05988ZM1.18691 36.8839C0.898905 38.0359 0.898905 41.1319 1.1149 43.9399C1.3309 46.6759 2.05091 50.4199 2.62691 52.2199C3.20291 54.0199 5.1469 57.0439 6.8749 59.0599C8.7469 61.2199 11.6269 63.4519 14.0749 64.6039C17.1709 66.1159 19.2589 66.6199 22.4989 66.6199C25.8109 66.6199 27.7549 66.1159 30.9229 64.5319C33.3709 63.3799 36.3949 61.0039 38.1949 58.9879C39.8509 57.0439 41.7949 53.8039 42.4429 51.8599C43.1629 49.6999 43.6669 45.6679 43.6669 41.7799L43.7389 35.2999L1.69091 34.9399L1.18691 36.8839Z" fill="#CCD5FF"/>
</svg>
