<svg width="111" height="69" viewBox="0 0 111 69" fill="none" xmlns="http://www.w3.org/2000/svg">
<rect x="0.5" y="0.0136719" width="110" height="68.973" rx="4" fill="white"/>
<path d="M13 15.5812C13 11.4018 16.3881 8.01367 20.5676 8.01367H61.4324C65.6119 8.01367 69 11.4018 69 15.5812V53.4191C69 57.5985 65.6119 60.9866 61.4324 60.9866H20.5676C16.3881 60.9866 13 57.5985 13 53.4191V15.5812Z" fill="#CCD5FF"/>
<path d="M84.7243 20.7726C83.7392 21.2492 82.4045 22.2979 81.6101 23.2194C80.8157 24.1092 79.9895 25.5074 79.7035 26.3971C79.4175 27.2869 79.1633 29.1299 79.1633 30.5281L79.1315 33.0703L87.5524 33.2292C87.5524 30.1468 87.4571 29.7337 87.0758 29.7337C86.6945 29.7337 86.2814 28.7168 86.2814 26.7149C86.2496 24.8718 86.6945 24.3634 87.0758 24.0138C87.5524 24.0138 87.5842 23.283 87.5524 21.853C87.5524 20.2006 87.4571 19.8828 86.9805 19.9146C86.6945 19.9146 85.6776 20.2959 84.7243 20.7726ZM89.4591 21.9483C89.4591 23.569 89.5544 24.0138 89.9357 24.0138C90.317 24.0138 90.7302 24.5223 90.7302 26.7149C90.7302 28.844 90.317 29.4477 89.9357 29.5748C89.5862 29.7019 89.4591 30.2104 89.4591 31.4815V33.2292H97.7211C98.0389 31.8628 98.0389 30.6235 97.9435 29.5748C97.8482 28.5262 97.5304 27.0327 97.2762 26.2382C96.9902 25.4438 96.164 24.1092 95.4332 23.2512C94.6387 22.3296 93.3041 21.3128 92.2237 20.8043C91.2386 20.2959 90.1899 19.8828 89.9357 19.8828C89.5544 19.8828 89.4591 20.3277 89.4591 21.9483ZM79.0997 35.9938C78.9726 36.5022 78.9726 37.8686 79.068 39.108C79.1633 40.3155 79.4811 41.9679 79.7353 42.7623C79.9895 43.5567 80.8475 44.8914 81.6101 45.7811C82.4363 46.7345 83.7074 47.7195 84.7878 48.228C86.1542 48.8953 87.0758 49.1177 88.5058 49.1177C89.9675 49.1177 90.8255 48.8953 92.2237 48.1962C93.3041 47.6878 94.6387 46.6391 95.4332 45.7494C96.164 44.8914 97.022 43.4614 97.308 42.6034C97.6258 41.6501 97.8482 39.8706 97.8482 38.1546L97.88 35.2947L79.3222 35.1358L79.0997 35.9938Z" fill="#CCD5FF"/>
</svg>
