<svg width="87" height="55" viewBox="0 0 87 55" fill="none" xmlns="http://www.w3.org/2000/svg">
<g clip-path="url(#clip0_509_13087)">
<path d="M82.8898 26.3122V27.6667C82.888 30.8414 81.8599 33.9305 79.9591 36.4733C78.0582 39.016 75.3863 40.8762 72.3418 41.7763C69.2974 42.6765 66.0435 42.5684 63.0655 41.4682C60.0875 40.3679 57.5449 38.3346 55.817 35.6713C54.0891 33.008 53.2683 29.8574 53.4772 26.6896C53.6861 23.5217 54.9134 20.5063 56.9761 18.0929C59.0388 15.6796 61.8264 13.9977 64.923 13.298C68.0197 12.5984 71.2596 12.9185 74.1595 14.2106" stroke="#CCD5FF" stroke-width="2.94444" stroke-linecap="round" stroke-linejoin="round"/>
<path d="M82.8908 15.8887L68.1686 30.6256L63.752 26.2089" stroke="#CCD5FF" stroke-width="7.36111" stroke-linecap="round" stroke-linejoin="round"/>
<g clip-path="url(#clip1_509_13087)">
<path d="M82.8898 26.3122V27.6667C82.888 30.8414 81.8599 33.9305 79.9591 36.4733C78.0582 39.016 75.3863 40.8762 72.3418 41.7763C69.2974 42.6765 66.0435 42.5684 63.0655 41.4682C60.0875 40.3679 57.5449 38.3346 55.817 35.6713C54.0891 33.008 53.2683 29.8574 53.4772 26.6896C53.6861 23.5217 54.9134 20.5063 56.9761 18.0929C59.0388 15.6796 61.8264 13.9977 64.923 13.298C68.0197 12.5984 71.2596 12.9185 74.1595 14.2106" stroke="white" stroke-width="2.94444" stroke-linecap="round" stroke-linejoin="round"/>
</g>
<path fill-rule="evenodd" clip-rule="evenodd" d="M32.3036 0.399902V24.2148H28.7314V19.1541C28.7314 16.3559 28.4337 13.4981 28.136 12.7241C27.7788 12.0097 26.8857 11.0571 26.0522 10.6998C25.1591 10.2236 22.3013 9.92587 13.5494 9.9854L15.0378 8.3779C15.8713 7.54437 17.717 5.99641 19.2054 4.98427C20.6938 3.97214 23.373 2.54324 25.1591 1.8288C26.9453 1.11435 29.3267 0.45944 32.3036 0.399902ZM34.6851 0.399902H36.3521C37.2452 0.399902 39.6862 1.05481 41.8296 1.88833C43.9729 2.72186 46.9498 4.32936 48.5573 5.46057C50.1052 6.59178 52.3081 8.79466 53.4393 10.4022C54.5705 11.9501 56.178 14.927 57.0116 17.0703C57.8451 19.2137 58.5 21.6547 58.5 24.2148H34.6851V0.399902ZM13.2517 12.3074C21.825 12.3074 25.0401 12.486 25.6354 13.0218C26.1713 13.6172 26.3499 16.8322 26.3499 25.4056C26.3499 33.7408 26.1713 37.2535 25.6354 37.7893C25.0996 38.3251 21.825 38.5038 13.2517 38.5038C4.67832 38.5038 1.4633 38.3251 0.86793 37.7893C0.332095 37.1939 0.0939458 33.8598 0.0344085 25.4056C-0.084666 16.0582 0.0939458 13.6172 0.748856 13.0218C1.34423 12.5455 5.03554 12.3074 13.2517 12.3074ZM8.4887 32.55C11.287 32.55 11.4656 32.3119 11.4656 30.3471C11.4656 28.1443 11.5251 28.0847 13.9661 27.668C15.395 27.4298 17.1216 26.5963 17.8956 25.8819C18.6696 25.0483 19.2649 23.798 19.2649 22.7264C19.2649 21.6547 18.6696 20.4044 17.8956 19.6304C16.7644 18.4992 15.8713 18.2611 12.5372 18.2611H8.4887V32.55ZM28.7314 26.5963H58.5V28.2633C58.5 29.1564 57.8451 31.5974 57.0116 33.7408C56.178 35.8841 54.5705 38.861 53.4393 40.4685C52.3081 42.0165 50.1052 44.2193 48.5573 45.3505C46.9498 46.4817 43.9729 48.0893 41.8296 48.9228C38.9122 50.054 36.8284 50.4112 33.4944 50.4112C30.2198 50.4112 28.0765 50.054 25.4568 49.0418C23.4921 48.2679 20.6938 46.839 19.2054 45.8268C17.717 44.8147 15.8713 43.2667 13.5494 40.8257L19.0863 40.8852C22.0632 40.8852 25.1591 40.5876 25.9331 40.2899C26.6476 39.9326 27.6002 39.0396 28.0169 38.2061C28.4337 37.3725 28.7314 34.5148 28.7314 31.657V26.5963ZM13.3708 20.7616C14.3829 20.8807 15.5141 21.4166 15.8713 22.0119C16.3476 22.7264 16.3476 23.3218 15.8713 24.0957C15.5141 24.6316 14.3829 25.1674 13.3112 25.2865C11.5251 25.4056 11.4656 25.346 11.5251 22.9645C11.5251 20.6426 11.5846 20.583 13.3708 20.7616Z" fill="#CCD5FF"/>
</g>
<defs>
<clipPath id="clip0_509_13087">
<rect width="86" height="55" fill="white" transform="translate(0.5)"/>
</clipPath>
<clipPath id="clip1_509_13087">
<rect width="5" height="35" fill="white" transform="translate(50.5 10)"/>
</clipPath>
</defs>
</svg>
