<svg width="43" height="59" viewBox="0 0 43 59" fill="none" xmlns="http://www.w3.org/2000/svg">
<path fill-rule="evenodd" clip-rule="evenodd" d="M5 0.939941C2.23858 0.939941 0 3.17852 0 5.93994V53.0593C0 55.8208 2.23858 58.0593 5 58.0593H38C40.7614 58.0593 43 55.8208 43 53.0593V5.93994C43 3.17852 40.7614 0.939941 38 0.939941H5ZM21.1791 18.9101C24.0147 18.9101 26.3134 16.6114 26.3134 13.7758C26.3134 10.9402 24.0147 8.64143 21.1791 8.64143C18.3435 8.64143 16.0448 10.9402 16.0448 13.7758C16.0448 16.6114 18.3435 18.9101 21.1791 18.9101ZM34.6567 39.4474C34.6567 46.8909 28.6226 52.925 21.1791 52.925C13.7356 52.925 7.70149 46.8909 7.70149 39.4474C7.70149 32.0039 13.7356 25.9698 21.1791 25.9698C28.6226 25.9698 34.6567 32.0039 34.6567 39.4474ZM21.1791 43.9399C23.6603 43.9399 25.6716 41.9286 25.6716 39.4474C25.6716 36.9662 23.6603 34.9549 21.1791 34.9549C18.6979 34.9549 16.6866 36.9662 16.6866 39.4474C16.6866 41.9286 18.6979 43.9399 21.1791 43.9399Z" fill="#CCD5FF"/>
</svg>
