<svg width="80" height="46" viewBox="0 0 80 46" fill="none" xmlns="http://www.w3.org/2000/svg">
<path d="M67.6911 0.658193L67.6911 1.15819L67.6911 0.658193ZM76.1476 0.658193L76.1476 0.158193L76.1476 0.658193ZM54.0073 0.658193L54.0073 0.158193L54.0073 0.658193ZM40.7071 0.658193L40.7071 0.158193L40.7071 0.658193ZM4.57016 0.658193L4.57016 0.158193L4.57016 0.658193ZM1.35888 3.86946L0.858887 3.86946L0.858887 3.86946L1.35888 3.86946ZM1.35888 41.4469L0.858888 41.4469L1.35888 41.4469ZM4.57015 44.6582L4.57015 44.1582L4.57015 44.6582ZM41.2344 44.6582L41.2344 45.1582L41.2344 44.6582ZM54.3946 44.6582L54.3946 44.1582L54.3946 44.6582ZM67.1656 44.6582L67.1656 44.1582L67.1656 44.6582ZM76.1476 44.6582L76.1476 44.1582L76.1476 44.1582L76.1476 44.6582ZM79.3589 41.4469L79.8589 41.4469L79.3589 41.4469ZM79.3589 27.6158L78.8589 27.6158L79.3589 27.6158ZM79.3589 22.2781L79.8589 22.2781L79.3589 22.2781ZM79.3589 17.3858L79.8589 17.3858L79.3589 17.3858ZM79.3589 3.86946L78.8589 3.86946L79.3589 3.86946ZM34.0006 6.65819L34.3938 6.967L35.029 6.15819L34.0006 6.15819L34.0006 6.65819ZM7.35888 6.65819L7.35888 6.15819L6.85888 6.15819L6.85889 6.65819L7.35888 6.65819ZM34.2534 38.6582L34.2534 39.1582L35.3028 39.1582L34.6417 38.3432L34.2534 38.6582ZM7.35889 38.6582L6.8589 38.6582L6.85889 39.1582L7.35889 39.1582L7.35889 38.6582ZM42.982 38.6582L42.6965 39.0687L42.982 38.6582ZM39.3658 35.4164L39.165 34.9585L38.5417 35.2318L38.9889 35.745L39.3658 35.4164ZM39.8657 35.0711L39.5091 34.7206L39.8657 35.0711ZM48.5093 26.2739L48.9379 26.0164L48.6053 25.4628L48.1527 25.9235L48.5093 26.2739ZM61.0339 27.0831L61.3843 26.7265L60.9874 26.3365L60.6419 26.7727L61.0339 27.0831ZM68.9036 34.8155L69.254 34.4588L68.9036 34.8155ZM69.3014 35.102L69.6851 35.4225L70.0875 34.9408L69.528 34.6563L69.3014 35.102ZM65.4176 38.6582L65.1321 38.2477L65.1321 38.2477L65.4176 38.6582ZM37.5019 32.9001L37.0778 33.1648L37.4377 33.7415L37.881 33.2261L37.5019 32.9001ZM37.5751 32.8204L37.2185 32.47L37.2184 32.47L37.5751 32.8204ZM47.4371 22.7833L47.7937 23.1337L47.9486 22.9761L47.9363 22.7554L47.4371 22.7833ZM48.856 17.9034L49.2619 18.1953L49.5123 17.8472L49.2065 17.5467L48.856 17.9034ZM39.8465 9.05111L40.1969 8.69446L39.8318 8.33567L39.4817 8.70919L39.8465 9.05111ZM42.2297 6.89073L41.9251 6.4942L41.4691 6.84442L41.8792 7.24738L42.2297 6.89073ZM42.5387 6.65819L42.2419 6.25577L42.2419 6.25577L42.5387 6.65819ZM65.86 6.65819L66.1567 6.25575L65.86 6.65819ZM65.9793 6.74685L66.3359 7.09727L66.7367 6.68941L66.279 6.34664L65.9793 6.74685ZM57.6825 15.1909L57.51 15.6602L57.813 15.7716L58.0392 15.5414L57.6825 15.1909ZM51.2404 15.7442L50.8899 16.1008L51.1613 16.3674L51.4906 16.177L51.2404 15.7442ZM60.4461 16.9603L60.0894 16.6098L59.7421 16.9633L60.0925 17.3137L60.4461 16.9603ZM62.4961 24.0178L62.008 23.909L61.9477 24.1799L62.1456 24.3745L62.4961 24.0178ZM71.1359 32.5069L70.7855 32.8635L71.2408 33.3109L71.5661 32.7616L71.1359 32.5069ZM73.3589 26.9682L73.8459 27.0814L73.3589 26.9682ZM73.3589 18.0323L72.8718 18.1454L73.3589 18.0323ZM68.3879 8.87741L68.7485 8.53106L68.3919 8.15984L68.0312 8.52698L68.3879 8.87741ZM67.6911 1.15819L76.1476 1.15819L76.1476 0.158193L67.6911 0.158193L67.6911 1.15819ZM54.0073 1.15819L67.6911 1.15819L67.6911 0.158193L54.0073 0.158193L54.0073 1.15819ZM40.7071 1.15819L54.0073 1.15819L54.0073 0.158193L40.7071 0.158193L40.7071 1.15819ZM4.57016 1.15819L40.7071 1.15819L40.7071 0.158193L4.57016 0.158193L4.57016 1.15819ZM1.85888 3.86946C1.85889 2.37207 3.07276 1.15819 4.57016 1.15819L4.57016 0.158193C2.52048 0.158193 0.858888 1.81979 0.858887 3.86946L1.85888 3.86946ZM1.85888 41.4469L1.85888 3.86946L0.858887 3.86946L0.858888 41.4469L1.85888 41.4469ZM4.57015 44.1582C3.07276 44.1582 1.85889 42.9443 1.85888 41.4469L0.858888 41.4469C0.858887 43.4966 2.52047 45.1582 4.57015 45.1582L4.57015 44.1582ZM41.2344 44.1582L4.57015 44.1582L4.57015 45.1582L41.2344 45.1582L41.2344 44.1582ZM54.3946 44.1582L41.2344 44.1582L41.2344 45.1582L54.3946 45.1582L54.3946 44.1582ZM67.1656 44.1582L54.3946 44.1582L54.3946 45.1582L67.1656 45.1582L67.1656 44.1582ZM76.1476 44.1582L67.1656 44.1582L67.1656 45.1582L76.1476 45.1582L76.1476 44.1582ZM78.8589 41.4469C78.8589 42.9443 77.645 44.1582 76.1476 44.1582L76.1476 45.1582C78.1973 45.1582 79.8589 43.4966 79.8589 41.4469L78.8589 41.4469ZM78.8589 27.6158L78.8589 41.4469L79.8589 41.4469L79.8589 27.6158L78.8589 27.6158ZM78.8589 22.2781L78.8589 27.6158L79.8589 27.6158L79.8589 22.2781L78.8589 22.2781ZM78.8589 17.3858L78.8589 22.2781L79.8589 22.2781L79.8589 17.3858L78.8589 17.3858ZM78.8589 3.86946L78.8589 17.3858L79.8589 17.3858L79.8589 3.86946L78.8589 3.86946ZM76.1476 1.15819C77.645 1.15819 78.8589 2.37207 78.8589 3.86946L79.8589 3.86946C79.8589 1.81979 78.1973 0.158193 76.1476 0.158193L76.1476 1.15819ZM34.0006 6.15819L7.35888 6.15819L7.35888 7.15819L34.0006 7.15819L34.0006 6.15819ZM29.0315 22.7211C28.9792 16.7798 30.9892 11.3024 34.3938 6.967L33.6074 6.34938C30.0676 10.8569 27.9772 16.5536 28.0315 22.73L29.0315 22.7211ZM34.6417 38.3432C31.1784 34.0737 29.0837 28.6462 29.0315 22.7211L28.0315 22.73C28.0858 28.8894 30.2643 34.5342 33.8651 38.9732L34.6417 38.3432ZM7.35889 39.1582L34.2534 39.1582L34.2534 38.1582L7.35889 38.1582L7.35889 39.1582ZM6.85889 6.65819L6.8589 38.6582L7.85889 38.6582L7.85888 6.65819L6.85889 6.65819ZM42.6965 39.0687C46.007 41.3711 50.0388 42.706 54.3771 42.6678L54.3683 41.6679C50.2438 41.7042 46.4136 40.4357 43.2675 38.2477L42.6965 39.0687ZM38.9889 35.745C40.082 36.9992 41.3276 38.1166 42.6965 39.0687L43.2675 38.2477C41.9662 37.3427 40.782 36.2803 39.7427 35.0879L38.9889 35.745ZM39.5091 34.7206C39.4067 34.8249 39.2897 34.9039 39.165 34.9585L39.5666 35.8743C39.8059 35.7694 40.0292 35.6181 40.2224 35.4215L39.5091 34.7206ZM48.1527 25.9235L39.5091 34.7206L40.2224 35.4215L48.866 26.6243L48.1527 25.9235ZM55.1145 29.4783C52.497 29.5013 50.1961 28.1106 48.9379 26.0164L48.0807 26.5314C49.5138 28.9167 52.1372 30.5045 55.1233 30.4783L55.1145 29.4783ZM60.6419 26.7727C59.3491 28.4053 57.3574 29.4585 55.1145 29.4783L55.1233 30.4783C57.6814 30.4557 59.9533 29.253 61.4259 27.3935L60.6419 26.7727ZM69.254 34.4588L61.3843 26.7265L60.6835 27.4398L68.5531 35.1721L69.254 34.4588ZM69.528 34.6563C69.4301 34.6065 69.3376 34.5409 69.254 34.4588L68.5531 35.1721C68.7105 35.3267 68.8868 35.4521 69.0748 35.5477L69.528 34.6563ZM65.7031 39.0687C67.1887 38.0353 68.5282 36.8075 69.6851 35.4225L68.9176 34.7814C67.8177 36.0982 66.5442 37.2655 65.1321 38.2477L65.7031 39.0687ZM54.3771 42.6678C58.5881 42.6308 62.4878 41.3052 65.7031 39.0687L65.1321 38.2477C62.0766 40.373 58.3719 41.6326 54.3683 41.6679L54.3771 42.6678ZM37.9261 32.6353C36.12 29.7418 35.0635 26.3302 35.0313 22.6683L34.0313 22.6771C34.0652 26.5284 35.1769 30.1195 37.0778 33.1648L37.9261 32.6353ZM37.2184 32.47C37.1852 32.5039 37.1533 32.5386 37.1228 32.5741L37.881 33.2261C37.8972 33.2072 37.9141 33.1888 37.9318 33.1708L37.2184 32.47ZM47.0804 22.4329L37.2185 32.47L37.9318 33.1709L47.7937 23.1337L47.0804 22.4329ZM46.9253 22.4233C46.9265 22.5534 46.9306 22.6827 46.9378 22.8112L47.9363 22.7554C47.93 22.6425 47.9263 22.5289 47.9253 22.4145L46.9253 22.4233ZM48.4501 17.6115C47.4768 18.9648 46.9095 20.6294 46.9253 22.4233L47.9253 22.4145C47.9114 20.8402 48.4085 19.382 49.2619 18.1953L48.4501 17.6115ZM49.2065 17.5467L40.1969 8.69446L39.4961 9.40777L48.5056 18.2601L49.2065 17.5467ZM35.0313 22.6683C34.9861 17.5385 36.9596 12.8625 40.2113 9.39304L39.4817 8.70919C36.0612 12.3587 33.9838 17.2801 34.0313 22.6771L35.0313 22.6683ZM42.5342 7.28727C42.6339 7.21076 42.7342 7.1352 42.8354 7.06062L42.2419 6.25577C42.1355 6.33423 42.0299 6.41371 41.9251 6.4942L42.5342 7.28727ZM42.8354 7.06062C45.9707 4.74871 49.8369 3.36824 54.0308 3.33132L54.022 2.33136C49.6106 2.3702 45.541 3.82306 42.2419 6.25577L42.8354 7.06062ZM54.0308 3.33132C58.3457 3.29334 62.3388 4.68341 65.5633 7.06064L66.1567 6.25575C62.7639 3.75443 58.5608 2.29141 54.022 2.33136L54.0308 3.33132ZM65.5633 7.06064C65.6021 7.0893 65.6409 7.1181 65.6795 7.14705L66.279 6.34664C66.2383 6.31619 66.1976 6.28589 66.1567 6.25575L65.5633 7.06064ZM65.6226 6.39642L57.3259 14.8405L58.0392 15.5414L66.3359 7.09727L65.6226 6.39642ZM57.855 14.7216C56.959 14.3923 55.9897 14.2165 54.9802 14.2254L54.989 15.2253C55.876 15.2175 56.7255 15.3719 57.51 15.6602L57.855 14.7216ZM54.9802 14.2254C53.5273 14.2381 52.1654 14.6319 50.9901 15.3113L51.4906 16.177C52.5203 15.5818 53.7133 15.2365 54.989 15.2253L54.9802 14.2254ZM41.8792 7.24738L50.8899 16.1008L51.5908 15.3875L42.5801 6.53408L41.8792 7.24738ZM63.1782 22.2803C63.1587 20.0629 62.2522 18.0599 60.7997 16.6068L60.0925 17.3137C61.3672 18.589 62.1611 20.3442 62.1782 22.2891L63.1782 22.2803ZM62.9841 24.1266C63.1165 23.5323 63.1838 22.9141 63.1782 22.2803L62.1782 22.2891C62.1831 22.8463 62.1241 23.3885 62.008 23.909L62.9841 24.1266ZM71.4863 32.1502L62.8465 23.6612L62.1456 24.3745L70.7855 32.8635L71.4863 32.1502ZM72.8719 26.855C72.4244 28.7808 71.6862 30.5962 70.7057 32.2521L71.5661 32.7616C72.5979 31.0192 73.3749 29.1085 73.8459 27.0814L72.8719 26.855ZM73.3678 22.3309C73.3815 23.8882 73.2092 25.4032 72.8719 26.855L73.8459 27.0814C74.201 25.5531 74.3822 23.9592 74.3678 22.3221L73.3678 22.3309ZM72.8718 18.1454C73.1842 19.4908 73.3551 20.8913 73.3678 22.3309L74.3678 22.3221C74.3545 20.8088 74.1747 19.3354 73.8459 17.9193L72.8718 18.1454ZM68.0272 9.22376C70.3733 11.6665 72.0788 14.7298 72.8718 18.1454L73.8459 17.9193C73.0111 14.3235 71.216 11.1002 68.7485 8.53106L68.0272 9.22376ZM60.8027 17.3107L68.7445 9.22784L68.0312 8.52698L60.0894 16.6098L60.8027 17.3107Z" fill="#34C759"/>
</svg>
