<svg width="57" height="65" viewBox="0 0 57 65" fill="none" xmlns="http://www.w3.org/2000/svg">
<path fill-rule="evenodd" clip-rule="evenodd" d="M0 3.99984C0 2.22631 1.43773 0.788574 3.21127 0.788574H53.7887C55.5623 0.788574 57 2.22631 57 3.99984V60.9998C57 62.7734 55.5623 64.2111 53.7887 64.2111H3.21127C1.43774 64.2111 0 62.7734 0 60.9998V3.99984ZM48.1693 26.0773C48.1693 31.2376 46.182 35.9337 42.9312 39.4422L34.0234 30.5345C35.3272 29.1661 36.1275 27.3137 36.1275 25.2745C36.1275 23.6455 35.6168 22.1358 34.7468 20.8968L42.9312 12.7124C46.1821 16.2209 48.1693 20.917 48.1693 26.0773ZM28.5002 45.7463C33.0459 45.7463 37.2315 44.2043 40.5623 41.6148L31.3134 32.3659C30.4431 32.7113 29.4941 32.9012 28.5008 32.9012C27.6171 32.9012 26.7685 32.7509 25.9791 32.4745L16.6651 41.7885C19.9582 44.2731 24.0572 45.7463 28.5002 45.7463ZM14.2635 39.6488C10.8977 36.1191 8.83122 31.3395 8.83122 26.0773C8.83122 20.8151 10.8977 16.0355 14.2634 12.5058L22.4234 20.6659C21.4511 21.9461 20.874 23.5429 20.874 25.2745C20.874 27.4154 21.7562 29.3503 23.1768 30.7355L14.2635 39.6488ZM24.8666 18.5676C25.947 17.9809 27.185 17.6477 28.5008 17.6477C29.9213 17.6477 31.2511 18.0361 32.3898 18.7124L40.5623 10.5398C37.2315 7.95031 33.046 6.40826 28.5002 6.40826C24.0571 6.40826 19.9581 7.88147 16.665 10.3661L24.8666 18.5676Z" fill="#CCD5FF"/>
</svg>
