<svg width="67" height="67" viewBox="0 0 67 67" fill="none" xmlns="http://www.w3.org/2000/svg">
<path fill-rule="evenodd" clip-rule="evenodd" d="M33.4993 6.0293C48.2393 6.0293 48.9093 6.0963 49.5793 7.3693C49.9143 8.1063 50.2493 9.9153 50.2493 11.3893C50.2493 13.176 49.8026 14.516 48.9093 15.4093C47.6363 16.6823 46.6983 16.7493 33.4993 16.7493C20.3003 16.7493 19.3623 16.6823 18.0893 15.4093C17.2183 14.5383 16.7493 13.1313 16.6823 11.3223C16.6823 9.8483 16.9503 8.0393 17.3523 7.3023C18.0893 6.0963 19.0273 6.0293 33.4993 6.0293ZM33.2983 22.7793C51.2543 22.7793 55.2743 22.9803 56.9493 23.7843C58.0883 24.3203 59.4283 25.7273 59.9643 26.7993C60.7013 28.2063 60.9693 30.9533 60.9693 36.3803C60.9693 43.2143 60.8353 44.0183 59.4283 45.4253C58.2223 46.6313 57.2173 46.8993 50.2493 46.8993L50.1153 50.8523C49.9143 54.0013 49.5793 55.1403 46.5643 58.3563H20.4343L18.7593 56.5473C17.4193 55.1403 17.0843 54.0013 16.7493 46.8993H12.8633C9.8483 46.8993 8.7093 46.5643 7.5033 45.3583C6.0963 44.0183 6.0293 43.3483 6.0293 36.3133C6.0293 31.0203 6.2973 28.2063 7.0343 26.7993C7.5703 25.7273 8.8433 24.3203 9.9153 23.7843C11.3893 22.9803 15.7443 22.8463 33.3653 22.7793H33.2983ZM51.5223 32.1593C52.5943 33.2313 53.1303 33.3653 54.2023 32.8293C54.9393 32.4943 55.5423 31.6233 55.5423 30.9533C55.5423 30.3503 55.2073 29.4123 54.7383 28.9433C54.2693 28.4743 53.3313 28.1393 52.7283 28.1393C52.0583 28.1393 51.2543 28.7423 50.8523 29.4793C50.3163 30.5513 50.4503 31.0873 51.5223 32.1593ZM23.0473 52.5943H43.8173L43.9513 39.5293H22.6453L23.0473 52.5943Z" fill="#CCD5FF"/>
<path opacity="0.7" d="M26.129 5.82844C30.015 5.96244 36.514 5.96244 40.534 5.82844C44.554 5.76144 41.405 5.62744 33.499 5.62744C25.593 5.62744 22.243 5.76144 26.129 5.82844ZM23.114 22.5784C28.675 22.7124 37.854 22.7124 43.549 22.5784C49.244 22.5114 44.755 22.3774 33.499 22.3774C22.243 22.3774 17.553 22.5114 23.114 22.5784ZM5.62695 36.1794C5.62695 39.6634 5.69395 41.0704 5.82795 39.1944C5.96195 37.3854 5.96195 34.5044 5.82795 32.8294C5.69395 31.1544 5.62695 32.6954 5.62695 36.1794ZM61.237 36.1794C61.237 39.6634 61.304 41.0704 61.438 39.1944C61.572 37.3854 61.572 34.5044 61.438 32.8294C61.304 31.1544 61.237 32.6954 61.237 36.1794Z" fill="#CCD5FF"/>
<path opacity="0.8" d="M12.3254 47.3681C13.3974 47.5021 14.9384 47.5021 15.6754 47.3681C16.4794 47.2341 15.6084 47.1001 13.7324 47.1001C11.8564 47.1001 11.2534 47.2341 12.3254 47.3681ZM51.8554 47.3681C52.9274 47.5021 54.4684 47.5021 55.2054 47.3681C56.0094 47.2341 55.1384 47.1001 53.2624 47.1001C51.3864 47.1001 50.7834 47.2341 51.8554 47.3681Z" fill="#CCD5FF"/>
<path opacity="0.5" d="M27.4691 58.7586C30.6181 58.8926 35.8441 58.8926 39.1941 58.7586C42.5441 58.6916 39.9311 58.5576 33.4991 58.5576C27.0671 58.5576 24.3201 58.6916 27.4691 58.7586Z" fill="#CCD5FF"/>
<path opacity="0.9" d="M6.9652 45.5596C7.1662 45.8946 7.5012 46.2296 7.7022 46.2296C7.9032 46.2296 7.9032 45.8946 7.7022 45.5596C7.5012 45.2246 7.1662 44.8896 6.9652 44.8896C6.7642 44.8896 6.7642 45.2246 6.9652 45.5596ZM59.1582 45.6936C58.8009 46.2743 58.8902 46.386 59.4262 46.0286C59.8952 45.7606 60.2972 45.4256 60.2972 45.2246C60.2972 45.0236 60.1632 44.8896 59.9622 44.8896C59.8282 44.8896 59.4262 45.2916 59.1582 45.6936ZM18.3552 56.9496C18.5562 57.2846 18.8912 57.6196 19.0922 57.6196C19.2932 57.6196 19.2932 57.2846 19.0922 56.9496C18.8912 56.6146 18.5562 56.2796 18.3552 56.2796C18.1542 56.2796 18.1542 56.6146 18.3552 56.9496ZM47.7682 57.0836C47.4109 57.6643 47.5002 57.776 48.0362 57.4186C48.5052 57.1506 48.9072 56.8156 48.9072 56.6146C48.9072 56.4136 48.7732 56.2796 48.5722 56.2796C48.4382 56.2796 48.0362 56.6816 47.7682 57.0836Z" fill="#CCD5FF"/>
<path opacity="0.1" d="M17.016 16.0792C17.217 16.4812 17.552 16.7492 17.753 16.7492C17.954 16.7492 17.954 16.4812 17.753 16.0792C17.552 15.6772 17.217 15.4092 17.016 15.4092C16.815 15.4092 16.815 15.6772 17.016 16.0792ZM49.109 16.2132C48.7517 16.7938 48.8633 16.9055 49.444 16.5482C49.846 16.2802 50.248 15.9452 50.248 15.7442C50.248 15.5432 50.114 15.4092 49.913 15.4092C49.779 15.4092 49.377 15.8112 49.109 16.2132Z" fill="#CCD5FF"/>
<path opacity="0.4" d="M7.57182 24.9231C7.21449 25.5038 7.30382 25.6155 7.83982 25.2581C8.30882 24.9901 8.71082 24.6551 8.71082 24.4541C8.71082 24.2531 8.57682 24.1191 8.37582 24.1191C8.24182 24.1191 7.83982 24.5211 7.57182 24.9231ZM58.5588 24.7891C58.7598 25.1241 59.0948 25.4591 59.2958 25.4591C59.4968 25.4591 59.4968 25.1241 59.2958 24.7891C59.0948 24.3871 58.7598 24.1191 58.5588 24.1191C58.3578 24.1191 58.3578 24.4541 58.5588 24.7891Z" fill="#CCD5FF"/>
<path opacity="0.7" d="M52.4598 27.9382C52.7278 28.2062 53.1298 28.2732 53.3978 27.9382C53.5988 27.6702 53.3978 27.4692 52.8618 27.4692C52.3258 27.4692 52.1248 27.6702 52.4598 27.9382ZM43.8168 39.5292C44.0178 39.8642 44.3528 40.1992 44.5538 40.1992C44.7548 40.1992 44.7548 39.8642 44.5538 39.5292C44.3528 39.1272 44.0178 38.8592 43.8168 38.8592C43.6158 38.8592 43.6158 39.1272 43.8168 39.5292Z" fill="#CCD5FF"/>
<path opacity="0.3" d="M54.537 28.8096C54.738 29.1446 55.073 29.4796 55.274 29.4796C55.475 29.4796 55.475 29.1446 55.274 28.8096C55.073 28.4746 54.738 28.1396 54.537 28.1396C54.336 28.1396 54.336 28.4746 54.537 28.8096ZM28.474 39.3286C31.422 39.4626 36.112 39.4626 38.859 39.3286C41.606 39.2616 39.194 39.1276 33.499 39.1276C27.804 39.1276 25.526 39.2616 28.474 39.3286ZM22.377 45.8946C22.377 49.2446 22.444 50.7186 22.578 49.2446C22.712 47.7706 22.712 45.0236 22.578 43.2146C22.444 41.3386 22.377 42.5446 22.377 45.8946ZM44.487 45.8946C44.487 49.2446 44.554 50.7186 44.688 49.2446C44.822 47.7706 44.822 45.0236 44.688 43.2146C44.554 41.3386 44.487 42.5446 44.487 45.8946Z" fill="#CCD5FF"/>
<path opacity="0.8" d="M50.5177 32.8292C50.7187 33.1642 51.0537 33.4992 51.2547 33.4992C51.4557 33.4992 51.4557 33.1642 51.2547 32.8292C51.0537 32.4942 50.7187 32.1592 50.5177 32.1592C50.3167 32.1592 50.3167 32.4942 50.5177 32.8292ZM28.4747 53.3982C31.4227 53.5322 36.1127 53.5322 38.8597 53.3982C41.6067 53.3312 39.1947 53.1972 33.4997 53.1972C27.8047 53.1972 25.5267 53.3312 28.4747 53.3982Z" fill="#CCD5FF"/>
<path opacity="0.5" d="M22.3097 39.6634C21.9523 40.244 22.064 40.3557 22.6447 39.9984C23.0467 39.7304 23.4487 39.3954 23.4487 39.1944C23.4487 38.9934 23.3147 38.8594 23.1137 38.8594C22.9797 38.8594 22.5777 39.2614 22.3097 39.6634Z" fill="#CCD5FF"/>
</svg>
