<svg width="34" height="34" viewBox="0 0 34 34" fill="none" xmlns="http://www.w3.org/2000/svg">
<rect width="34" height="34" rx="17" fill="#CCD5FF"/>
<path d="M14.4836 20.757V19.957C14.4836 19.467 14.5521 19.0346 14.689 18.6598C14.826 18.2778 15.0458 17.9175 15.3485 17.5788C15.6512 17.2328 16.0511 16.8797 16.5484 16.5193C16.9952 16.2022 17.352 15.9176 17.6186 15.6653C17.8925 15.4131 18.0907 15.1645 18.2132 14.9194C18.3429 14.6672 18.4078 14.3825 18.4078 14.0654C18.4078 13.597 18.2348 13.2402 17.8889 12.9952C17.543 12.7502 17.0601 12.6276 16.4403 12.6276C15.8205 12.6276 15.2043 12.7249 14.5918 12.9195C13.9864 13.1141 13.3702 13.3699 12.7432 13.687L11.5649 11.3196C12.2855 10.916 13.0675 10.5917 13.9107 10.3467C14.7539 10.0944 15.6764 9.9683 16.6781 9.9683C18.2204 9.9683 19.4132 10.3394 20.2564 11.0818C21.1068 11.8169 21.532 12.7538 21.532 13.8924C21.532 14.4978 21.4347 15.0239 21.2401 15.4707C21.0527 15.9104 20.7644 16.3212 20.3753 16.7031C19.9933 17.0779 19.5141 17.4743 18.9375 17.8923C18.5051 18.2094 18.1736 18.476 17.943 18.6922C17.7123 18.9084 17.5538 19.1246 17.4673 19.3408C17.388 19.5498 17.3484 19.8057 17.3484 20.1084V20.757H14.4836ZM14.1377 24.4541C14.1377 23.7767 14.3215 23.301 14.689 23.0272C15.0638 22.7533 15.5142 22.6164 16.0403 22.6164C16.552 22.6164 16.9916 22.7533 17.3592 23.0272C17.734 23.301 17.9213 23.7767 17.9213 24.4541C17.9213 25.1027 17.734 25.5712 17.3592 25.8595C16.9916 26.1477 16.552 26.2919 16.0403 26.2919C15.5142 26.2919 15.0638 26.1477 14.689 25.8595C14.3215 25.5712 14.1377 25.1027 14.1377 24.4541Z" fill="#5356FF"/>
</svg>
