<svg width="63" height="46" viewBox="0 0 63 46" fill="none" xmlns="http://www.w3.org/2000/svg">
<path fill-rule="evenodd" clip-rule="evenodd" d="M58.6209 0.134787C60.9305 1.08416 61.9082 2.00225 62.7389 4.74979V28.8898H0.258851V16.9618C0.187851 6.02779 0.329851 4.96279 1.67885 3.11679C2.53085 1.98079 3.87985 0.773787 4.73185 0.489787C5.58385 0.134787 18.0799 -0.0782127 58.6209 0.134787ZM8.42385 23.5648H14.8139V8.29979H8.42385V23.5648ZM21.9139 23.5648H27.9489V8.29979H21.9139V23.5648ZM35.0489 23.9198H41.3679V8.29979H35.0489V23.9198ZM48.1839 23.5648H54.5739L54.8579 8.29979H48.3259L48.1839 23.5648ZM0.258851 32.4398H62.7389V36.3448C62.7389 39.6108 62.4549 40.6048 60.7509 42.3798C59.6859 43.5158 57.9819 44.6518 56.8459 44.8648C54.9289 45.2198 54.9289 45.1488 54.9289 41.6698C54.9289 38.9008 54.6449 38.0488 53.6509 37.6938C52.9409 37.4808 52.0889 37.8358 51.5209 38.6168C51.0239 39.3268 50.6689 41.1018 50.6689 42.5928C50.6689 45.1488 50.5979 45.2198 48.3259 45.0778C46.1249 44.8648 46.0539 44.7228 45.6989 41.3148C45.4149 38.3328 45.1309 37.7648 43.9239 37.7648C42.7169 37.7648 42.5038 38.3328 42.2909 41.5278C42.1488 44.9358 42.0069 45.2198 40.3739 45.2198C39.3799 45.2198 38.0309 44.9358 37.3209 44.5808C36.6819 44.2258 35.9009 42.9478 35.5459 41.7408C35.2619 40.4628 34.3389 39.1848 33.2739 38.6878C31.8539 37.9778 31.1439 37.9778 29.7239 38.6878C28.6589 39.1848 27.7359 40.4628 27.3809 41.7408C27.0969 42.9478 26.3159 44.2258 25.6059 44.5808C24.9669 44.9358 23.6179 45.2198 22.6239 45.2198C20.9909 45.2198 20.8489 44.9358 20.6359 41.5278C20.4939 38.3328 20.2809 37.7648 19.0739 37.7648C17.8669 37.7648 17.5829 38.3328 17.2989 41.3148C16.9439 44.7228 16.8729 44.8648 14.6009 45.0778C12.3999 45.2198 12.3289 45.1488 12.3289 42.5928C12.3289 41.1018 11.9739 39.3268 11.4769 38.6168C10.9089 37.8358 10.0569 37.4808 9.27585 37.6938C8.35285 38.0488 8.06885 38.9008 8.06885 41.6698C8.06885 45.1488 7.99785 45.2198 6.08085 44.8648C5.01585 44.6518 3.31185 43.5158 2.17585 42.3798C0.542851 40.6048 0.258851 39.6108 0.258851 36.3448V32.4398Z" fill="#CCD5FF"/>
</svg>
