<svg width="29" height="40" viewBox="0 0 29 40" fill="none" xmlns="http://www.w3.org/2000/svg">
<path d="M7.67992 0.509415L5.6805 0.509415C4.63561 0.509415 4.02286 0.557123 3.54068 0.708108C3.0814 0.851923 2.7037 1.1017 2.16407 1.59723C1.82948 1.93303 1.49085 2.3564 1.22104 2.77433C0.943468 3.2043 0.768648 3.58263 0.718189 3.83062C0.659863 4.14583 0.634071 4.31661 0.637152 4.42552C0.652491 4.43043 0.672083 4.43585 0.696758 4.44141C0.770754 4.45811 0.874117 4.47257 1.01856 4.48335C1.3102 4.50513 1.71078 4.50824 2.27222 4.50824C3.15657 4.50824 3.80524 4.55122 4.27159 4.69524C4.51486 4.77036 4.72994 4.8789 4.90808 5.03991C5.08846 5.20294 5.20485 5.39618 5.28374 5.60129L5.29281 5.62486L5.29945 5.64923C5.50239 6.39332 5.1483 7.13725 4.52039 7.59391L4.51308 7.59923L4.51303 7.59916C4.19946 7.81866 3.7188 7.97119 3.24403 8.07083C2.75159 8.17419 2.19457 8.23487 1.68145 8.23487C1.26495 8.23487 0.985458 8.23833 0.786013 8.26083C0.668568 8.27408 0.610722 8.29126 0.586107 8.30051C0.581001 8.31891 0.574051 8.35268 0.569265 8.40949C0.556059 8.56633 0.566349 8.79136 0.589403 9.14959C0.624046 9.51815 0.652239 9.74312 0.698101 9.90074C0.737478 10.0361 0.776913 10.076 0.817522 10.1048C0.882357 10.1507 1.01394 10.2076 1.31332 10.2632C1.60674 10.3176 1.99929 10.3611 2.54903 10.4184C3.02867 10.4641 3.4254 10.5111 3.74861 10.5695C4.06789 10.6272 4.34699 10.7013 4.57488 10.8152C4.81567 10.9356 5.01094 11.1067 5.13271 11.3515C5.24694 11.5813 5.27163 11.8279 5.27163 12.052C5.27163 12.2735 5.24791 12.5263 5.12327 12.7581C4.9889 13.0081 4.77475 13.1674 4.52384 13.2702C4.28668 13.3674 3.99537 13.4233 3.66026 13.4625C3.32071 13.5022 2.90098 13.5283 2.38981 13.5511C1.84516 13.5852 1.44343 13.6155 1.141 13.6566C0.829357 13.699 0.676371 13.7468 0.599684 13.7879C0.555269 13.8117 0.549685 13.8222 0.53812 13.8579C0.514168 13.9317 0.500023 14.0603 0.500023 14.3242C0.500023 14.6003 0.540176 14.9397 0.608334 15.2595C0.678148 15.5871 0.767843 15.8492 0.8461 15.99L0.851377 15.9995L0.856236 16.0093C0.908049 16.1129 1.07537 16.2911 1.37708 16.4783C1.66356 16.6562 2.01115 16.8046 2.3413 16.8823L2.35099 16.8845L2.3606 16.8872C3.27475 17.1411 4.23274 17.8045 4.63093 18.6507C4.86794 19.1257 5.02168 19.5489 5.02168 20.0047C5.02168 20.4605 4.86794 20.8837 4.63093 21.3587C4.23549 22.1991 3.28371 22.8666 2.35295 23.0791C2.01629 23.1798 1.66582 23.3405 1.37708 23.5197C1.07461 23.7075 0.905296 23.875 0.850515 23.9663C0.667515 24.3413 0.500023 25.1144 0.500023 25.6852C0.500023 25.9494 0.514227 26.0775 0.537914 26.1502C0.548845 26.1837 0.55246 26.1913 0.5935 26.2126C0.668205 26.2512 0.819733 26.2962 1.13136 26.3324C1.43425 26.3676 1.83711 26.3898 2.38392 26.4126L2.39637 26.4131L2.39636 26.4133C2.90923 26.4475 3.33001 26.4825 3.66996 26.529C4.00463 26.5748 4.29473 26.6358 4.53028 26.7362C4.77898 26.8422 4.99077 27.0027 5.12383 27.2516C5.24776 27.4835 5.27163 27.7355 5.27163 27.9574C5.27163 28.1815 5.24694 28.4281 5.13271 28.6579C5.01094 28.9027 4.81567 29.0738 4.57488 29.1942C4.34699 29.3081 4.06789 29.3822 3.74861 29.4399C3.4254 29.4984 3.02867 29.5453 2.54903 29.591M7.67992 0.509415L2.49944 29.0935M7.67992 0.509415L7.67992 39.5M7.67992 0.509415L7.67992 39.5M2.54903 29.591C2.5483 29.5911 2.54757 29.5912 2.54684 29.5912L2.49944 29.0935M2.54903 29.591C2.54977 29.5909 2.5505 29.5909 2.55124 29.5908L2.49944 29.0935M2.54903 29.591C1.99951 29.6483 1.60632 29.6918 1.31226 29.7457C1.0119 29.8008 0.8785 29.8569 0.812523 29.9025C0.771923 29.9305 0.734781 29.9673 0.696924 30.0935C0.652006 30.2432 0.624023 30.458 0.589407 30.8146M2.49944 29.0935C0.318132 29.3207 0.227242 29.3661 0.09091 30.7749M0.589407 30.8146C0.589582 30.8118 0.58976 30.8089 0.589937 30.8061L0.09091 30.7749M0.589407 30.8146C0.566429 31.1832 0.555952 31.4176 0.56937 31.582C0.574942 31.6503 0.583536 31.6884 0.589344 31.7075M0.589407 30.8146C0.589132 30.8174 0.58886 30.8202 0.588585 30.8231L0.09091 30.7749M0.09091 30.7749L0.589344 31.7075M0.589344 31.7075C0.57975 31.7037 0.575935 31.7014 0.575891 31.7014C0.575857 31.7015 0.578199 31.703 0.581915 31.7065C0.588556 31.7128 0.592415 31.7182 0.59424 31.7211M0.589344 31.7075C0.591423 31.7143 0.59314 31.7187 0.59424 31.7211M0.589344 31.7075C0.612465 31.7166 0.669149 31.7343 0.787508 31.748C0.986032 31.771 1.26463 31.7745 1.68145 31.7745C2.19456 31.7745 2.75159 31.8352 3.24403 31.9386C3.7188 32.0382 4.19946 32.1908 4.51303 32.4103L4.52044 32.4154L4.52039 32.4155C5.13649 32.8636 5.51096 33.6103 5.29598 34.3269L5.29228 34.3392L5.28794 34.3514C5.21167 34.5649 5.0984 34.7677 4.91936 34.9398C4.74134 35.111 4.52449 35.2267 4.27796 35.3065C3.80779 35.4586 3.15498 35.5012 2.27222 35.5012C1.70876 35.5012 1.30673 35.5014 1.01182 35.5194C0.865845 35.5283 0.760895 35.5409 0.685162 35.5561C0.666037 35.5599 0.650084 35.5637 0.636911 35.5672M0.589344 31.7075L4.2263 32.8199C4.72618 33.1834 4.9534 33.7287 4.81707 34.1832C4.58985 34.8194 4.04453 35.0012 2.27222 35.0012C0.0454712 35.0012 2.67029e-05 35.0012 0.227245 36.2282M0.59424 31.7211C0.595047 31.7229 0.595518 31.7237 0.595549 31.7236C0.595579 31.7235 0.595177 31.7226 0.59424 31.7211ZM0.636911 35.5672C0.636845 35.5574 0.636993 35.5482 0.637356 35.5394C0.639074 35.4976 0.645252 35.5035 0.632256 35.5288C0.61545 35.5616 0.590971 35.5808 0.582594 35.5858C0.582474 35.5858 0.596827 35.5778 0.636911 35.5672ZM0.636911 35.5672C0.63763 35.6728 0.663584 35.8384 0.718731 36.1363M0.718731 36.1363C0.718714 36.1362 0.718699 36.1361 0.718681 36.136L0.227245 36.2282M0.718731 36.1363C0.769474 36.4066 0.945473 36.7969 1.22104 37.2237C1.49102 37.6419 1.82901 38.0527 2.15975 38.3628L2.16407 38.3669L2.16404 38.3669C2.70825 38.8893 3.08656 39.1488 3.54505 39.297C4.02471 39.4521 4.63482 39.5 5.6805 39.5H7.67992M0.718731 36.1363C0.718781 36.1366 0.718834 36.1368 0.718885 36.1371L0.227245 36.2282M0.227245 36.2282C0.363577 36.9553 1.09068 38.0459 1.81778 38.7276L7.67992 39.5M25.8282 39.5H10.9521L10.9521 0.509415L18.0867 0.509426L18.0899 0.509405C21.6006 0.486608 23.4879 0.498907 24.6467 0.620304C25.2188 0.680245 25.5869 0.764599 25.8714 0.872904C26.1506 0.979231 26.3732 1.11751 26.6507 1.32013C26.9835 1.57009 27.3319 1.89706 27.6164 2.22373C27.9123 2.56344 28.0967 2.85463 28.1553 3.03049L28.1611 3.04782L28.1614 3.04868C28.1626 3.0546 28.1683 3.07991 28.1761 3.13469C28.1875 3.21494 28.1995 3.32993 28.2118 3.4858C28.2361 3.79663 28.2593 4.24674 28.2805 4.86007C28.3228 6.08543 28.3569 7.94204 28.3796 10.5964C28.4249 15.8907 28.425 24.345 28.3574 37.2632C28.0783 37.9259 27.8206 38.3491 27.4728 38.6693C27.1196 38.9946 26.6327 39.2509 25.8282 39.5ZM13.8604 4.73546H13.3604V5.23546L13.3604 9.3254V9.8254H13.8604L23.6308 9.8254H24.1308V9.3254V5.23546V4.73546H23.6308L13.8604 4.73546ZM13.8604 13.3698H13.3604V13.8698V17.7325V18.2325H13.8604H23.6308H24.1308V17.7325V13.8698V13.3698H23.6308L13.8604 13.3698ZM13.6332 21.7769H13.1332V22.2769V26.3214V26.8214H13.6332H23.6308H24.1308V26.3214L24.1308 22.2769V21.7769H23.6308H13.6332ZM13.865 30.184L13.3604 30.1793V30.684V34.774V35.2647L13.8511 35.2739L23.6215 35.4556L24.1308 35.4651V34.9557V30.7749V30.2795L23.6355 30.2749L13.865 30.184ZM0.592794 8.28182C0.592834 8.2819 0.592396 8.28294 0.591358 8.28469C0.592234 8.28261 0.592754 8.28173 0.592794 8.28182Z" stroke="#007AFF"/>
</svg>
