<svg width="49" height="63" viewBox="0 0 49 63" fill="none" xmlns="http://www.w3.org/2000/svg">
<path fill-rule="evenodd" clip-rule="evenodd" d="M3.84 0.259766H45.091L48.641 3.80977V21.7728C48.712 38.6708 48.641 39.8068 45.801 43.5698H3.201L1.781 41.5818C0.361005 39.7358 0.290005 38.6708 0.432005 3.73877L3.84 0.259766ZM2.98801 47.1908C4.12401 47.6168 13.851 47.7588 25.566 47.6878C36.855 47.5458 46.724 47.2618 47.363 46.9778C48.499 46.4808 48.641 46.9778 48.641 52.7998C48.641 58.6218 48.499 59.3318 45.162 62.7398H3.91101L2.136 60.9648C0.574005 59.4028 0.361005 58.5508 0.219005 53.2968C0.148005 50.0308 0.361004 47.1908 0.574004 46.9778C0.858004 46.6938 1.92301 46.8358 2.98801 47.1908ZM10.302 55.2846C10.302 56.657 9.18946 57.7696 7.81703 57.7696C6.4446 57.7696 5.33203 56.657 5.33203 55.2846C5.33203 53.9121 6.4446 52.7996 7.81703 52.7996C9.18946 52.7996 10.302 53.9121 10.302 55.2846ZM17.0455 57.7696C18.418 57.7696 19.5305 56.657 19.5305 55.2846C19.5305 53.9121 18.418 52.7996 17.0455 52.7996C15.6731 52.7996 14.5605 53.9121 14.5605 55.2846C14.5605 56.657 15.6731 57.7696 17.0455 57.7696ZM28.761 55.2846C28.761 56.657 27.6484 57.7696 26.276 57.7696C24.9036 57.7696 23.791 56.657 23.791 55.2846C23.791 53.9121 24.9036 52.7996 26.276 52.7996C27.6484 52.7996 28.761 53.9121 28.761 55.2846ZM40.4752 57.7696C41.8477 57.7696 42.9602 56.657 42.9602 55.2846C42.9602 53.9121 41.8477 52.7996 40.4752 52.7996C39.1028 52.7996 37.9902 53.9121 37.9902 55.2846C37.9902 56.657 39.1028 57.7696 40.4752 57.7696Z" fill="#CCD5FF"/>
</svg>
