<svg width="34" height="44" viewBox="0 0 34 44" fill="none" xmlns="http://www.w3.org/2000/svg">
<mask id="path-1-inside-1_509_33443" fill="white">
<path fill-rule="evenodd" clip-rule="evenodd" d="M2.54507 0H31.4279L33.9135 2.48561V15.0628C33.9632 26.8943 33.9135 27.6897 31.925 30.3244H2.09766L1.10342 28.9325C0.109175 27.64 0.0594635 26.8943 0.158888 2.4359L2.54507 0ZM0.808206 32.7213C0.808206 32.7213 9.40536 32.9095 17.6079 32.8598C20.9303 32.818 24.1034 32.8201 26.699 32.8218H26.6992C30.2785 32.8242 32.7593 32.8259 33.0186 32.7106C33.814 32.3626 33.9135 32.7106 33.9135 36.787C33.9135 40.8634 33.814 41.3605 31.4776 43.7467H2.59479L1.35198 42.5039C0.258312 41.4103 0.109176 40.8137 0.00975119 37.135C-0.039961 34.8482 0.109175 32.8598 0.258312 32.7106L0.808206 32.7213ZM7.0696 38.5268C7.0696 39.4877 6.29061 40.2667 5.32967 40.2667C4.36874 40.2667 3.58975 39.4877 3.58975 38.5268C3.58975 37.5659 4.36874 36.7869 5.32967 36.7869C6.29061 36.7869 7.0696 37.5659 7.0696 38.5268ZM11.7912 40.2667C12.7522 40.2667 13.5311 39.4877 13.5311 38.5268C13.5311 37.5659 12.7522 36.7869 11.7912 36.7869C10.8303 36.7869 10.0513 37.5659 10.0513 38.5268C10.0513 39.4877 10.8303 40.2667 11.7912 40.2667ZM19.9941 38.5268C19.9941 39.4877 19.2151 40.2667 18.2541 40.2667C17.2932 40.2667 16.5142 39.4877 16.5142 38.5268C16.5142 37.5659 17.2932 36.7869 18.2541 36.7869C19.2151 36.7869 19.9941 37.5659 19.9941 38.5268ZM28.196 40.2667C29.157 40.2667 29.9359 39.4877 29.9359 38.5268C29.9359 37.5659 29.157 36.7869 28.196 36.7869C27.2351 36.7869 26.4561 37.5659 26.4561 38.5268C26.4561 39.4877 27.2351 40.2667 28.196 40.2667Z"/>
</mask>
<path d="M31.4279 0L32.135 -0.707107L31.8421 -1H31.4279V0ZM2.54507 0V-1H2.12481L1.83071 -0.69978L2.54507 0ZM33.9135 2.48561H34.9135V2.0714L34.6206 1.7785L33.9135 2.48561ZM33.9135 15.0628H32.9135L32.9135 15.067L33.9135 15.0628ZM31.925 30.3244V31.3244H32.4231L32.7232 30.9268L31.925 30.3244ZM2.09766 30.3244L1.28393 30.9057L1.58304 31.3244H2.09766V30.3244ZM1.10342 28.9325L1.91715 28.3513L1.90685 28.3368L1.89604 28.3228L1.10342 28.9325ZM0.158888 2.4359L-0.555471 1.73612L-0.839454 2.02602L-0.841104 2.43183L0.158888 2.4359ZM17.6079 32.8598L17.6139 33.8598L17.6204 33.8597L17.6079 32.8598ZM0.808206 32.7213L0.830086 31.7215L0.827647 31.7215L0.808206 32.7213ZM26.699 32.8218L26.6983 33.8218H26.699V32.8218ZM26.6992 32.8218L26.6999 31.8218H26.6992V32.8218ZM33.0186 32.7106L32.6178 31.7944L32.6125 31.7968L33.0186 32.7106ZM31.4776 43.7467V44.7467H31.898L32.1921 44.4463L31.4776 43.7467ZM2.59479 43.7467L1.88768 44.4538L2.18057 44.7467H2.59479V43.7467ZM1.35198 42.5039L2.05909 41.7968H2.05909L1.35198 42.5039ZM0.00975119 37.135L-0.990027 37.1567L-0.989884 37.162L0.00975119 37.135ZM0.258312 32.7106L0.277753 31.7108L-0.147814 31.7025L-0.448793 32.0035L0.258312 32.7106ZM31.4279 -1H2.54507V1H31.4279V-1ZM34.6206 1.7785L32.135 -0.707107L30.7208 0.707107L33.2064 3.19272L34.6206 1.7785ZM34.9135 15.0628V2.48561H32.9135V15.0628H34.9135ZM32.7232 30.9268C33.2292 30.2564 33.6619 29.6392 33.9935 28.9025C34.3287 28.1577 34.5396 27.3394 34.6756 26.2683C34.9408 24.179 34.9382 20.9373 34.9135 15.0586L32.9135 15.067C32.9385 21.0198 32.9359 24.0915 32.6915 26.0165C32.5727 26.9525 32.4015 27.5665 32.1697 28.0817C31.9342 28.6048 31.615 29.0751 31.1268 29.722L32.7232 30.9268ZM2.09766 31.3244H31.925V29.3244H2.09766V31.3244ZM0.289686 29.5137L1.28393 30.9057L2.9114 29.7432L1.91715 28.3513L0.289686 29.5137ZM-0.841104 2.43183C-0.890765 14.6484 -0.903532 20.9767 -0.778307 24.4079C-0.716063 26.1133 -0.618304 27.1739 -0.453099 27.9065C-0.270749 28.7152 -0.00289127 29.1344 0.310795 29.5422L1.89604 28.3228C1.71261 28.0843 1.60141 27.9256 1.49792 27.4666C1.37728 26.9316 1.2824 26.0347 1.22036 24.3349C1.09703 20.9555 1.10912 14.6818 1.15888 2.43996L-0.841104 2.43183ZM1.83071 -0.69978L-0.555471 1.73612L0.873246 3.13568L3.25943 0.69978L1.83071 -0.69978ZM17.6018 31.8598C13.5093 31.8846 9.31626 31.85 6.14496 31.8093C4.55965 31.7889 3.23043 31.7669 2.29772 31.7501C1.83138 31.7417 1.4642 31.7345 1.21373 31.7295C1.0885 31.727 0.992452 31.725 0.927778 31.7236C0.895441 31.723 0.870949 31.7224 0.854575 31.7221C0.846389 31.7219 0.840232 31.7218 0.836139 31.7217C0.834092 31.7216 0.832562 31.7216 0.831551 31.7216C0.831046 31.7216 0.830671 31.7216 0.830427 31.7216C0.830305 31.7216 0.83022 31.7216 0.830158 31.7216C0.830106 31.7216 0.830086 31.7216 0.808206 32.7213C0.786326 33.7211 0.786372 33.7211 0.78645 33.7211C0.78652 33.7211 0.786631 33.7211 0.786771 33.7211C0.78705 33.7211 0.78746 33.7211 0.788 33.7211C0.78908 33.7211 0.790681 33.7212 0.792798 33.7212C0.797032 33.7213 0.803331 33.7214 0.811662 33.7216C0.828322 33.722 0.853106 33.7225 0.885739 33.7232C0.951006 33.7246 1.04767 33.7266 1.17354 33.7291C1.42527 33.7342 1.79382 33.7413 2.26163 33.7498C3.19721 33.7667 4.52994 33.7887 6.11924 33.8091C9.29714 33.85 13.5039 33.8846 17.6139 33.8597L17.6018 31.8598ZM26.6996 31.8218C24.1047 31.8201 20.9253 31.8179 17.5953 31.8598L17.6204 33.8597C20.9354 33.818 24.1022 33.8201 26.6983 33.8218L26.6996 31.8218ZM26.6992 31.8218H26.699V33.8218H26.6992V31.8218ZM32.6125 31.7968C32.7452 31.7378 32.8347 31.7409 32.7099 31.7546C32.6394 31.7624 32.5302 31.7706 32.3759 31.7782C32.0699 31.7933 31.6385 31.8036 31.0915 31.8104C29.9996 31.824 28.4924 31.823 26.6999 31.8218L26.6986 33.8218C28.4853 33.823 30.0082 33.8241 31.1163 33.8103C31.6693 33.8034 32.1305 33.7927 32.4744 33.7757C32.6451 33.7673 32.8002 33.7568 32.929 33.7426C33.0035 33.7344 33.2272 33.7122 33.4248 33.6244L32.6125 31.7968ZM34.9135 36.787C34.9135 35.7677 34.9073 34.9655 34.8848 34.3452C34.863 33.7408 34.8242 33.245 34.74 32.8704C34.6712 32.5642 34.4912 31.9437 33.8582 31.6962C33.5578 31.5787 33.2782 31.6002 33.0886 31.6382C32.904 31.6753 32.7378 31.742 32.6178 31.7945L33.4195 33.6268C33.4984 33.5923 33.5093 33.5937 33.4823 33.5991C33.4504 33.6055 33.309 33.6289 33.1298 33.5588C32.7392 33.4061 32.7332 33.0621 32.7887 33.3089C32.8288 33.4874 32.8646 33.8212 32.8862 34.4176C32.9072 34.9981 32.9135 35.7681 32.9135 36.787H34.9135ZM32.1921 44.4463C33.3523 43.2614 34.1198 42.3952 34.5185 41.2226C34.8999 40.1008 34.9135 38.7713 34.9135 36.787H32.9135C32.9135 38.8792 32.8773 39.8364 32.6249 40.5788C32.3898 41.2704 31.9393 41.8459 30.7631 43.0471L32.1921 44.4463ZM2.59479 44.7467H31.4776V42.7467H2.59479V44.7467ZM0.644873 43.211L1.88768 44.4538L3.30189 43.0396L2.05909 41.7968L0.644873 43.211ZM-0.989884 37.162C-0.940966 38.972 -0.880309 40.1586 -0.662118 41.0314C-0.416577 42.0135 0.0227946 42.5889 0.644874 43.211L2.05909 41.7968C1.5875 41.3252 1.40547 41.0555 1.27817 40.5463C1.12352 39.9277 1.05989 38.9767 1.00939 37.108L-0.989884 37.162ZM-0.448793 32.0035C-0.607682 32.1624 -0.677743 32.3372 -0.698811 32.3902C-0.730753 32.4705 -0.752491 32.5476 -0.767444 32.6075C-0.797854 32.7293 -0.821441 32.8671 -0.840697 33.0041C-0.879916 33.2831 -0.912958 33.6455 -0.938619 34.0593C-0.990207 34.8911 -1.01542 35.988 -0.990013 37.1567L1.00951 37.1133C0.985211 35.9953 1.00971 34.9545 1.05755 34.1831C1.0816 33.7953 1.11069 33.4897 1.13983 33.2825C1.15475 33.1763 1.16689 33.1164 1.17299 33.092C1.17629 33.0788 1.173 33.0956 1.15961 33.1293C1.15708 33.1357 1.10566 33.2775 0.965416 33.4177L-0.448793 32.0035ZM0.827647 31.7215L0.277753 31.7108L0.238871 33.7104L0.788765 33.7211L0.827647 31.7215ZM5.32967 41.2667C6.84289 41.2667 8.0696 40.04 8.0696 38.5268H6.0696C6.0696 38.9355 5.73832 39.2667 5.32967 39.2667V41.2667ZM2.58975 38.5268C2.58975 40.04 3.81645 41.2667 5.32967 41.2667V39.2667C4.92102 39.2667 4.58975 38.9355 4.58975 38.5268H2.58975ZM5.32967 35.7869C3.81645 35.7869 2.58975 37.0136 2.58975 38.5268H4.58975C4.58975 38.1181 4.92102 37.7869 5.32967 37.7869V35.7869ZM8.0696 38.5268C8.0696 37.0136 6.84289 35.7869 5.32967 35.7869V37.7869C5.73832 37.7869 6.0696 38.1181 6.0696 38.5268H8.0696ZM12.5311 38.5268C12.5311 38.9355 12.1999 39.2667 11.7912 39.2667V41.2667C13.3044 41.2667 14.5311 40.04 14.5311 38.5268H12.5311ZM11.7912 37.7869C12.1999 37.7869 12.5311 38.1181 12.5311 38.5268H14.5311C14.5311 37.0136 13.3044 35.7869 11.7912 35.7869V37.7869ZM11.0513 38.5268C11.0513 38.1181 11.3826 37.7869 11.7912 37.7869V35.7869C10.278 35.7869 9.05129 37.0136 9.05129 38.5268H11.0513ZM11.7912 39.2667C11.3826 39.2667 11.0513 38.9355 11.0513 38.5268H9.05129C9.05129 40.04 10.278 41.2667 11.7912 41.2667V39.2667ZM18.2541 41.2667C19.7674 41.2667 20.9941 40.04 20.9941 38.5268H18.9941C18.9941 38.9355 18.6628 39.2667 18.2541 39.2667V41.2667ZM15.5142 38.5268C15.5142 40.04 16.7409 41.2667 18.2541 41.2667V39.2667C17.8455 39.2667 17.5142 38.9355 17.5142 38.5268H15.5142ZM18.2541 35.7869C16.7409 35.7869 15.5142 37.0136 15.5142 38.5268H17.5142C17.5142 38.1181 17.8455 37.7869 18.2541 37.7869V35.7869ZM20.9941 38.5268C20.9941 37.0136 19.7673 35.7869 18.2541 35.7869V37.7869C18.6628 37.7869 18.9941 38.1181 18.9941 38.5268H20.9941ZM28.9359 38.5268C28.9359 38.9355 28.6047 39.2667 28.196 39.2667V41.2667C29.7092 41.2667 30.9359 40.04 30.9359 38.5268H28.9359ZM28.196 37.7869C28.6047 37.7869 28.9359 38.1181 28.9359 38.5268H30.9359C30.9359 37.0136 29.7092 35.7869 28.196 35.7869V37.7869ZM27.4561 38.5268C27.4561 38.1181 27.7874 37.7869 28.196 37.7869V35.7869C26.6828 35.7869 25.4561 37.0136 25.4561 38.5268H27.4561ZM28.196 39.2667C27.7874 39.2667 27.4561 38.9355 27.4561 38.5268H25.4561C25.4561 40.04 26.6828 41.2667 28.196 41.2667V39.2667Z" fill="#FF2D55" mask="url(#path-1-inside-1_509_33443)"/>
</svg>
