<svg width="69" height="69" viewBox="0 0 69 69" fill="none" xmlns="http://www.w3.org/2000/svg">
<path fill-rule="evenodd" clip-rule="evenodd" d="M31.7807 7.2998C56.7367 7.2998 57.6887 7.3678 58.9807 8.6598C60.0687 9.7478 60.3407 10.9038 60.3407 14.7798C60.3407 18.5878 60.5447 19.5398 61.3607 19.5398C61.9047 19.5398 63.1287 20.2878 64.0807 21.2398C65.7127 22.8718 65.7807 23.2798 65.7807 31.7798C65.7807 40.2798 65.7127 40.6878 62.4487 44.0198H34.9767C13.9647 44.0198 7.3687 44.2238 6.7567 44.9038C6.2807 45.3118 5.9407 47.4198 5.9407 49.4598C5.9407 51.5678 6.2807 53.6078 6.7567 54.0838C7.4367 54.6958 12.1967 54.8998 26.5447 54.8998C43.8847 54.8998 45.3807 54.8318 45.6527 53.6758C45.8567 53.0638 47.0807 51.4998 48.3727 50.2758C50.5487 48.3038 51.2287 48.0998 54.9007 48.0998C58.2327 48.0998 59.1167 48.3718 59.7967 49.4598C60.4087 50.4118 61.4287 50.8198 63.1967 50.8198C65.3047 50.8198 65.7807 51.0918 65.7807 52.1798C65.7807 53.3358 65.3047 53.5398 60.3407 53.5398V58.9798H63.0607C65.3047 58.9798 65.7807 59.1838 65.7807 60.3398C65.7807 61.4278 65.3047 61.6998 63.1967 61.6998C61.4287 61.6998 60.4087 62.1078 59.7967 63.0598C59.1167 64.1478 58.2327 64.4198 54.9007 64.4198C51.2287 64.4198 50.5487 64.2158 48.3727 62.1758C47.0807 61.0198 45.8567 59.4558 45.6527 58.7758C45.3807 57.6878 43.8847 57.6198 6.6207 57.6198L4.9207 55.9198C3.4247 54.4238 3.2207 53.6078 3.2207 49.4598C3.2207 45.3118 3.4247 44.4958 6.5527 41.2998H34.0247C55.0367 41.2998 61.6327 41.0958 62.2447 40.4158C62.7887 39.8718 63.0607 36.9931 63.0607 31.7798C63.0607 26.4078 62.7887 23.6878 62.2447 23.0758C61.7687 22.5998 61.1567 22.2598 60.8167 22.2598C60.5447 22.2598 60.3407 24.3678 60.3407 27.0198C60.3407 30.8958 60.0687 32.0518 58.9807 33.1398C57.6887 34.4318 56.7367 34.4998 31.7807 34.4998C6.8247 34.4998 5.8727 34.4318 4.5807 33.1398C3.3567 31.9158 3.2207 30.8958 3.2207 20.8998C3.2207 10.9038 3.3567 9.8838 4.5807 8.6598C5.8727 7.3678 6.8247 7.2998 31.7807 7.2998ZM11.1087 17.5678C10.5647 18.4518 10.0887 19.8798 10.0207 20.7638C10.0207 21.5798 10.4287 23.0758 10.9727 24.1638C11.4487 25.1838 12.6727 26.4078 13.6927 26.8838C14.6447 27.2918 16.0727 27.6998 16.8207 27.6998C17.5687 27.6998 18.9967 27.2918 19.9487 26.8838C20.9687 26.4078 22.1927 25.1838 22.6687 24.1638C23.2127 23.0758 23.6207 21.6478 23.6207 20.8998C23.6207 20.1518 23.2127 18.7238 22.7367 17.7718C22.3287 16.7518 21.1047 15.5278 20.0167 15.0518C18.9967 14.5078 17.5007 14.0998 16.6167 14.0998C15.8007 14.1678 14.4407 14.5758 13.6247 15.0518C12.8767 15.5278 11.7207 16.6838 11.1087 17.5678ZM30.1487 17.5678C29.6047 18.4518 29.1287 19.8798 29.0607 20.6958C29.0607 21.5798 29.4687 23.0758 30.0127 24.0958C30.4887 25.1838 31.7127 26.4078 32.7327 26.8158C33.6847 27.2918 35.1127 27.6998 35.8607 27.6998C36.6087 27.6998 38.0367 27.2918 38.9887 26.8158C40.0087 26.4078 41.2327 25.1838 41.7087 24.0958C42.2527 23.0758 42.6607 21.6478 42.6607 20.8998C42.6607 20.1518 42.2527 18.7238 41.7767 17.7718C41.3687 16.7518 40.1447 15.5278 39.0567 15.0518C38.0367 14.5078 36.5407 14.0998 35.6567 14.0998C34.8407 14.1678 33.4807 14.5758 32.6647 15.0518C31.9167 15.5278 30.7607 16.6838 30.1487 17.5678ZM48.1007 19.5398H53.5407V14.0998H48.1007V19.5398ZM48.1007 27.6998H53.5407V22.2598H48.1007V27.6998ZM16.8207 16.8198C17.2287 16.8198 17.7047 17.2278 17.9087 17.6358C18.1127 18.1118 17.9767 18.7918 17.5687 19.1998C17.07 19.6531 16.5714 19.6531 16.0727 19.1998C15.6647 18.7918 15.5287 18.1118 15.7327 17.6358C16.0047 17.2278 16.4807 16.8198 16.8207 16.8198ZM35.8607 16.8198C36.2687 16.8198 36.7447 17.2278 36.9487 17.6358C37.1527 18.1118 37.0167 18.7918 36.6087 19.1998C36.11 19.6531 35.6114 19.6531 35.1127 19.1998C34.7047 18.7918 34.5687 18.1118 34.7727 17.6358C35.0447 17.2278 35.5207 16.8198 35.8607 16.8198ZM16.8207 22.2598C17.2287 22.2598 17.7047 22.6678 17.9087 23.0758C18.1127 23.5518 17.9767 24.2998 17.5687 24.6398C17.07 25.0931 16.5714 25.0931 16.0727 24.6398C15.6647 24.2998 15.5287 23.5518 15.7327 23.0758C16.0047 22.6678 16.4807 22.2598 16.8207 22.2598ZM35.8607 22.2598C36.2687 22.2598 36.7447 22.6678 36.9487 23.0758C37.1527 23.5518 37.0167 24.2998 36.6087 24.6398C36.11 25.0931 35.6114 25.0931 35.1127 24.6398C34.7047 24.2998 34.5687 23.5518 34.7727 23.0758C35.0447 22.6678 35.5207 22.2598 35.8607 22.2598Z" fill="#CCD5FF"/>
</svg>
