<svg width="59" height="59" viewBox="0 0 59 59" fill="none" xmlns="http://www.w3.org/2000/svg">
<path fill-rule="evenodd" clip-rule="evenodd" d="M9.62487 8.24534C9.22057 7.84104 7.60335 7.55225 5.98613 7.55225C4.42667 7.55225 2.75169 7.78328 2.34739 8.01431C1.94308 8.24534 1.65429 9.05395 1.76981 9.86256C1.94308 11.0755 2.28963 11.3065 4.13788 11.4798L6.27492 11.5953C6.21716 47.8672 6.33267 50.1198 7.14128 50.8706C7.89214 51.5059 8.3542 51.5637 9.04729 51.1016C9.79814 50.6396 10.0869 49.4267 10.2024 46.5965L10.318 42.7845H52.4812C54.7337 39.7233 54.8492 38.7415 54.8492 28.6338C54.8492 18.0064 54.7915 17.6021 53.5208 16.3892C52.1924 15.0608 52.1346 15.0608 31.2841 15.0608H31.284H10.318C10.318 10.3246 10.0292 8.64964 9.62487 8.24534ZM19.3358 26.6123H23.0239C23.9809 26.6123 24.7566 25.8365 24.7566 24.8796C24.7566 23.9226 23.9809 23.1469 23.0239 23.1469H14.9378C13.9809 23.1469 13.2051 23.9226 13.2051 24.8796C13.2051 25.8365 13.9808 26.6123 14.9378 26.6123H19.2513L19.2704 26.6123L19.3358 26.6123ZM23.0239 30.6554H19.3047L19.2704 30.6554L19.24 30.6554H14.9378C13.9809 30.6554 13.2051 31.4312 13.2051 32.3881C13.2051 33.3451 13.9808 34.1209 14.9378 34.1209H23.0239C23.9809 34.1209 24.7566 33.3451 24.7566 32.3881C24.7566 31.4312 23.9809 30.6554 23.0239 30.6554ZM44.9726 45.0948H18.4041V47.0008C18.4041 47.9827 18.6928 49.1956 19.0972 49.5999C19.6747 50.1198 22.8514 50.293 31.5728 50.293C37.984 50.293 43.6442 50.1775 44.1063 50.0042C44.6839 49.8117 44.9726 48.9453 44.9726 47.4051V45.0948ZM39.7755 37.0087C44.2414 37.0087 47.8616 33.3885 47.8616 28.9226C47.8616 24.4568 44.2414 20.8365 39.7755 20.8365C35.3097 20.8365 31.6895 24.4568 31.6895 28.9226C31.6895 33.3885 35.3097 37.0087 39.7755 37.0087Z" fill="#CCD5FF"/>
</svg>
