<svg width="54" height="44" viewBox="0 0 54 44" fill="none" xmlns="http://www.w3.org/2000/svg">
<mask id="path-1-inside-1_509_33496" fill="white">
<path fill-rule="evenodd" clip-rule="evenodd" d="M7.88073 0.693094C7.47643 0.288789 5.85921 0 4.24199 0C2.68253 0 1.00755 0.231031 0.603245 0.462063C0.198941 0.693094 -0.0898484 1.5017 0.0256672 2.31031C0.198941 3.52323 0.545488 3.75426 2.39374 3.92753L4.53078 4.04305C4.47302 40.315 4.58853 42.5675 5.39714 43.3184C6.148 43.9537 6.61006 44.0115 7.30315 43.5494C8.054 43.0873 8.34279 41.8744 8.45831 39.0443L8.57382 35.2323H50.737C52.9896 32.1711 53.1051 31.1892 53.1051 21.0816C53.1051 10.4542 53.0473 10.0499 51.7767 8.83694C50.4482 7.50852 50.3905 7.50852 29.5399 7.50852H29.5399H8.57382C8.57382 2.77238 8.28503 1.0974 7.88073 0.693094ZM17.5917 19.0601H21.2798C22.2367 19.0601 23.0125 18.2843 23.0125 17.3273C23.0125 16.3704 22.2367 15.5946 21.2798 15.5946H13.1937C12.2367 15.5946 11.4609 16.3704 11.4609 17.3273C11.4609 18.2843 12.2367 19.0601 13.1937 19.0601H17.5072L17.5263 19.0601L17.5917 19.0601ZM21.2798 23.1031H17.5605L17.5263 23.1031L17.4958 23.1031H13.1937C12.2367 23.1031 11.4609 23.8789 11.4609 24.8359C11.4609 25.7928 12.2367 26.5686 13.1937 26.5686H21.2798C22.2367 26.5686 23.0125 25.7928 23.0125 24.8359C23.0125 23.8789 22.2367 23.1031 21.2798 23.1031ZM43.2285 37.5426H16.6599V39.4486C16.6599 40.4305 16.9487 41.6434 17.353 42.0477C17.9306 42.5675 21.1073 42.7408 29.8287 42.7408C36.2398 42.7408 41.9001 42.6253 42.3621 42.452C42.9397 42.2595 43.2285 41.3931 43.2285 39.8529V37.5426ZM38.0314 29.4565C42.4972 29.4565 46.1175 25.8362 46.1175 21.3704C46.1175 16.9046 42.4972 13.2843 38.0314 13.2843C33.5656 13.2843 29.9453 16.9046 29.9453 21.3704C29.9453 25.8362 33.5656 29.4565 38.0314 29.4565Z"/>
</mask>
<path d="M7.88073 0.693094L8.58784 -0.0140126L8.58784 -0.0140134L7.88073 0.693094ZM0.603245 0.462063L0.107106 -0.406181L0.107106 -0.406181L0.603245 0.462063ZM0.0256672 2.31031L-0.964282 2.45173L0.0256672 2.31031ZM2.39374 3.92753L2.3004 4.92316L2.32005 4.92501L2.33976 4.92607L2.39374 3.92753ZM4.53078 4.04305L5.53078 4.04464L5.53229 3.09572L4.58475 3.0445L4.53078 4.04305ZM5.39714 43.3184L4.71669 44.0512L4.73359 44.0668L4.7512 44.0817L5.39714 43.3184ZM7.30315 43.5494L6.77905 42.6977L6.76357 42.7073L6.74845 42.7173L7.30315 43.5494ZM8.45831 39.0443L9.45753 39.0851L9.45785 39.0746L8.45831 39.0443ZM8.57382 35.2323V34.2323H7.60367L7.57428 35.202L8.57382 35.2323ZM50.737 35.2323V36.2323H51.2427L51.5425 35.8249L50.737 35.2323ZM51.7767 8.83694L51.0696 9.54405L51.0778 9.55227L51.0862 9.5603L51.7767 8.83694ZM8.57382 7.50852H7.57382V8.50852H8.57382V7.50852ZM17.5917 19.0601V18.0601H17.5916L17.5917 19.0601ZM17.5072 19.0601L17.5074 18.0601H17.5072V19.0601ZM17.5263 19.0601L17.5261 20.0601H17.5263L17.5263 19.0601ZM17.5605 23.1031L17.5598 24.1031H17.5605V23.1031ZM17.5263 23.1031L17.527 22.1031H17.5255L17.5263 23.1031ZM17.4958 23.1031V24.1031H17.4966L17.4958 23.1031ZM16.6599 37.5426V36.5426H15.6599V37.5426H16.6599ZM43.2285 37.5426H44.2285V36.5426H43.2285V37.5426ZM17.353 42.0477L16.6459 42.7548L16.6645 42.7734L16.684 42.791L17.353 42.0477ZM42.3621 42.452L42.0459 41.5033L42.0284 41.5092L42.011 41.5157L42.3621 42.452ZM4.24199 1C4.99715 1 5.74365 1.06791 6.33257 1.17793C6.62801 1.23312 6.86327 1.29514 7.03108 1.3554C7.22824 1.42619 7.23314 1.45972 7.17362 1.4002L8.58784 -0.0140134C8.32617 -0.275684 7.9773 -0.429868 7.70698 -0.526933C7.40732 -0.634533 7.06139 -0.720519 6.69984 -0.788062C5.97476 -0.923516 5.10404 -1 4.24199 -1V1ZM1.09938 1.33031C1.06059 1.35247 1.11293 1.3202 1.34469 1.26753C1.54356 1.22233 1.80708 1.17665 2.11877 1.136C2.74156 1.05476 3.50695 1 4.24199 1V-1C3.41756 -1 2.56574 -0.939246 1.86009 -0.847206C1.50757 -0.801225 1.17907 -0.745831 0.901444 -0.682734C0.656703 -0.627111 0.348049 -0.543862 0.107106 -0.406181L1.09938 1.33031ZM1.01562 2.16889C0.979867 1.91864 1.0086 1.6687 1.07025 1.47962C1.10061 1.38651 1.13298 1.32657 1.15346 1.29641C1.17681 1.26203 1.16658 1.29191 1.09938 1.33031L0.107106 -0.406181C-0.406149 -0.112892 -0.688705 0.422571 -0.831206 0.859575C-0.98614 1.3347 -1.04405 1.89337 -0.964282 2.45173L1.01562 2.16889ZM2.48708 2.9319C2.03401 2.88942 1.71601 2.84692 1.4834 2.7957C1.24945 2.74419 1.16592 2.69686 1.14438 2.68219C1.13745 2.67747 1.13893 2.67758 1.14156 2.68084C1.14341 2.68313 1.13657 2.67576 1.12425 2.64774C1.094 2.57896 1.05503 2.44476 1.01562 2.16889L-0.964282 2.45173C-0.872063 3.09727 -0.696801 3.84817 0.0187955 4.33539C0.336577 4.55175 0.697061 4.67047 1.05333 4.74891C1.41093 4.82765 1.82934 4.879 2.3004 4.92316L2.48708 2.9319ZM4.58475 3.0445L2.44771 2.92899L2.33976 4.92607L4.4768 5.04159L4.58475 3.0445ZM6.07759 42.5856C6.07355 42.5818 6.07743 42.5853 6.08067 42.59C6.08264 42.5929 6.07293 42.5799 6.05587 42.5366C6.01728 42.4385 5.96012 42.2361 5.90287 41.827C5.78822 41.0077 5.70022 39.5756 5.63879 36.9775C5.51643 31.8022 5.50189 22.1865 5.53078 4.04464L3.53078 4.04145C3.50191 22.1715 3.51624 31.818 3.63935 37.0247C3.70066 39.6175 3.78954 41.1564 3.92217 42.1042C4.05393 43.0457 4.25287 43.6205 4.71669 44.0512L6.07759 42.5856ZM6.74845 42.7173C6.49409 42.8869 6.44963 42.8475 6.49286 42.8528C6.49542 42.8531 6.37885 42.8391 6.04309 42.555L4.7512 44.0817C5.16629 44.433 5.65618 44.7655 6.25075 44.838C6.886 44.9155 7.41911 44.6739 7.85785 44.3814L6.74845 42.7173ZM7.45914 39.0035C7.40171 40.4106 7.30277 41.3327 7.14942 41.94C6.99733 42.5423 6.83424 42.6638 6.77905 42.6977L7.82725 44.4011C8.52291 43.9729 8.87964 43.257 9.08854 42.4297C9.29617 41.6075 9.39939 40.5081 9.45748 39.0851L7.45914 39.0035ZM7.57428 35.202L7.45877 39.014L9.45785 39.0746L9.57337 35.2626L7.57428 35.202ZM50.737 34.2323H8.57382V36.2323H50.737V34.2323ZM52.1051 21.0816C52.1051 26.1726 52.073 28.846 51.779 30.6374C51.5041 32.3123 51.0092 33.1751 49.9316 34.6396L51.5425 35.8249C52.7174 34.2283 53.4066 33.0695 53.7526 30.9613C54.0795 28.9695 54.1051 26.0982 54.1051 21.0816H52.1051ZM51.0862 9.5603C51.3898 9.85009 51.5211 10.0015 51.6229 10.2085C51.7323 10.4311 51.8419 10.7944 51.9233 11.5378C52.089 13.0497 52.1051 15.7352 52.1051 21.0816H54.1051C54.1051 15.8005 54.0923 12.9702 53.9114 11.3199C53.8196 10.4822 53.6765 9.85273 53.4177 9.32624C53.1513 8.78425 52.7989 8.43026 52.4671 8.11359L51.0862 9.5603ZM29.5399 8.50852C39.9873 8.50852 45.1713 8.50904 47.9196 8.6728C49.305 8.75535 49.9628 8.87555 50.3346 9.00965C50.6317 9.11679 50.753 9.22753 51.0696 9.54405L52.4838 8.12984C52.1361 7.78215 51.752 7.39472 51.0131 7.12825C50.3489 6.88872 49.44 6.75985 48.0386 6.67634C45.2132 6.50799 39.9431 6.50852 29.5399 6.50852V8.50852ZM29.5399 8.50852H29.5399V6.50852H29.5399V8.50852ZM8.57382 8.50852H29.5399V6.50852H8.57382V8.50852ZM7.17362 1.4002C7.09474 1.32132 7.13044 1.30534 7.19956 1.54243C7.26141 1.75459 7.32733 2.08817 7.38551 2.59125C7.50158 3.59488 7.57382 5.15221 7.57382 7.50852H9.57382C9.57382 5.12868 9.50167 3.48045 9.37227 2.36149C9.30771 1.80326 9.22563 1.34629 9.11963 0.982665C9.02089 0.643989 8.86887 0.267022 8.58784 -0.0140126L7.17362 1.4002ZM21.2798 18.0601H17.5917V20.0601H21.2798V18.0601ZM22.0125 17.3273C22.0125 17.732 21.6844 18.0601 21.2798 18.0601V20.0601C22.789 20.0601 24.0125 18.8366 24.0125 17.3273H22.0125ZM21.2798 16.5946C21.6844 16.5946 22.0125 16.9227 22.0125 17.3273H24.0125C24.0125 15.8181 22.789 14.5946 21.2798 14.5946V16.5946ZM13.1937 16.5946H21.2798V14.5946H13.1937V16.5946ZM12.4609 17.3273C12.4609 16.9227 12.789 16.5946 13.1937 16.5946V14.5946C11.6844 14.5946 10.4609 15.8181 10.4609 17.3273H12.4609ZM13.1937 18.0601C12.789 18.0601 12.4609 17.732 12.4609 17.3273H10.4609C10.4609 18.8366 11.6844 20.0601 13.1937 20.0601V18.0601ZM17.5072 18.0601H13.1937V20.0601H17.5072V18.0601ZM17.5265 18.0601L17.5074 18.0601L17.507 20.0601L17.5261 20.0601L17.5265 18.0601ZM17.5916 18.0601L17.5262 18.0601L17.5263 20.0601L17.5918 20.0601L17.5916 18.0601ZM17.5605 24.1031H21.2798V22.1031H17.5605V24.1031ZM17.5256 24.1031L17.5598 24.1031L17.5612 22.1031L17.527 22.1031L17.5256 24.1031ZM17.4966 24.1031L17.5271 24.1031L17.5255 22.1031L17.495 22.1031L17.4966 24.1031ZM13.1937 24.1031H17.4958V22.1031H13.1937V24.1031ZM12.4609 24.8359C12.4609 24.4312 12.789 24.1031 13.1937 24.1031V22.1031C11.6844 22.1031 10.4609 23.3266 10.4609 24.8359H12.4609ZM13.1937 25.5686C12.789 25.5686 12.4609 25.2406 12.4609 24.8359H10.4609C10.4609 26.3451 11.6844 27.5686 13.1937 27.5686V25.5686ZM21.2798 25.5686H13.1937V27.5686H21.2798V25.5686ZM22.0125 24.8359C22.0125 25.2406 21.6844 25.5686 21.2798 25.5686V27.5686C22.789 27.5686 24.0125 26.3451 24.0125 24.8359H22.0125ZM21.2798 24.1031C21.6844 24.1031 22.0125 24.4312 22.0125 24.8359H24.0125C24.0125 23.3266 22.789 22.1031 21.2798 22.1031V24.1031ZM16.6599 38.5426H43.2285V36.5426H16.6599V38.5426ZM17.6599 39.4486V37.5426H15.6599V39.4486H17.6599ZM18.0601 41.3406C18.0797 41.3601 18.0456 41.3305 17.9856 41.1976C17.9309 41.0766 17.8742 40.9132 17.8232 40.7153C17.7206 40.3168 17.6599 39.8519 17.6599 39.4486H15.6599C15.6599 40.0271 15.7436 40.6596 15.8865 41.2142C16.0156 41.7154 16.2409 42.3498 16.6459 42.7548L18.0601 41.3406ZM29.8287 41.7408C25.4674 41.7408 22.518 41.6973 20.5922 41.5907C19.6265 41.5372 18.9482 41.4694 18.4904 41.39C18.2615 41.3503 18.1121 41.3118 18.021 41.2806C17.9169 41.245 17.9495 41.2392 18.022 41.3044L16.684 42.791C16.9009 42.9862 17.1591 43.0995 17.3733 43.1728C17.6006 43.2506 17.8623 43.3109 18.1487 43.3606C18.7215 43.4599 19.4908 43.5328 20.4816 43.5876C22.4689 43.6976 25.4686 43.7408 29.8287 43.7408V41.7408ZM42.011 41.5157C42.0887 41.4865 42.1308 41.4852 42.0659 41.4951C42.0238 41.5014 41.9571 41.5095 41.861 41.5185C41.67 41.5363 41.402 41.5542 41.0599 41.5715C40.3779 41.606 39.4375 41.6364 38.3041 41.6616C36.0394 41.7119 33.0293 41.7408 29.8287 41.7408V43.7408C33.0392 43.7408 36.0648 43.7119 38.3485 43.6611C39.4894 43.6358 40.4514 43.6048 41.1609 43.5689C41.5146 43.551 41.8148 43.5315 42.0468 43.5098C42.1622 43.4991 42.2707 43.4869 42.3655 43.4725C42.4374 43.4616 42.5778 43.4391 42.7133 43.3883L42.011 41.5157ZM42.2285 39.8529C42.2285 40.5786 42.1582 41.0567 42.0632 41.3416C41.9668 41.6309 41.9094 41.5488 42.0459 41.5033L42.6784 43.4007C43.3924 43.1627 43.7683 42.5511 43.9606 41.9741C44.1544 41.3926 44.2285 40.6674 44.2285 39.8529H42.2285ZM42.2285 37.5426V39.8529H44.2285V37.5426H42.2285ZM45.1175 21.3704C45.1175 25.2839 41.945 28.4565 38.0314 28.4565V30.4565C43.0495 30.4565 47.1175 26.3885 47.1175 21.3704H45.1175ZM38.0314 14.2843C41.945 14.2843 45.1175 17.4569 45.1175 21.3704H47.1175C47.1175 16.3523 43.0495 12.2843 38.0314 12.2843V14.2843ZM30.9453 21.3704C30.9453 17.4569 34.1179 14.2843 38.0314 14.2843V12.2843C33.0133 12.2843 28.9453 16.3523 28.9453 21.3704H30.9453ZM38.0314 28.4565C34.1179 28.4565 30.9453 25.2839 30.9453 21.3704H28.9453C28.9453 26.3885 33.0133 30.4565 38.0314 30.4565V28.4565Z" fill="#32ADE6" mask="url(#path-1-inside-1_509_33496)"/>
</svg>
