<svg width="18" height="16" viewBox="0 0 18 16" fill="none" xmlns="http://www.w3.org/2000/svg">
<path d="M9 5.88252V8.75501M9 11.6275H9.00766M7.69066 2.19137L1.20522 12.3456C1.07151 12.5628 1.00075 12.809 1.00001 13.0598C0.999257 13.3106 1.06854 13.5572 1.20095 13.7751C1.33337 13.9929 1.52431 14.1745 1.75477 14.3017C1.98523 14.4289 2.24718 14.4972 2.51456 14.5H15.4854C15.7528 14.4972 16.0148 14.4289 16.2452 14.3017C16.4757 14.1745 16.6666 13.9929 16.799 13.7751C16.9315 13.5572 17.0007 13.3106 17 13.0598C16.9992 12.809 16.9285 12.5628 16.7948 12.3456L10.3093 2.19137C10.1728 1.98032 9.98064 1.80582 9.7513 1.68472C9.52195 1.56362 9.2632 1.5 9 1.5C8.7368 1.5 8.47805 1.56362 8.2487 1.68472C8.01936 1.80582 7.82716 1.98032 7.69066 2.19137Z" stroke="#5356FF" stroke-width="1.80858" stroke-linecap="round" stroke-linejoin="round"/>
</svg>
