<svg width="45" height="54" viewBox="0 0 45 54" fill="none" xmlns="http://www.w3.org/2000/svg">
<path fill-rule="evenodd" clip-rule="evenodd" d="M24.6593 1.08391C26.4593 1.22791 29.9153 2.37991 32.4353 3.53191C35.5313 4.97191 37.6913 6.62791 39.6353 9.07591C41.1473 10.9479 42.8033 13.7559 43.3793 15.3399C43.9553 16.9239 44.3873 20.5239 44.3873 23.2599C44.3873 27.0759 43.9553 29.2359 42.6593 32.1879C41.5793 34.5639 39.3473 37.4439 37.0433 39.6039C34.4513 41.9799 32.1473 43.4199 29.4833 44.1399C27.4673 44.7159 24.0833 45.2199 22.1393 45.2199C20.1233 45.2199 17.0993 44.7879 15.2993 44.2119C13.4993 43.5639 10.3313 41.5479 8.17133 39.6759C6.08333 37.8039 3.49133 34.6359 2.48333 32.6199C0.971328 29.7399 0.611328 27.9399 0.611328 23.6199C0.611328 20.6679 1.04333 16.9239 1.61933 15.3399C2.19533 13.7559 3.77933 11.0199 5.21933 9.21991C6.65933 7.41991 9.46733 5.11591 11.4113 4.03591C13.3553 2.95591 16.3793 1.73191 18.1793 1.37191C19.9793 1.01191 22.8593 0.867909 24.6593 1.08391ZM13.0673 17.8599C12.2753 19.2279 11.6993 21.6759 11.6993 23.2599C11.6993 25.0599 12.2753 27.0759 13.2833 28.5879C14.2193 29.9559 15.7313 31.6839 16.7393 32.4039C18.0353 33.4119 19.6913 33.7719 22.4993 33.7719C25.3073 33.7719 26.9633 33.4119 28.2593 32.4039C29.2673 31.6839 30.7793 29.9559 31.7153 28.5879C32.7233 27.0759 33.2993 25.0599 33.2993 23.2599C33.2993 21.6759 32.7233 19.2279 31.9313 17.8599C31.2113 16.4919 29.3393 14.6199 27.8273 13.7559C26.3153 12.8199 23.8673 12.0999 22.4993 12.0999C21.1313 12.0999 18.6833 12.8199 17.1713 13.7559C15.6593 14.6199 13.7873 16.4919 13.0673 17.8599ZM5.43533 42.9879L7.66733 44.4999C8.89133 45.3639 11.0513 46.5159 12.4193 47.1639C13.7873 47.7399 16.7393 48.5319 18.8993 48.8919C21.0593 49.1799 24.5153 49.1799 26.4593 48.8919C28.4753 48.5319 31.2113 47.7399 32.5793 47.1639C33.9473 46.5159 36.1073 45.3639 39.4913 42.9879L41.0753 45.3639C41.9393 46.6599 42.5873 48.3879 42.5873 49.1799C42.5873 49.9719 42.0833 51.1959 41.3633 51.9159C40.2833 53.0679 38.4833 53.2119 22.4993 53.1399C6.80333 53.1399 4.71533 52.9959 3.56333 51.8439C2.84333 51.1959 2.26733 50.0439 2.19533 49.2519C2.12333 48.5319 2.84333 46.8039 3.77933 45.4359L5.43533 42.9879Z" fill="#CCD5FF"/>
</svg>
