<svg width="65" height="65" viewBox="0 0 65 65" fill="none" xmlns="http://www.w3.org/2000/svg">
<path d="M53.885 6.825C53.755 6.955 49.075 7.735 43.55 8.45C38.025 9.23 32.825 9.945 31.98 10.075C30.55 10.4 30.55 10.53 30.55 20.475V30.55H58.5V6.5C55.12 6.5 54.015 6.63 53.885 6.825ZM14.625 12.415C10.335 13.065 6.76 13.585 6.63 13.585C6.565 13.65 6.5 17.42 6.5 22.1V30.55H26V11.05C23.205 11.18 18.915 11.765 14.625 12.415ZM6.5 42.9C6.5 51.155 6.565 51.35 7.93 51.61C8.775 51.805 12.805 52.39 16.9 52.975C20.995 53.495 24.765 53.95 25.155 53.95C25.805 53.95 26 51.545 26 44.2V34.45H6.5V42.9ZM30.55 44.525C30.55 54.47 30.55 54.6 31.98 54.925C32.825 55.055 38.025 55.835 43.55 56.615C49.075 57.395 54.73 58.11 56.03 58.24L58.5 58.5V34.45H30.55V44.525Z" fill="#CCD5FF"/>
</svg>
