<svg width="83" height="65" viewBox="0 0 83 65" fill="none" xmlns="http://www.w3.org/2000/svg">
<g clip-path="url(#clip0_509_13070)">
<path d="M76.4055 27.8252V29.2222C76.4037 32.4968 75.3433 35.683 73.3827 38.3057C71.422 40.9284 68.6661 42.8471 65.5259 43.7755C62.3857 44.704 59.0295 44.5925 55.9579 43.4577C52.8862 42.3229 50.2637 40.2255 48.4814 37.4785C46.6992 34.7314 45.8526 31.4818 46.0681 28.2144C46.2835 24.9469 47.5494 21.8366 49.677 19.3474C51.8045 16.8581 54.6798 15.1233 57.8738 14.4017C61.0679 13.68 64.4096 14.0102 67.4007 15.3429" stroke="#CCD5FF" stroke-width="3.03704" stroke-linecap="round" stroke-linejoin="round"/>
<path d="M76.4068 17.0742L61.2216 32.2746L56.666 27.719" stroke="#CCD5FF" stroke-width="7.59259" stroke-linecap="round" stroke-linejoin="round"/>
<g clip-path="url(#clip1_509_13070)">
<path d="M76.4055 27.8252V29.2222C76.4037 32.4968 75.3433 35.683 73.3827 38.3057C71.422 40.9284 68.6661 42.8471 65.5259 43.7755C62.3857 44.704 59.0295 44.5925 55.9579 43.4577C52.8862 42.3229 50.2637 40.2255 48.4814 37.4785C46.6992 34.7314 45.8526 31.4818 46.0681 28.2144C46.2835 24.9469 47.5494 21.8366 49.677 19.3474C51.8045 16.8581 54.6798 15.1233 57.8738 14.4017C61.0679 13.68 64.4096 14.0102 67.4007 15.3429" stroke="white" stroke-width="3.03704" stroke-linecap="round" stroke-linejoin="round"/>
</g>
<path d="M47.0062 5.78125C46.8937 5.89375 42.8438 6.56875 38.0625 7.1875C33.2812 7.8625 28.7812 8.48125 28.05 8.59375C26.8125 8.875 26.8125 8.9875 26.8125 17.5938V26.3125H51V5.5C48.075 5.5 47.1188 5.6125 47.0062 5.78125ZM13.0312 10.6188C9.31875 11.1813 6.225 11.6312 6.1125 11.6312C6.05625 11.6875 6 14.95 6 19V26.3125H22.875V9.4375C20.4563 9.55 16.7438 10.0563 13.0312 10.6188ZM6 37C6 44.1437 6.05625 44.3125 7.2375 44.5375C7.96875 44.7063 11.4563 45.2125 15 45.7188C18.5437 46.1688 21.8063 46.5625 22.1438 46.5625C22.7063 46.5625 22.875 44.4812 22.875 38.125V29.6875H6V37ZM26.8125 38.4062C26.8125 47.0125 26.8125 47.125 28.05 47.4062C28.7812 47.5187 33.2812 48.1937 38.0625 48.8687C42.8438 49.5438 47.7375 50.1625 48.8625 50.275L51 50.5V29.6875H26.8125V38.4062Z" fill="#CCD5FF"/>
</g>
<defs>
<clipPath id="clip0_509_13070">
<rect width="82" height="65" fill="white" transform="translate(0.5)"/>
</clipPath>
<clipPath id="clip1_509_13070">
<rect width="7" height="36" fill="white" transform="translate(43 11)"/>
</clipPath>
</defs>
</svg>
