<svg width="23" height="21" viewBox="0 0 23 21" fill="none" xmlns="http://www.w3.org/2000/svg">
<path d="M11.0156 5.5C11.0156 4.43913 10.5942 3.42172 9.84405 2.67157C9.09391 1.92143 8.07649 1.5 7.01562 1.5H1.01562V16.5H8.01562C8.81127 16.5 9.57434 16.8161 10.1369 17.3787C10.6996 17.9413 11.0156 18.7044 11.0156 19.5M11.0156 5.5V19.5M11.0156 5.5C11.0156 4.43913 11.4371 3.42172 12.1872 2.67157C12.9373 1.92143 13.9548 1.5 15.0156 1.5H21.0156V16.5H14.0156C13.22 16.5 12.4569 16.8161 11.8943 17.3787C11.3317 17.9413 11.0156 18.7044 11.0156 19.5" stroke="#424344" stroke-width="2" stroke-linecap="round" stroke-linejoin="round"/>
</svg>
