<svg width="40" height="40" viewBox="0 0 40 40" fill="none" xmlns="http://www.w3.org/2000/svg">
<path d="M15.2551 9.01437C17.3662 5.22728 18.4218 3.33374 19.9999 3.33374C21.578 3.33374 22.6335 5.22728 24.7446 9.01436L25.2907 9.99413C25.8907 11.0703 26.1906 11.6084 26.6583 11.9634C27.126 12.3185 27.7084 12.4502 28.8734 12.7138L29.934 12.9538C34.0334 13.8813 36.0832 14.3451 36.5708 15.9133C37.0585 17.4815 35.6611 19.1155 32.8664 22.3836L32.1433 23.2291C31.3491 24.1578 30.9521 24.6221 30.7734 25.1966C30.5948 25.7711 30.6548 26.3906 30.7749 27.6297L30.8842 28.7577C31.3067 33.1181 31.518 35.2982 30.2413 36.2674C28.9646 37.2366 27.0454 36.353 23.2071 34.5857L22.214 34.1285C21.1233 33.6263 20.5779 33.3752 19.9999 33.3752C19.4218 33.3752 18.8764 33.6263 17.7857 34.1285L16.7926 34.5857C12.9543 36.353 11.0352 37.2366 9.75844 36.2674C8.48173 35.2982 8.69299 33.1181 9.11552 28.7577L9.22483 27.6297C9.3449 26.3906 9.40494 25.7711 9.2263 25.1966C9.04766 24.6221 8.65057 24.1578 7.85639 23.2291L7.13335 22.3836C4.33861 19.1155 2.94123 17.4815 3.42889 15.9133C3.91655 14.3451 5.96629 13.8813 10.0658 12.9538L11.1263 12.7138C12.2913 12.4502 12.8737 12.3185 13.3414 11.9634C13.8091 11.6084 14.1091 11.0703 14.709 9.99413L15.2551 9.01437Z" fill="#E9E9E9"/>
</svg>
