<svg width="17" height="14" viewBox="0 0 17 14" fill="none" xmlns="http://www.w3.org/2000/svg">
<path d="M15.8327 1.55571V5.55571M15.8327 5.55571H11.8327M15.8327 5.55571L12.7393 2.64905C12.0229 1.93219 11.1364 1.40852 10.1628 1.1269C9.18919 0.845275 8.16009 0.814882 7.17154 1.03855C6.18299 1.26222 5.26722 1.73267 4.50966 2.40599C3.7521 3.07932 3.17746 3.93357 2.83935 4.88905M1.16602 12.2224V8.22238M1.16602 8.22238H5.16602M1.16602 8.22238L4.25935 11.129C4.97585 11.8459 5.86226 12.3696 6.83589 12.6512C7.80951 12.9328 8.83861 12.9632 9.82716 12.7395C10.8157 12.5159 11.7315 12.0454 12.489 11.3721C13.2466 10.6988 13.8212 9.84452 14.1593 8.88905" stroke="#424344" stroke-width="1.33333" stroke-linecap="round" stroke-linejoin="round"/>
</svg>
