<svg width="15" height="17" viewBox="0 0 15 17" fill="none" xmlns="http://www.w3.org/2000/svg">
<path d="M0.981445 4.09878H2.43001M2.43001 4.09878H14.0185M2.43001 4.09878V14.2387C2.43001 14.6229 2.58262 14.9913 2.85428 15.263C3.12594 15.5346 3.49438 15.6873 3.87856 15.6873H11.1214C11.5055 15.6873 11.874 15.5346 12.1456 15.263C12.4173 14.9913 12.5699 14.6229 12.5699 14.2387V4.09878M4.60284 4.09878V2.65022C4.60284 2.26604 4.75546 1.89759 5.02712 1.62593C5.29878 1.35428 5.66722 1.20166 6.0514 1.20166H8.94852C9.33271 1.20166 9.70115 1.35428 9.97281 1.62593C10.2445 1.89759 10.3971 2.26604 10.3971 2.65022V4.09878" stroke="#424344" stroke-width="1.44856" stroke-linecap="round" stroke-linejoin="round"/>
</svg>
