<svg width="26" height="26" viewBox="0 0 26 26" fill="none" xmlns="http://www.w3.org/2000/svg">
<g clip-path="url(#clip0_42_4921)">
<path d="M9.30873 0.598C8.94473 0.91 8.50273 1.43 8.34673 1.768C8.16473 2.106 8.06073 4.056 8.06073 6.63V10.92C4.23873 10.92 3.87473 10.998 3.74473 11.388C3.61473 11.726 4.62873 12.896 7.95673 16.172C11.2587 19.448 12.5067 20.54 13.0007 20.54C13.4947 20.54 14.6907 19.526 18.0447 16.198C21.3467 12.896 22.3867 11.726 22.2567 11.362C22.1267 10.998 21.7627 10.92 20.0207 10.92H17.9407C17.9407 3.51 17.8367 2.132 17.5767 1.612C17.3947 1.222 16.9267 0.702 16.5367 0.442C15.9907 0.078 15.2887 0 12.9487 0C10.2967 0 9.95873 0.052 9.30873 0.598ZM0.000732422 21.32C0.000732422 22.776 0.130732 23.92 0.364732 24.362C0.546732 24.778 1.01473 25.298 1.40473 25.532C2.02873 25.948 3.04273 26 13.0007 26C22.9587 26 23.9727 25.948 24.5967 25.532C24.9867 25.298 25.4547 24.778 25.6367 24.362C25.8707 23.92 26.0007 22.776 26.0007 21.32V18.98H23.9207L23.7907 23.79H2.21073L2.08073 18.98H0.000732422V21.32Z" fill="#AA8515"/>
</g>
<defs>
<clipPath id="clip0_42_4921">
<rect width="26" height="26" fill="white"/>
</clipPath>
</defs>
</svg>
