<svg width="26" height="26" viewBox="0 0 26 26" fill="none" xmlns="http://www.w3.org/2000/svg">
<g clip-path="url(#clip0_42_4926)">
<path d="M17.42 0.702058C16.406 1.17006 15.236 2.10606 13.442 3.92606L10.894 6.50006C12.22 6.52606 13.078 6.68206 13.65 6.89006L14.69 7.25406C17.55 4.47206 18.668 3.64006 19.11 3.53606C19.552 3.43206 20.176 3.40606 20.54 3.51006C20.904 3.61406 21.45 3.95206 21.788 4.26406C22.1 4.55006 22.438 5.09606 22.516 5.46006C22.594 5.82406 22.542 6.52606 22.386 7.02006C22.204 7.64406 21.112 8.91806 18.928 11.0761C16.822 13.1561 15.47 14.3001 14.95 14.4301C14.534 14.5341 13.884 14.5081 13.52 14.4041C13.156 14.3001 12.584 13.9881 12.22 13.7281C11.856 13.4421 11.284 13.2601 10.946 13.3121C10.608 13.3641 10.088 13.6761 9.82801 14.0401C9.43801 14.5601 9.38601 14.8201 9.62001 15.4181C9.75001 15.8081 10.374 16.4321 10.972 16.8481C11.804 17.3941 12.428 17.5761 13.754 17.6281C14.95 17.7061 15.808 17.5761 16.64 17.2641C17.472 16.9261 18.772 15.8601 21.242 13.4161C23.53 11.1281 24.856 9.62006 25.194 8.84006C25.532 8.11206 25.74 7.09806 25.74 6.18806C25.74 5.35606 25.584 4.29006 25.402 3.84806C25.194 3.38006 24.7 2.60006 24.284 2.13206C23.868 1.63806 22.906 0.962058 22.178 0.624058C21.424 0.286058 20.358 5.8379e-05 19.838 0.0260584C19.292 0.0260584 18.2 0.338058 17.42 0.702058ZM9.10001 8.84006C8.37201 9.20406 6.70801 10.6081 4.62801 12.6881C2.49601 14.8461 1.14401 16.4061 0.80601 17.1601C0.46801 17.8881 0.26001 18.8761 0.26001 19.8381C0.26001 20.6441 0.41601 21.7101 0.59801 22.1781C0.80601 22.6201 1.30001 23.4001 1.71601 23.8681C2.13201 24.3621 3.09401 25.0381 3.84801 25.3761C4.57601 25.7141 5.61601 26.0001 6.11001 26.0001C6.60401 26.0001 7.69601 25.6881 8.52801 25.3241C9.59401 24.8301 10.738 23.9461 12.61 22.0741L15.21 19.5001C13.806 19.4741 12.922 19.3181 12.35 19.1101L11.31 18.7461C8.45001 21.5281 7.33201 22.3601 6.89001 22.4641C6.47401 22.5681 5.82401 22.5941 5.46001 22.4901C5.09601 22.3861 4.55001 22.0481 4.21201 21.7361C3.90001 21.4501 3.56201 20.9041 3.48401 20.5401C3.40601 20.1761 3.45801 19.4741 3.61401 18.9801C3.79601 18.3561 4.88801 17.0821 7.07201 14.9241C9.17801 12.8441 10.53 11.7001 11.05 11.5701C11.492 11.4661 12.116 11.4921 12.48 11.5961C12.844 11.7001 13.416 12.0121 13.78 12.2721C14.144 12.5581 14.716 12.7401 15.054 12.6881C15.392 12.6361 15.912 12.3241 16.172 11.9601C16.562 11.4401 16.614 11.1801 16.38 10.5821C16.25 10.1921 15.626 9.56806 15.028 9.15206C14.144 8.58006 13.598 8.42406 12.116 8.37206C10.686 8.32006 10.01 8.42406 9.10001 8.84006Z" fill="#AA8515"/>
</g>
<defs>
<clipPath id="clip0_42_4926">
<rect width="26" height="26" fill="white"/>
</clipPath>
</defs>
</svg>
