<svg width="34" height="34" viewBox="0 0 34 34" fill="none" xmlns="http://www.w3.org/2000/svg">
<path d="M17 34C26.3888 34 34 26.3888 34 17C34 7.61116 26.3888 0 17 0C7.61116 0 0 7.61116 0 17C0 26.3888 7.61116 34 17 34Z" fill="#284380"/>
<path d="M17.7951 5.28027C19.5146 5.28027 20.8582 5.70618 21.8258 6.55799C22.7934 7.40981 23.2774 8.62383 23.2776 10.2001V19.1122H20.0258L19.1259 17.3125H19.03C18.6467 17.7926 18.2533 18.1825 17.8498 18.4821C17.4338 18.788 16.9634 19.012 16.4637 19.1421C15.9423 19.2817 15.3065 19.3516 14.5563 19.3519C13.7722 19.3519 13.0684 19.1919 12.4449 18.8721C11.8213 18.5523 11.3294 18.0684 10.9693 17.4203C10.6095 16.773 10.4297 15.9529 10.4297 14.9601C10.4297 13.5049 10.9335 12.4253 11.941 11.7212C12.9485 11.0172 14.4081 10.6218 16.3198 10.535L18.587 10.4626V10.2708C18.587 9.6631 18.437 9.23119 18.1371 8.97505C17.8373 8.71892 17.4355 8.59097 16.9318 8.59119C16.3958 8.59119 15.7979 8.68526 15.1383 8.87339C14.4603 9.06815 13.7969 9.31061 13.1531 9.59895L11.7978 6.50427C12.5812 6.10443 13.4689 5.80047 14.4611 5.59239C15.4532 5.38431 16.5645 5.28027 17.7951 5.28027ZM18.6111 13.0421L17.5313 13.0901C16.6677 13.122 16.0619 13.272 15.714 13.5399C15.366 13.8078 15.192 14.1896 15.1917 14.6854C15.1917 15.1493 15.3158 15.4913 15.564 15.7111C15.8122 15.931 16.1401 16.0409 16.5476 16.0409C17.1143 16.0409 17.6001 15.861 18.0049 15.501C18.4097 15.1411 18.6117 14.6733 18.6108 14.0978L18.6111 13.0421Z" fill="white"/>
<path d="M17.2939 28.6959C12.8773 28.6959 9.41814 26.1915 9.41814 22.9938C9.41458 22.712 9.467 22.4323 9.57238 22.1709C9.67775 21.9095 9.83397 21.6717 10.032 21.4712C10.23 21.2706 10.4658 21.1114 10.7259 21.0028C10.9859 20.8941 11.2649 20.8381 11.5467 20.8381C11.8285 20.8381 12.1075 20.8941 12.3676 21.0028C12.6276 21.1114 12.8634 21.2706 13.0614 21.4712C13.2594 21.6717 13.4157 21.9095 13.521 22.1709C13.6264 22.4323 13.6788 22.712 13.6753 22.9938C13.6753 23.3538 14.9584 24.4398 17.2942 24.4398C19.63 24.4398 20.9135 23.3538 20.9135 22.9938C20.9135 22.4293 21.1378 21.8879 21.5369 21.4888C21.9361 21.0896 22.4775 20.8654 23.0419 20.8654C23.6064 20.8654 24.1478 21.0896 24.5469 21.4888C24.9461 21.8879 25.1703 22.4293 25.1703 22.9938C25.17 26.1915 21.7105 28.6959 17.2939 28.6959Z" fill="#C63160"/>
</svg>
