<svg width="32" height="32" viewBox="0 0 32 32" fill="none" xmlns="http://www.w3.org/2000/svg">
<path d="M26.837 14.8572C26.837 21.5898 21.4263 27.0477 14.7518 27.0477C8.07738 27.0477 2.66666 21.5898 2.66666 14.8572C2.66666 8.12455 8.07738 2.66666 14.7518 2.66666C21.4263 2.66666 26.837 8.12455 26.837 14.8572Z" fill="#003AFF"/>
<path fill-rule="evenodd" clip-rule="evenodd" d="M14.7518 11.1323C15.3081 11.1323 15.7589 11.5871 15.7589 12.1482V13.8413H17.4374C17.9936 13.8413 18.4445 14.2961 18.4445 14.8572C18.4445 15.4182 17.9936 15.8731 17.4374 15.8731H15.7589V17.5662C15.7589 18.1273 15.3081 18.5821 14.7518 18.5821C14.1956 18.5821 13.7447 18.1273 13.7447 17.5662V15.8731H12.0662C11.51 15.8731 11.0592 15.4182 11.0592 14.8572C11.0592 14.2961 11.51 13.8413 12.0662 13.8413H13.7447V12.1482C13.7447 11.5871 14.1956 11.1323 14.7518 11.1323Z" fill="white"/>
<path fill-rule="evenodd" clip-rule="evenodd" d="M23.7593 26.2675C23.6402 24.8085 24.8477 23.5906 26.294 23.7107C26.5447 23.7315 26.845 23.8227 27.1507 23.9157C27.1802 23.9246 27.2097 23.9336 27.2392 23.9425C27.2659 23.9506 27.2925 23.9586 27.3192 23.9666C27.6002 24.0511 27.8797 24.1351 28.0922 24.2499C29.3126 24.9091 29.7065 26.4841 28.9422 27.6483C28.8091 27.8511 28.6026 28.0588 28.3949 28.2676C28.3752 28.2875 28.3555 28.3073 28.3358 28.3271C28.3162 28.347 28.2965 28.3669 28.2769 28.3867C28.0699 28.5962 27.864 28.8045 27.6629 28.9388C26.5088 29.7098 24.9473 29.3124 24.2938 28.0814C24.18 27.867 24.0967 27.5851 24.013 27.3017C24.005 27.2747 23.9971 27.2478 23.9891 27.221C23.9803 27.1912 23.9714 27.1614 23.9625 27.1317C23.8704 26.8233 23.7799 26.5204 23.7593 26.2675Z" fill="#003AFF"/>
</svg>
