<svg width="26" height="26" viewBox="0 0 26 26" fill="none" xmlns="http://www.w3.org/2000/svg">
<path fill-rule="evenodd" clip-rule="evenodd" d="M13.0001 2.33984C18.7201 2.33984 18.9801 2.36584 19.2401 2.85984C19.3701 3.14584 19.5001 3.84784 19.5001 4.41984C19.5001 5.11318 19.3268 5.63318 18.9801 5.97984C18.4861 6.47384 18.1221 6.49984 13.0001 6.49984C7.87809 6.49984 7.51409 6.47384 7.02009 5.97984C6.68209 5.64184 6.50009 5.09584 6.47409 4.39384C6.47409 3.82184 6.57809 3.11984 6.73409 2.83384C7.02009 2.36584 7.38409 2.33984 13.0001 2.33984ZM12.9221 8.83984C19.8901 8.83984 21.4501 8.91784 22.1001 9.22984C22.5421 9.43784 23.0621 9.98384 23.2701 10.3998C23.5561 10.9458 23.6601 12.0118 23.6601 14.1178C23.6601 16.7698 23.6081 17.0818 23.0621 17.6278C22.5941 18.0958 22.2041 18.1998 19.5001 18.1998L19.4481 19.7338C19.3701 20.9558 19.2401 21.3978 18.0701 22.6458H7.93009L7.28009 21.9438C6.76009 21.3978 6.63009 20.9558 6.50009 18.1998H4.99209C3.82209 18.1998 3.38009 18.0698 2.91209 17.6018C2.36609 17.0818 2.34009 16.8218 2.34009 14.0918C2.34009 12.0378 2.44409 10.9458 2.73009 10.3998C2.93809 9.98384 3.43209 9.43784 3.84809 9.22984C4.42009 8.91784 6.11009 8.86584 12.9481 8.83984H12.9221ZM19.9941 12.4798C20.4101 12.8958 20.6181 12.9478 21.0341 12.7398C21.3201 12.6098 21.5541 12.2718 21.5541 12.0118C21.5541 11.7778 21.4241 11.4138 21.2421 11.2318C21.0601 11.0498 20.6961 10.9198 20.4621 10.9198C20.2021 10.9198 19.8901 11.1538 19.7341 11.4398C19.5261 11.8558 19.5781 12.0638 19.9941 12.4798ZM8.94409 20.4098H17.0041L17.0561 15.3398H8.78809L8.94409 20.4098Z" fill="#AA8515"/>
<path opacity="0.7" d="M10.1401 2.26159C11.6481 2.31359 14.1701 2.31359 15.7301 2.26159C17.2901 2.23559 16.0681 2.18359 13.0001 2.18359C9.93208 2.18359 8.63208 2.23559 10.1401 2.26159ZM8.97008 8.76159C11.1281 8.81359 14.6901 8.81359 16.9001 8.76159C19.1101 8.73559 17.3681 8.68359 13.0001 8.68359C8.63208 8.68359 6.81208 8.73559 8.97008 8.76159ZM2.18408 14.0396C2.18408 15.3916 2.21008 15.9376 2.26208 15.2096C2.31408 14.5076 2.31408 13.3896 2.26208 12.7396C2.21008 12.0896 2.18408 12.6876 2.18408 14.0396ZM23.7641 14.0396C23.7641 15.3916 23.7901 15.9376 23.8421 15.2096C23.8941 14.5076 23.8941 13.3896 23.8421 12.7396C23.7901 12.0896 23.7641 12.6876 23.7641 14.0396Z" fill="#AA8515"/>
<path opacity="0.8" d="M4.78421 18.3813C5.20021 18.4333 5.79821 18.4333 6.08421 18.3813C6.39621 18.3293 6.05821 18.2773 5.33021 18.2773C4.60221 18.2773 4.36821 18.3293 4.78421 18.3813ZM20.1242 18.3813C20.5402 18.4333 21.1382 18.4333 21.4242 18.3813C21.7362 18.3293 21.3982 18.2773 20.6702 18.2773C19.9422 18.2773 19.7082 18.3293 20.1242 18.3813Z" fill="#AA8515"/>
<path opacity="0.5" d="M10.6598 22.8016C11.8818 22.8536 13.9098 22.8536 15.2098 22.8016C16.5098 22.7756 15.4958 22.7236 12.9998 22.7236C10.5038 22.7236 9.43779 22.7756 10.6598 22.8016Z" fill="#AA8515"/>
<path opacity="0.9" d="M2.70401 17.6799C2.78201 17.8099 2.91201 17.9399 2.99001 17.9399C3.06801 17.9399 3.06801 17.8099 2.99001 17.6799C2.91201 17.5499 2.78201 17.4199 2.70401 17.4199C2.62601 17.4199 2.62601 17.5499 2.70401 17.6799ZM22.958 17.7319C22.8193 17.9573 22.854 18.0006 23.062 17.8619C23.244 17.7579 23.4 17.6279 23.4 17.5499C23.4 17.4719 23.348 17.4199 23.27 17.4199C23.218 17.4199 23.062 17.5759 22.958 17.7319ZM7.12401 22.0999C7.20201 22.2299 7.33201 22.3599 7.41001 22.3599C7.48801 22.3599 7.48801 22.2299 7.41001 22.0999C7.33201 21.9699 7.20201 21.8399 7.12401 21.8399C7.04601 21.8399 7.04601 21.9699 7.12401 22.0999ZM18.538 22.1519C18.3993 22.3773 18.434 22.4206 18.642 22.2819C18.824 22.1779 18.98 22.0479 18.98 21.9699C18.98 21.8919 18.928 21.8399 18.85 21.8399C18.798 21.8399 18.642 21.9959 18.538 22.1519Z" fill="#AA8515"/>
<path opacity="0.1" d="M6.60391 6.23949C6.68191 6.39549 6.81191 6.49949 6.88991 6.49949C6.96791 6.49949 6.96791 6.39549 6.88991 6.23949C6.81191 6.08349 6.68191 5.97949 6.60391 5.97949C6.52591 5.97949 6.52591 6.08349 6.60391 6.23949ZM19.0579 6.29149C18.9192 6.51683 18.9626 6.56016 19.1879 6.42149C19.3439 6.31749 19.4999 6.18749 19.4999 6.10949C19.4999 6.03149 19.4479 5.97949 19.3699 5.97949C19.3179 5.97949 19.1619 6.13549 19.0579 6.29149Z" fill="#AA8515"/>
<path opacity="0.4" d="M2.93818 9.67138C2.79951 9.89671 2.83418 9.94004 3.04218 9.80138C3.22418 9.69738 3.38018 9.56738 3.38018 9.48938C3.38018 9.41138 3.32818 9.35938 3.25018 9.35938C3.19818 9.35938 3.04218 9.51538 2.93818 9.67138ZM22.7242 9.61938C22.8022 9.74938 22.9322 9.87938 23.0102 9.87938C23.0882 9.87938 23.0882 9.74938 23.0102 9.61938C22.9322 9.46338 22.8022 9.35938 22.7242 9.35938C22.6462 9.35938 22.6462 9.48938 22.7242 9.61938Z" fill="#AA8515"/>
<path opacity="0.7" d="M20.3578 10.8422C20.4618 10.9462 20.6178 10.9722 20.7218 10.8422C20.7998 10.7382 20.7218 10.6602 20.5138 10.6602C20.3058 10.6602 20.2278 10.7382 20.3578 10.8422ZM17.0038 15.3402C17.0818 15.4702 17.2118 15.6002 17.2898 15.6002C17.3678 15.6002 17.3678 15.4702 17.2898 15.3402C17.2118 15.1842 17.0818 15.0802 17.0038 15.0802C16.9258 15.0802 16.9258 15.1842 17.0038 15.3402Z" fill="#AA8515"/>
<path opacity="0.3" d="M21.1641 11.1799C21.2421 11.3099 21.3721 11.4399 21.4501 11.4399C21.5281 11.4399 21.5281 11.3099 21.4501 11.1799C21.3721 11.0499 21.2421 10.9199 21.1641 10.9199C21.0861 10.9199 21.0861 11.0499 21.1641 11.1799ZM11.0501 15.2619C12.1941 15.3139 14.0141 15.3139 15.0801 15.2619C16.1461 15.2359 15.2101 15.1839 13.0001 15.1839C10.7901 15.1839 9.90608 15.2359 11.0501 15.2619ZM8.68408 17.8099C8.68408 19.1099 8.71008 19.6819 8.76208 19.1099C8.81408 18.5379 8.81408 17.4719 8.76208 16.7699C8.71008 16.0419 8.68408 16.5099 8.68408 17.8099ZM17.2641 17.8099C17.2641 19.1099 17.2901 19.6819 17.3421 19.1099C17.3941 18.5379 17.3941 17.4719 17.3421 16.7699C17.2901 16.0419 17.2641 16.5099 17.2641 17.8099Z" fill="#AA8515"/>
<path opacity="0.8" d="M19.6039 12.7395C19.6819 12.8695 19.8119 12.9995 19.8899 12.9995C19.9679 12.9995 19.9679 12.8695 19.8899 12.7395C19.8119 12.6095 19.6819 12.4795 19.6039 12.4795C19.5259 12.4795 19.5259 12.6095 19.6039 12.7395ZM11.0499 20.7215C12.1939 20.7735 14.0139 20.7735 15.0799 20.7215C16.1459 20.6955 15.2099 20.6435 12.9999 20.6435C10.7899 20.6435 9.90586 20.6955 11.0499 20.7215Z" fill="#AA8515"/>
<path opacity="0.5" d="M8.65785 15.3921C8.51918 15.6174 8.56252 15.6607 8.78785 15.5221C8.94385 15.4181 9.09985 15.2881 9.09985 15.2101C9.09985 15.1321 9.04785 15.0801 8.96985 15.0801C8.91785 15.0801 8.76185 15.2361 8.65785 15.3921Z" fill="#AA8515"/>
</svg>
