<svg width="13" height="4" viewBox="0 0 13 4" fill="none" xmlns="http://www.w3.org/2000/svg">
<path d="M0.199707 1.81299C0.199707 1.29281 0.34082 0.927572 0.623047 0.717285C0.910807 0.506999 1.25667 0.401855 1.66064 0.401855C2.05355 0.401855 2.39111 0.506999 2.67334 0.717285C2.9611 0.927572 3.10498 1.29281 3.10498 1.81299C3.10498 2.31104 2.9611 2.67074 2.67334 2.89209C2.39111 3.11344 2.05355 3.22412 1.66064 3.22412C1.25667 3.22412 0.910807 3.11344 0.623047 2.89209C0.34082 2.67074 0.199707 2.31104 0.199707 1.81299ZM5.04736 1.81299C5.04736 1.29281 5.18848 0.927572 5.4707 0.717285C5.75846 0.506999 6.10433 0.401855 6.5083 0.401855C6.9012 0.401855 7.23877 0.506999 7.521 0.717285C7.80876 0.927572 7.95264 1.29281 7.95264 1.81299C7.95264 2.31104 7.80876 2.67074 7.521 2.89209C7.23877 3.11344 6.9012 3.22412 6.5083 3.22412C6.10433 3.22412 5.75846 3.11344 5.4707 2.89209C5.18848 2.67074 5.04736 2.31104 5.04736 1.81299ZM9.89502 1.81299C9.89502 1.29281 10.0361 0.927572 10.3184 0.717285C10.6061 0.506999 10.952 0.401855 11.356 0.401855C11.7489 0.401855 12.0864 0.506999 12.3687 0.717285C12.6564 0.927572 12.8003 1.29281 12.8003 1.81299C12.8003 2.31104 12.6564 2.67074 12.3687 2.89209C12.0864 3.11344 11.7489 3.22412 11.356 3.22412C10.952 3.22412 10.6061 3.11344 10.3184 2.89209C10.0361 2.67074 9.89502 2.31104 9.89502 1.81299Z" fill="#424344"/>
</svg>
