<svg width="25" height="24" viewBox="0 0 25 24" fill="none" xmlns="http://www.w3.org/2000/svg">
<path d="M12.5273 -0.00354004H12.4727C5.86034 -0.00354004 0.5 5.35839 0.5 11.9727V12.0273C0.5 18.6416 5.86034 24.0035 12.4727 24.0035H12.5273C19.1397 24.0035 24.5 18.6416 24.5 12.0273V11.9727C24.5 5.35839 19.1397 -0.00354004 12.5273 -0.00354004Z" fill="#00B0F2"/>
<path d="M5.04554 11.5908C5.07917 11.5739 5.11282 11.558 5.14562 11.5428C5.7157 11.2787 6.29336 11.0314 6.87017 10.7842C6.90128 10.7842 6.9534 10.748 6.98283 10.7362C7.0274 10.7169 7.07197 10.6984 7.11653 10.679L7.37299 10.5688C7.54452 10.4957 7.7152 10.4225 7.88673 10.3493C8.22895 10.203 8.57117 10.0566 8.91339 9.90943C9.59783 9.61673 10.2831 9.3232 10.9676 9.0305C11.652 8.7378 12.3373 8.44426 13.0217 8.15157C13.7062 7.85887 14.3914 7.56533 15.0759 7.27263C15.7603 6.97993 16.4456 6.6864 17.1301 6.3937C17.2823 6.32809 17.4471 6.23053 17.6102 6.20193C17.7472 6.17754 17.8809 6.13044 18.0188 6.10437C18.2803 6.05474 18.5687 6.03456 18.8193 6.14306C18.9059 6.1809 18.9858 6.23389 19.0522 6.30034C19.37 6.6149 19.3255 7.13133 19.2582 7.57374C18.7899 10.6572 18.3215 13.7414 17.8523 16.8248C17.7884 17.2479 17.701 17.7122 17.3672 17.9796C17.0846 18.2059 16.6827 18.2311 16.3338 18.1352C15.9848 18.0385 15.6771 17.8358 15.3752 17.6365C14.1232 16.8072 12.8704 15.9779 11.6184 15.1485C11.3207 14.9517 10.9894 14.6944 10.9928 14.3369C10.9945 14.1216 11.1231 13.9298 11.2543 13.7591C12.3423 12.3393 13.9122 11.3637 15.0801 10.0095C15.2449 9.8186 15.3744 9.47375 15.1482 9.36357C15.0137 9.29796 14.8589 9.38712 14.7362 9.47207C13.1924 10.5445 11.6495 11.6177 10.1057 12.6901C9.60205 13.0399 9.07401 13.3999 8.46692 13.4857C7.92374 13.5631 7.3772 13.4117 6.85168 13.2569C6.41108 13.1274 5.97131 12.9945 5.53323 12.8574C5.30032 12.7851 5.05984 12.7069 4.8799 12.5429C4.69996 12.3789 4.59655 12.103 4.70502 11.8843C4.77313 11.7472 4.90514 11.6606 5.04388 11.5899L5.04554 11.5908Z" fill="#FEFFFC"/>
</svg>
