<svg width="24" height="24" viewBox="0 0 24 24" fill="none" xmlns="http://www.w3.org/2000/svg">
<path d="M9.15307 5.40857C10.4197 3.13632 11.053 2.0002 11.9999 2.0002C12.9468 2.0002 13.5801 3.13632 14.8467 5.40857L15.1744 5.99643C15.5344 6.64213 15.7144 6.96498 15.995 7.17801C16.2756 7.39103 16.6251 7.4701 17.324 7.62825L17.9604 7.77223C20.4201 8.32875 21.6499 8.60702 21.9425 9.54793C22.2351 10.4888 21.3967 11.4693 19.7198 13.4301L19.286 13.9374C18.8095 14.4946 18.5712 14.7732 18.464 15.1179C18.3569 15.4626 18.3929 15.8343 18.4649 16.5778L18.5305 17.2546C18.784 19.8708 18.9108 21.1789 18.1448 21.7604C17.3787 22.3419 16.2272 21.8117 13.9242 20.7514L13.3284 20.477C12.674 20.1757 12.3468 20.025 11.9999 20.025C11.6531 20.025 11.3258 20.1757 10.6714 20.477L10.0756 20.7514C7.77258 21.8117 6.62108 22.3419 5.85506 21.7604C5.08903 21.1789 5.21579 19.8708 5.4693 17.2546L5.53489 16.5778C5.60693 15.8343 5.64296 15.4626 5.53577 15.1179C5.42859 14.7732 5.19033 14.4946 4.71383 13.9374L4.28001 13.4301C2.60316 11.4693 1.76473 10.4888 2.05733 9.54793C2.34993 8.60702 3.57977 8.32875 6.03944 7.77223L6.6758 7.62825C7.37476 7.4701 7.72424 7.39103 8.00485 7.17801C8.28546 6.96498 8.46543 6.64213 8.82538 5.99643L9.15307 5.40857Z" fill="#E9E9E9"/>
</svg>
