<svg width="180" height="37" viewBox="0 0 180 37" fill="none" xmlns="http://www.w3.org/2000/svg">
<g clip-path="url(#clip0_5_278)">
<path d="M172.329 4.87431C172.329 2.83075 173.97 1.15571 175.98 1.15571C176.952 1.15571 177.856 1.55772 178.56 2.22774C179.263 2.93126 179.632 3.86928 179.632 4.84081C179.632 5.81234 179.263 6.75036 178.56 7.45388C177.856 8.1574 176.952 8.55941 175.98 8.55941C173.97 8.55941 172.329 6.91787 172.329 4.87431ZM172.027 4.87431C172.027 7.08537 173.803 8.89442 176.014 8.89442C177.086 8.89442 178.057 8.49241 178.794 7.72189C179.531 6.95137 179.967 5.94634 179.967 4.87431C179.967 3.80228 179.565 2.79725 178.794 2.02673C178.024 1.25621 177.052 0.854199 176.014 0.854199C173.803 0.854199 172.027 2.66325 172.027 4.87431ZM174.506 7.25288H175.076V5.37682H176.349C176.55 5.37682 176.717 5.37682 176.851 5.44383C177.019 5.54433 177.119 5.74534 177.153 6.01334L177.22 6.75036V7.08537C177.253 7.15237 177.253 7.18588 177.287 7.21938H177.99V7.11887C177.89 7.08537 177.856 6.98487 177.823 6.85087C177.789 6.78386 177.789 6.64986 177.789 6.48236L177.756 5.91284C177.756 5.64483 177.689 5.47733 177.622 5.37682C177.521 5.27632 177.387 5.17582 177.22 5.10882C177.421 5.00831 177.555 4.87431 177.655 4.70681C177.756 4.5393 177.789 4.3383 177.789 4.07029C177.789 3.56777 177.588 3.23277 177.22 3.03176C177.019 2.93126 176.751 2.89776 176.449 2.89776H174.54L174.506 7.25288ZM175.042 4.87431V3.36677H176.382C176.583 3.36677 176.751 3.40027 176.851 3.46727C177.052 3.56777 177.153 3.80228 177.153 4.10379C177.153 4.4053 177.086 4.6063 176.918 4.70681C176.784 4.80731 176.583 4.87431 176.315 4.87431H175.042ZM16.3147 10.402L0.0332031 35.9967H11.1555L26.834 11.541L16.3147 10.402ZM83.35 9.83245V0.351685H51.6916C47.37 0.619692 45.494 2.69675 44.0869 4.17079C42.5794 5.74534 41.7419 9.06193 41.7419 9.06193V0.418686H24.8909C23.6179 0.418686 22.4118 0.954701 21.5073 2.22774C20.5693 3.46727 16.7167 9.83245 16.7167 9.83245H83.35ZM169.447 9.83245V0.351685H135.578C131.29 0.619692 129.38 2.69675 127.973 4.17079C126.466 5.74534 125.628 9.06193 125.628 9.06193V9.83245H169.447ZM94.4723 0.385186H84.9916V9.83245H94.4723V0.385186ZM125.528 0.385186H116.08V9.83245H125.528V0.385186ZM125.528 13.2495L116.214 12.68V23.6348C116.214 23.6348 116.181 26.7839 113.132 26.7839H97.1859C97.1859 26.7839 94.4723 26.5494 94.4723 23.6683V11.206L85.0921 10.536V27.3199C86.5996 35.3602 93.8693 35.9967 93.8693 35.9967C93.8693 35.9967 94.6064 36.0302 94.7404 36.0637H116.348C116.348 36.0637 125.595 35.3267 125.595 26.4154L125.528 13.2495ZM32.0936 35.9967H76.3818C84.0871 34.4556 84.8911 27.4204 84.8911 27.4204C85.2596 25.3434 85.0586 23.6348 85.0586 23.6348C84.8241 22.2278 82.144 15.9966 76.3818 15.4606C72.9312 15.1256 42.2109 12.68 42.2109 12.68C42.8139 15.7621 44.1874 17.3367 45.1255 18.2077C47.2695 20.2512 50.6531 20.8543 50.6531 20.8543L74.3383 22.8308C75.0753 22.8643 76.4488 23.0653 76.4153 24.8744C76.4153 25.1089 76.2143 26.6834 74.4723 26.6834H41.3399V12.613L32.1271 11.943C32.0936 11.943 32.0936 35.9967 32.0936 35.9967ZM125.595 36.0637H159.498C168.007 35.5612 169.213 27.4874 169.213 27.4874C169.514 25.3769 169.28 23.6348 169.28 23.6348C169.045 21.7253 166.332 15.9631 160.536 15.3936C157.119 15.0586 126.198 13.2495 126.198 13.2495C127.102 16.4321 128.342 17.4037 129.28 18.2747C131.424 20.3517 134.606 20.8208 134.606 20.8208C135.41 20.8878 158.526 22.8308 158.526 22.8308C159.263 22.8643 160.771 22.9313 160.771 24.7404C160.771 25.2764 160.503 25.8459 160.168 26.1474C160.168 26.1474 159.364 26.5829 158.593 26.5829H125.695L125.595 36.0637Z" fill="#00539B"/>
</g>
<defs>
<clipPath id="clip0_5_278">
<rect width="180" height="35.712" fill="white" transform="translate(0 0.352051)"/>
</clipPath>
</defs>
</svg>
