<svg width="32" height="32" viewBox="0 0 32 32" fill="none" xmlns="http://www.w3.org/2000/svg">
<path d="M8.34658 28.5178H8C6.74292 28.5178 6.11438 28.5178 5.72386 28.1273C5.33334 27.7368 5.33334 27.1083 5.33334 25.8512V24.3686C5.33334 23.6772 5.33334 23.3316 5.51091 23.0229C5.68848 22.7142 5.95637 22.5584 6.49214 22.2468C10.0194 20.1953 15.0287 19.0404 18.3721 21.0345C18.5967 21.1685 18.7987 21.3302 18.9714 21.5242C19.7155 22.36 19.6613 23.6215 18.8037 24.37C18.6226 24.5281 18.4295 24.6479 18.2351 24.6896C18.3949 24.6711 18.548 24.6499 18.6941 24.6265C19.9093 24.4327 20.9294 23.7833 21.8632 23.0779L24.2728 21.2577C25.1223 20.616 26.3831 20.6159 27.2327 21.2574C27.9976 21.8349 28.2315 22.7859 27.7479 23.561C27.184 24.4649 26.3895 25.6213 25.6266 26.3279C24.8626 27.0355 23.7252 27.6672 22.7966 28.1154C21.7681 28.6118 20.6317 28.8979 19.4759 29.085C17.1318 29.4645 14.6888 29.4065 12.3684 28.9285C11.0567 28.6583 9.6944 28.5178 8.34658 28.5178Z" fill="#003AFF"/>
<path d="M14.4817 4.48446C15.1572 3.2726 15.495 2.66666 16 2.66666C16.505 2.66666 16.8428 3.2726 17.5183 4.48446L17.6931 4.79799C17.8851 5.14236 17.981 5.31455 18.1307 5.42816C18.2804 5.54177 18.4667 5.58394 18.8395 5.66829L19.1789 5.74508C20.4907 6.04189 21.1467 6.1903 21.3027 6.69212C21.4588 7.19394 21.0116 7.71684 20.1173 8.76262L19.8859 9.03318C19.6318 9.33036 19.5047 9.47895 19.4475 9.66278C19.3904 9.84661 19.4096 10.0449 19.448 10.4414L19.483 10.8023C19.6182 12.1976 19.6858 12.8953 19.2773 13.2054C18.8687 13.5156 18.2546 13.2328 17.0263 12.6673L16.7085 12.521C16.3595 12.3603 16.185 12.2799 16 12.2799C15.815 12.2799 15.6405 12.3603 15.2915 12.521L14.9737 12.6673C13.7454 13.2328 13.1313 13.5156 12.7227 13.2054C12.3142 12.8953 12.3818 12.1977 12.517 10.8023L12.552 10.4414C12.5904 10.0449 12.6096 9.84661 12.5525 9.66278C12.4953 9.47895 12.3682 9.33036 12.1141 9.03318L11.8827 8.76262C10.9884 7.71684 10.5412 7.19394 10.6973 6.69212C10.8533 6.1903 11.5093 6.04189 12.8211 5.74508L13.1605 5.66829C13.5333 5.58394 13.7196 5.54177 13.8693 5.42816C14.019 5.31455 14.1149 5.14236 14.3069 4.79799L14.4817 4.48446Z" fill="#003AFF"/>
<path d="M25.9075 10.2422C26.2453 9.6363 26.4142 9.33333 26.6667 9.33333C26.9192 9.33333 27.088 9.6363 27.4258 10.2422L27.5132 10.399C27.6092 10.5712 27.6572 10.6573 27.732 10.7141C27.8068 10.7709 27.9 10.792 28.0864 10.8341L28.2561 10.8725C28.912 11.0209 29.24 11.0951 29.318 11.3461C29.396 11.597 29.1725 11.8584 28.7253 12.3813L28.6096 12.5166C28.4826 12.6652 28.419 12.7395 28.3904 12.8314C28.3619 12.9233 28.3715 13.0224 28.3907 13.2207L28.4082 13.4012C28.4758 14.0988 28.5096 14.4477 28.3053 14.6027C28.101 14.7578 27.794 14.6164 27.1798 14.3336L27.0209 14.2605C26.8464 14.1801 26.7592 14.14 26.6667 14.14C26.5742 14.14 26.4869 14.1801 26.3124 14.2605L26.1535 14.3336C25.5394 14.6164 25.2323 14.7578 25.028 14.6027C24.8238 14.4477 24.8576 14.0988 24.9252 13.4012L24.9427 13.2207C24.9619 13.0224 24.9715 12.9233 24.9429 12.8314C24.9143 12.7395 24.8508 12.6652 24.7237 12.5166L24.608 12.3813C24.1609 11.8584 23.9373 11.597 24.0153 11.3461C24.0933 11.0951 24.4213 11.0209 25.0772 10.8725L25.2469 10.8341C25.4333 10.792 25.5265 10.7709 25.6013 10.7141C25.6761 10.6573 25.7241 10.5712 25.8201 10.399L25.9075 10.2422Z" fill="#003AFF"/>
<path d="M4.57417 10.2422C4.91195 9.6363 5.08083 9.33333 5.33333 9.33333C5.58583 9.33333 5.75471 9.6363 6.09249 10.2422L6.17987 10.399C6.27586 10.5712 6.32385 10.6573 6.39868 10.7141C6.47351 10.7709 6.5667 10.792 6.75309 10.8341L6.92279 10.8725C7.5787 11.0209 7.90666 11.0951 7.98469 11.3461C8.06271 11.597 7.83913 11.8584 7.39197 12.3813L7.27629 12.5166C7.14922 12.6652 7.08568 12.7395 7.0571 12.8314C7.02852 12.9233 7.03812 13.0224 7.05733 13.2207L7.07483 13.4012C7.14243 14.0988 7.17623 14.4477 6.97196 14.6027C6.76768 14.7578 6.46062 14.6164 5.84648 14.3336L5.6876 14.2605C5.51308 14.1801 5.42583 14.14 5.33333 14.14C5.24084 14.14 5.15358 14.1801 4.97906 14.2605L4.82018 14.3336C4.20604 14.6164 3.89898 14.7578 3.6947 14.6027C3.49043 14.4477 3.52423 14.0988 3.59184 13.4012L3.60933 13.2207C3.62854 13.0224 3.63814 12.9233 3.60956 12.8314C3.58098 12.7395 3.51744 12.6652 3.39038 12.5166L3.27469 12.3813C2.82753 11.8584 2.60395 11.597 2.68198 11.3461C2.76 11.0951 3.08796 11.0209 3.74387 10.8725L3.91357 10.8341C4.09996 10.792 4.19315 10.7709 4.26798 10.7141C4.34281 10.6573 4.3908 10.5712 4.48679 10.399L4.57417 10.2422Z" fill="#003AFF"/>
</svg>
