<svg width="200" height="46" viewBox="0 0 200 46" fill="none" xmlns="http://www.w3.org/2000/svg">
<g clip-path="url(#clip0_5_280)">
<path fill-rule="evenodd" clip-rule="evenodd" d="M20.5793 26.9921V38.3039C20.5793 42.5372 21.067 44.4806 25.3491 44.4806V44.88H8.82355V44.4806C13.7344 44.4806 13.1503 39.22 13.1503 34.9919V22.9217C13.1503 18.6894 14.026 10.3151 9.11511 10.3151V9.90836H24.9455V10.3151C20.8709 10.3151 20.5793 12.7918 20.5793 17.0241V25.8944L21.287 25.9307C27.9047 19.3358 28.6465 18.1696 29.0968 17.4371C32.4088 12.0562 29.2805 10.4604 27.4533 10.4604V9.8596H40.9325V10.4604C38.6343 10.4604 34.2982 14.0369 31.7385 16.1266L21.8058 26.105C35.3618 26.7431 35.0712 33.8142 36.5861 39.0831C37.4349 42.0495 37.9941 43.9026 41.2428 44.5241V44.8811C41.2428 44.8811 29.1705 44.8956 29.1664 44.8811C27.3215 34.6391 26.4448 26.1112 20.5793 26.9921ZM52.5607 28.4313C52.5607 33.2768 53.341 34.636 56.1653 34.636V34.9929H42.0926V34.636C44.9646 34.636 45.1887 31.3085 45.1887 28.4313V15.6856C45.1887 12.3207 44.479 10.477 41.6028 10.477V9.87723H52.5597L52.5607 28.4313ZM48.76 0.498535C50.9006 0.498535 52.6759 2.27591 52.6759 4.41748C52.6759 6.55905 50.9006 8.33331 48.76 8.33331C46.6164 8.33331 44.8411 6.55905 44.8411 4.41748C44.8411 2.27591 46.6164 0.498535 48.76 0.498535ZM67.2498 12.9796C69.7036 9.44249 71.371 9.36467 74.1922 9.36467C80.9147 9.36467 81.4822 14.5111 81.4822 18.8731L81.4999 28.4313C81.4999 33.1305 81.9875 34.636 84.6033 34.636V34.9929H71.2143V34.636C73.5624 34.636 73.5624 32.5909 73.5624 28.4313V18.7164C73.5624 15.2146 73.9473 10.8142 71.2631 10.8142C68.196 10.8142 68.0809 13.2681 67.2498 14.6812V28.4313C67.2498 32.5453 67.4915 34.636 69.8406 34.636V34.9929H56.6965V34.636C59.3071 34.636 59.746 32.4457 59.746 28.4313V15.6856C59.746 12.1693 59.1141 10.4759 56.24 10.4759V9.87827H67.2487L67.2498 12.9796ZM136.827 9.87827H141.989L141.107 11.6287H136.827V26.7068C136.827 34.2977 141.222 33.6659 143.056 32.014L143.16 32.4882C139.221 35.6653 136.541 34.9867 135.54 34.9867C131.718 34.9867 129.333 32.2973 129.333 28.6948V11.6276H125.072V11.4201C128.402 10.2715 133.859 5.83793 136.386 2.14933H136.828L136.827 9.87827Z" fill="black"/>
<path fill-rule="evenodd" clip-rule="evenodd" d="M140.439 22.6903C140.439 16.6547 145.843 9.36462 152.5 9.36462C158.566 9.36462 164.358 15.8298 164.358 22.2503C164.358 29.8153 157.837 35.4266 152.5 35.4266C145.991 35.4266 140.439 29.6213 140.439 22.6903ZM156.738 22.0075C156.738 14.3803 156.468 9.87407 152.5 9.87407C148.133 9.87407 148.45 15.6804 148.45 22.0075C148.45 29.6338 148.431 34.969 152.5 34.969C157.053 34.969 156.738 29.6327 156.738 22.0075Z" fill="black"/>
<path fill-rule="evenodd" clip-rule="evenodd" d="M173.701 12.9796C176.166 9.44244 177.826 9.36462 180.648 9.36462C187.376 9.36462 187.933 14.511 187.933 18.873L187.957 28.4312C187.957 33.1304 188.443 34.6359 191.059 34.6359V34.9929H177.672V34.6359C180.023 34.6359 180.023 32.5909 180.023 28.4312V18.7163C180.023 15.2145 180.398 10.8141 177.719 10.8141C174.655 10.8141 174.538 13.268 173.7 14.6812V28.4312C173.7 32.5452 173.949 34.6359 176.3 34.6359V34.9929H163.154V34.6359C165.765 34.6359 166.201 32.4456 166.201 28.4312V15.6856C166.201 12.1692 165.571 10.4759 162.699 10.4759V9.87822H173.701V12.9796ZM97.4754 31.1507C96.7097 32.1541 95.6223 35.41 91.5685 35.41C86.8734 35.41 83.328 31.13 83.328 22.5907C83.328 15.6482 87.7896 9.47876 92.9236 9.47876C96.5655 9.47876 97.9652 12.7295 97.9652 12.7295V10.0795H109.191V10.6232C109.191 10.6232 105.502 9.88029 105.502 15.1564V34.5021C105.145 39.7543 102.849 43.3558 93.763 45.9176L93.8263 45.3158C99.0505 41.5089 97.9247 36.0024 97.4754 31.1507ZM98.1249 21.4068C98.1249 15.7323 97.6923 10.1936 94.0441 10.1936C91.4938 10.1936 90.8391 14.6584 90.8391 22.7453C90.8391 29.5352 91.4108 34.0767 93.9902 34.0767C96.2666 34.0767 98.1249 28.9251 98.1249 23.4529V21.4068Z" fill="black"/>
<path fill-rule="evenodd" clip-rule="evenodd" d="M106.79 26.9744H110.385C109.9 34.833 115.371 34.8413 116.694 34.8413C119.073 34.8413 121.227 32.9747 121.227 30.8954C121.227 24.5039 107.906 27.2297 107.906 17.5241C107.906 13.1134 111.262 9.43202 116.286 9.43202C124.422 9.43202 125.375 14.3201 125.375 16.0238H122.335C122.618 14.8046 122.128 9.79413 116.947 9.79413C112.715 9.79413 112.886 13.2441 112.886 13.4817C112.886 19.6792 127.284 17.437 127.284 26.5718C127.284 31.1818 123.404 35.026 118.193 35.3166C109.169 35.8094 106.79 29.2768 106.79 26.9744ZM42.9454 36.9808H49.2995V37.9157H46.662V44.8156H45.5839V37.9157H42.9454V36.9808ZM57.3584 44.8156V36.9808H63.0682V37.9458H58.3939V40.3187H62.7134V41.2266H58.3939V43.8776H63.1481V44.8156H57.3584ZM74.8261 36.7681C75.8159 36.7681 76.5879 37.0338 77.1337 37.5546C77.6805 38.0755 77.9845 38.669 78.0457 39.3341H77.0144C76.895 38.8319 76.6605 38.4303 76.3088 38.1346C75.9602 37.8368 75.4715 37.6905 74.8354 37.6905C74.0697 37.6905 73.443 37.9624 72.9688 38.503C72.4936 39.0477 72.2591 39.8788 72.2591 40.9952C72.2591 41.9114 72.4729 42.6595 72.8972 43.224C73.3268 43.7998 73.9649 44.081 74.8157 44.081C75.5949 44.081 76.1947 43.7832 76.6004 43.1793C76.8193 42.867 76.978 42.4478 77.087 41.9291H78.1204C78.0291 42.7581 77.7261 43.445 77.2022 44.0042C76.5838 44.6745 75.7464 45.0159 74.6891 45.0159C73.7781 45.0159 73.0134 44.7357 72.393 44.191C71.5816 43.4595 71.1728 42.3348 71.1728 40.8168C71.1728 39.6599 71.483 38.7136 72.0931 37.9759C72.7509 37.1697 73.665 36.7681 74.8261 36.7681ZM86.418 44.8156V36.9808H87.4918V40.2191H91.5675V36.9808H92.6351V44.8156H91.5675V41.1478H87.4918V44.8156H86.418ZM105.844 44.8156V36.9808H107.098L111.051 43.3225V36.9808H112.063V44.8156H110.875L106.862 38.477V44.8156H105.844ZM122.937 43.197C122.503 42.6056 122.284 41.8741 122.284 41.0139C122.284 39.9213 122.533 39.0985 123.05 38.5476C123.56 37.9904 124.223 37.7144 125.032 37.7144C125.867 37.7144 126.529 37.9946 127.003 38.5538C127.49 39.1172 127.726 39.8549 127.726 40.7794C127.726 41.6489 127.518 42.4188 127.106 43.0901C126.686 43.7594 126.011 44.0955 125.073 44.0955C124.093 44.0945 123.379 43.7967 122.937 43.197ZM121.977 38.2176C121.448 38.9699 121.186 39.8798 121.186 40.9371C121.186 42.1127 121.49 43.0787 122.109 43.8455C122.796 44.6444 123.744 45.0387 124.945 45.0387C126.234 45.0387 127.231 44.5842 127.924 43.6784C128.52 42.8982 128.816 41.927 128.816 40.7618C128.816 39.6796 128.556 38.7956 128.035 38.1035C127.372 37.2164 126.349 36.7681 124.971 36.7681C123.642 36.7681 122.647 37.2506 121.977 38.2176ZM137.945 44.8156V36.9808H138.999V43.8776H142.971V44.8156H137.945ZM153.003 43.197C152.565 42.6056 152.348 41.8741 152.348 41.0139C152.348 39.9213 152.601 39.0985 153.112 38.5476C153.62 37.9904 154.283 37.7144 155.098 37.7144C155.929 37.7144 156.59 37.9946 157.069 38.5538C157.549 39.1172 157.792 39.8549 157.792 40.7794C157.792 41.6489 157.586 42.4188 157.165 43.0901C156.755 43.7594 156.073 44.0955 155.139 44.0955C154.155 44.0945 153.447 43.7967 153.003 43.197ZM152.038 38.2176C151.509 38.9699 151.247 39.8798 151.247 40.9371C151.247 42.1127 151.557 43.0787 152.172 43.8455C152.865 44.6444 153.811 45.0387 155.012 45.0387C156.299 45.0387 157.296 44.5842 157.987 43.6784C158.589 42.8982 158.878 41.927 158.878 40.7618C158.878 39.6796 158.619 38.7956 158.102 38.1035C157.439 37.2164 156.414 36.7681 155.028 36.7681C153.706 36.7681 152.713 37.2506 152.038 38.2176ZM171.388 36.7785C172.131 36.7785 172.765 36.9207 173.303 37.2039C174.073 37.6148 174.553 38.3328 174.728 39.3538H173.677C173.55 38.7821 173.282 38.367 172.887 38.1056C172.476 37.8441 171.977 37.7144 171.363 37.7144C170.642 37.7144 170.029 37.9842 169.53 38.531C169.037 39.0685 168.788 39.8809 168.788 40.9568C168.788 41.8886 168.989 42.645 169.403 43.2271C169.81 43.8185 170.477 44.1111 171.393 44.1111C172.11 44.1111 172.694 43.9088 173.156 43.4906C173.615 43.0797 173.859 42.4188 173.865 41.5005H171.418V40.6207H174.856V44.8156H174.169L173.92 43.804C173.555 44.2014 173.242 44.4732 172.962 44.6247C172.5 44.8882 171.903 45.0159 171.188 45.0159C170.259 45.0159 169.458 44.716 168.795 44.1163C168.067 43.362 167.702 42.3327 167.702 41.0201C167.702 39.7045 168.053 38.6638 168.764 37.8866C169.438 37.1469 170.319 36.7785 171.388 36.7785ZM186.488 41.6541L183.532 36.9808H184.764L187.011 40.7483L189.271 36.9808H190.507L187.553 41.6541V44.8156H186.488V41.6541ZM187.437 7.9711C187.437 6.9439 188.279 6.10449 189.317 6.10449C190.35 6.10449 191.175 6.9439 191.175 7.9711C191.175 9.00765 190.35 9.84705 189.317 9.84705C189.07 9.84732 188.826 9.79902 188.598 9.70489C188.37 9.61076 188.163 9.47265 187.988 9.29846C187.814 9.12426 187.675 8.91738 187.581 8.68963C187.486 8.46189 187.437 8.21773 187.437 7.9711ZM190.885 7.9711C190.885 7.06322 190.224 6.3504 189.318 6.3504C188.402 6.3504 187.736 7.06218 187.736 7.9711C187.736 8.88936 188.403 9.597 189.318 9.597C190.224 9.597 190.885 8.88936 190.885 7.9711ZM190.248 9.01491H189.944L189.342 8.05515H188.876V9.01491H188.621V6.92834H189.531C190.084 6.92834 190.27 7.13585 190.27 7.48137C190.27 7.89121 189.987 8.04374 189.616 8.05411L190.248 9.01491ZM189.265 7.85075C189.567 7.85075 189.992 7.90055 189.992 7.47722C189.992 7.15142 189.731 7.10991 189.469 7.10991H188.876V7.85178L189.265 7.85075Z" fill="black"/>
</g>
<defs>
<clipPath id="clip0_5_280">
<rect width="200" height="45.44" fill="white" transform="translate(0 0.488037)"/>
</clipPath>
</defs>
</svg>
