<svg width="32" height="32" viewBox="0 0 32 32" fill="none" xmlns="http://www.w3.org/2000/svg">
<path d="M27.0262 21.6866L27.9669 16.2469C28.2018 14.8883 27.157 13.6456 25.7797 13.6456H18.8716C18.1869 13.6456 17.6655 13.0311 17.7764 12.3546L18.6599 6.9619C18.8035 6.0858 18.7625 5.18934 18.5396 4.33004C18.3549 3.61819 17.8057 3.04661 17.0834 2.81457L16.8901 2.75248C16.4536 2.61224 15.9772 2.64488 15.5656 2.8432C15.1126 3.06149 14.7812 3.45965 14.6583 3.93319L14.0241 6.37833C13.8223 7.15632 13.5283 7.90727 13.1493 8.61683C12.5955 9.65357 11.7392 10.4833 10.8492 11.2503L8.93085 12.9033C8.38997 13.3694 8.10592 14.0674 8.16747 14.7792L9.25036 27.3028C9.34969 28.4515 10.3101 29.3333 11.4618 29.3333H17.66C22.3017 29.3333 26.2631 26.0992 27.0262 21.6866Z" fill="#003AFF"/>
<path fill-rule="evenodd" clip-rule="evenodd" d="M3.95689 12.6468C4.49191 12.6237 4.95015 13.0262 4.99628 13.5597L6.29175 28.5417C6.37496 29.5041 5.61691 30.3336 4.64894 30.3336C3.73719 30.3336 3 29.5939 3 28.6839V13.6458C3 13.1103 3.42187 12.6698 3.95689 12.6468Z" fill="#003AFF"/>
</svg>
