<svg width="32" height="32" viewBox="0 0 32 32" fill="none" xmlns="http://www.w3.org/2000/svg">
<path fill-rule="evenodd" clip-rule="evenodd" d="M14.065 28.7036L14.3984 28.1404C14.9327 27.2376 15.1999 26.7862 15.6255 26.5345C16.0511 26.2827 16.6062 26.265 17.7165 26.2295C18.7576 26.1962 19.4573 26.1053 20.0556 25.8575C21.3151 25.3358 22.3159 24.335 22.8376 23.0755C23.2289 22.1308 23.2289 20.9332 23.2289 18.5379V17.5098C23.2289 14.1444 23.2289 12.4616 22.4714 11.2255C22.0475 10.5338 21.466 9.95222 20.7743 9.52835C19.5381 8.77084 17.8554 8.77083 14.49 8.77083H11.4056C8.04017 8.77083 6.35744 8.77084 5.12129 9.52835C4.4296 9.95222 3.84805 10.5338 3.42418 11.2255C2.66666 12.4616 2.66666 14.1444 2.66666 17.5098V18.5379C2.66666 20.9332 2.66666 22.1308 3.05797 23.0755C3.5797 24.335 4.58044 25.3358 5.84002 25.8575C6.43828 26.1053 7.13797 26.1962 8.17903 26.2295C9.28931 26.265 9.84445 26.2827 10.27 26.5345C10.6956 26.7862 10.9628 27.2376 11.4971 28.1404L11.8305 28.7036C12.3273 29.5429 13.5682 29.5429 14.065 28.7036ZM17.4458 19.052C18.1555 19.052 18.7309 18.4766 18.7309 17.7668C18.7309 17.0571 18.1555 16.4817 17.4458 16.4817C16.736 16.4817 16.1606 17.0571 16.1606 17.7668C16.1606 18.4766 16.736 19.052 17.4458 19.052ZM14.2329 17.7668C14.2329 18.4766 13.6576 19.052 12.9478 19.052C12.238 19.052 11.6626 18.4766 11.6626 17.7668C11.6626 17.0571 12.238 16.4817 12.9478 16.4817C13.6576 16.4817 14.2329 17.0571 14.2329 17.7668ZM8.4498 19.052C9.15956 19.052 9.73494 18.4766 9.73494 17.7668C9.73494 17.0571 9.15956 16.4817 8.4498 16.4817C7.74003 16.4817 7.16466 17.0571 7.16466 17.7668C7.16466 18.4766 7.74003 19.052 8.4498 19.052Z" fill="#003AFF"/>
<path d="M20.2262 2.66667C21.7618 2.66666 22.983 2.66665 23.9623 2.75977C24.9665 2.85525 25.8155 3.05539 26.5719 3.51887C27.35 3.99573 28.0043 4.64998 28.4811 5.42813C28.9446 6.18448 29.1448 7.03352 29.2402 8.03772C29.3333 9.01705 29.3333 10.2383 29.3333 11.7739V12.8227C29.3333 13.9155 29.3333 14.7848 29.2852 15.4897C29.236 16.2109 29.1333 16.8301 28.8931 17.41C28.3062 18.827 27.1803 19.9528 25.7633 20.5398C25.7279 20.5545 25.6923 20.5686 25.6565 20.5823C25.4854 20.6477 25.3389 20.7037 25.2102 20.7455C25.2289 20.1204 25.2289 19.4084 25.2289 18.6049V17.4152C25.229 15.813 25.229 14.471 25.1252 13.3798C25.0166 12.2376 24.7804 11.1656 24.1767 10.1805C23.5879 9.21967 22.7801 8.41186 21.8193 7.82307C20.8342 7.21938 19.7622 6.98311 18.6199 6.87451C17.5288 6.77076 16.1867 6.77079 14.5846 6.77083H11.311C10.2229 6.77081 9.25473 6.77078 8.40368 6.80327C8.44333 6.66587 8.49765 6.50838 8.56141 6.32351C8.66986 6.0091 8.80692 5.71175 8.98071 5.42813C9.45757 4.64998 10.1118 3.99573 10.89 3.51887C11.6463 3.05539 12.4954 2.85525 13.4995 2.75977C14.4789 2.66665 15.7001 2.66666 17.2357 2.66667H20.2262Z" fill="#003AFF"/>
</svg>
