<svg width="24" height="24" viewBox="0 0 24 24" fill="none" xmlns="http://www.w3.org/2000/svg">
<path d="M12.0273 -0.00353241H11.9727C5.36035 -0.00353241 0 5.35839 0 11.9727V12.0273C0 18.6416 5.36035 24.0035 11.9727 24.0035H12.0273C18.6397 24.0035 24 18.6416 24 12.0273V11.9727C24 5.35839 18.6397 -0.00353241 12.0273 -0.00353241Z" fill="#00E510"/>
<path d="M14.3388 15.5111C11.2672 15.5111 8.76824 13.0105 8.7674 9.93805C8.76824 9.15921 9.40223 8.52587 10.1792 8.52587C10.259 8.52587 10.3381 8.5326 10.4137 8.54606C10.5802 8.57381 10.7383 8.63017 10.8838 8.71512C10.9048 8.72773 10.9191 8.74792 10.9225 8.77147L11.247 10.8178C11.2512 10.8422 11.2437 10.8658 11.2277 10.8834C11.0486 11.0819 10.8199 11.2249 10.5651 11.2964L10.4423 11.3309L10.4886 11.4495C10.9073 12.516 11.7599 13.368 12.827 13.7885L12.9455 13.8356L12.98 13.7128C13.0515 13.458 13.1944 13.2292 13.3928 13.0501C13.4071 13.0366 13.4265 13.0299 13.4458 13.0299C13.45 13.0299 13.4542 13.0299 13.4593 13.0307L15.505 13.3554C15.5294 13.3596 15.5496 13.373 15.5622 13.3941C15.6463 13.5396 15.7026 13.6985 15.7312 13.8651C15.7447 13.9391 15.7505 14.0173 15.7505 14.0989C15.7505 14.8769 15.1174 15.5102 14.3388 15.5111Z" fill="#FDFDFD"/>
<path d="M19.7857 11.3258C19.6201 9.45358 18.7624 7.71674 17.3708 6.43577C15.9708 5.14723 14.1546 4.43736 12.2552 4.43736C8.0863 4.43736 4.69438 7.83029 4.69438 12.0004C4.69438 13.3999 5.08031 14.7633 5.811 15.951L4.18146 19.5592L9.39885 19.0032C10.3061 19.375 11.2663 19.5634 12.2543 19.5634C12.5141 19.5634 12.7807 19.55 13.0481 19.5222C13.2835 19.497 13.5215 19.46 13.7552 19.4129C17.2464 18.7072 19.795 15.6078 19.8151 12.0408V12.0004C19.8151 11.7733 19.805 11.5462 19.7849 11.3258H19.7857ZM9.59981 17.4195L6.71323 17.7273L7.57508 15.8172L7.40271 15.5859C7.39009 15.5691 7.37748 15.5523 7.36319 15.5329C6.61485 14.4992 6.21964 13.278 6.21964 12.0012C6.21964 8.67221 8.92714 5.96392 12.2552 5.96392C15.373 5.96392 18.0157 8.39718 18.2705 11.5033C18.284 11.6698 18.2915 11.8372 18.2915 12.0021C18.2915 12.0492 18.2907 12.0954 18.2899 12.1451C18.226 14.9299 16.2811 17.295 13.5602 17.8972C13.3525 17.9435 13.1397 17.9788 12.9278 18.0015C12.7075 18.0268 12.4814 18.0394 12.2569 18.0394C11.4572 18.0394 10.6803 17.8846 9.94624 17.5785C9.86468 17.5457 9.78479 17.5103 9.70996 17.4742L9.60065 17.4212L9.59981 17.4195Z" fill="#FDFDFD"/>
</svg>
