<svg width="120" height="47" viewBox="0 0 120 47" fill="none" xmlns="http://www.w3.org/2000/svg">
<g clip-path="url(#clip0_5_270)">
<path d="M0.486389 0.763794H9.10223V9.37963H0.486389V0.763794Z" fill="#0068B5"/>
<path d="M8.88758 45.652V14.6227H0.731659V45.652H8.88758ZM63.0969 45.9586V38.3546C61.9011 38.3546 60.8892 38.2933 60.1534 38.1706C59.2948 38.048 58.651 37.7414 58.2217 37.3121C57.7924 36.8828 57.5165 36.2696 57.3632 35.4724C57.2405 34.7059 57.1792 33.6941 57.1792 32.4676V21.6135H63.0969V14.6227H57.1792V2.51146H48.9926V32.5289C48.9926 35.0738 49.2073 37.2201 49.6365 38.9372C50.0658 40.6235 50.8017 42.0033 51.8135 43.0458C52.8253 44.0883 54.1744 44.8241 55.7995 45.284C57.4552 45.744 59.5401 45.9586 62.0237 45.9586H63.0969ZM109.947 45.652V0.119873H101.761V45.652H109.947ZM41.1127 17.6582C38.8437 15.2053 35.6549 13.9788 31.6076 13.9788C29.6453 13.9788 27.867 14.3774 26.2419 15.1746C24.6475 15.9718 23.2678 17.0756 22.1946 18.486L21.7347 19.0686V14.6227H13.6708V45.652H21.796V29.1255V29.7081C21.888 26.7953 22.5932 24.649 23.9423 23.2692C25.3834 21.7975 27.1311 21.0616 29.1241 21.0616C31.485 21.0616 33.294 21.7975 34.4898 23.2079C35.6549 24.6183 36.2682 26.6113 36.2682 29.1562V45.6213H44.5161V28.0217C44.5467 23.6065 43.3816 20.1111 41.1127 17.6582ZM97.5296 30.076C97.5296 27.8377 97.131 25.7528 96.3644 23.7904C95.5672 21.8588 94.4634 20.1417 93.0837 18.67C91.6732 17.1982 89.9869 16.0638 88.0245 15.2359C86.0622 14.4081 83.8853 14.0095 81.5243 14.0095C79.2861 14.0095 77.1704 14.4387 75.2081 15.2666C73.2458 16.1251 71.5287 17.2596 70.0876 18.7007C68.6466 20.1417 67.4814 21.8588 66.6536 23.8211C65.7951 25.7834 65.3965 27.8991 65.3965 30.1373C65.3965 32.3756 65.7951 34.4913 66.5923 36.4536C67.3895 38.4159 68.5239 40.1329 69.9343 41.574C71.3448 43.0151 73.0925 44.1802 75.1161 45.0081C77.1398 45.8666 79.378 46.2959 81.7696 46.2959C88.6991 46.2959 92.9917 43.1378 95.5672 40.1943L89.6803 35.7177C88.4538 37.1895 85.5103 39.1824 81.8309 39.1824C79.5313 39.1824 77.6303 38.6612 76.1893 37.5881C74.7482 36.5456 73.767 35.0738 73.2458 33.2648L73.1538 32.9889H97.5296V30.076ZM73.2151 27.2245C73.2151 24.9556 75.8213 21.0003 81.4324 20.9696C87.0434 20.9696 89.6803 24.9249 89.6803 27.1939L73.2151 27.2245ZM119.268 41.6047C119.115 41.2368 118.901 40.9301 118.625 40.6542C118.349 40.3782 118.042 40.1636 117.674 40.0103C117.306 39.857 116.908 39.765 116.509 39.765C116.08 39.765 115.712 39.857 115.344 40.0103C114.976 40.1636 114.669 40.3782 114.393 40.6542C114.117 40.9301 113.903 41.2368 113.749 41.6047C113.596 41.9726 113.504 42.3712 113.504 42.7698C113.504 43.1991 113.596 43.567 113.749 43.935C113.903 44.3029 114.117 44.6095 114.393 44.8855C114.669 45.1614 114.976 45.376 115.344 45.5293C115.712 45.6827 116.11 45.7746 116.509 45.7746C116.938 45.7746 117.306 45.6827 117.674 45.5293C118.042 45.376 118.349 45.1614 118.625 44.8855C118.901 44.6095 119.115 44.3029 119.268 43.935C119.422 43.567 119.514 43.1684 119.514 42.7698C119.514 42.3712 119.422 41.9726 119.268 41.6047ZM118.778 43.751C118.655 44.0576 118.471 44.3336 118.257 44.5482C118.042 44.7628 117.766 44.9468 117.459 45.0694C117.153 45.1921 116.846 45.2534 116.478 45.2534C116.141 45.2534 115.804 45.1921 115.497 45.0694C115.19 44.9468 114.915 44.7628 114.7 44.5482C114.485 44.3336 114.301 44.0576 114.179 43.751C114.056 43.4444 113.995 43.1378 113.995 42.7698C113.995 42.4325 114.056 42.0953 114.179 41.7887C114.301 41.482 114.485 41.2061 114.7 40.9915C114.915 40.7768 115.19 40.5929 115.497 40.4702C115.804 40.3476 116.11 40.2863 116.478 40.2863C116.816 40.2863 117.153 40.3476 117.459 40.4702C117.766 40.5929 118.042 40.7768 118.257 40.9915C118.471 41.2061 118.655 41.482 118.778 41.7887C118.901 42.0953 118.962 42.4019 118.962 42.7698C118.993 43.1378 118.901 43.4444 118.778 43.751ZM117.061 43.0151C117.306 42.9845 117.49 42.8925 117.643 42.7392C117.797 42.5859 117.889 42.3712 117.889 42.0646C117.889 41.7273 117.797 41.482 117.582 41.2981C117.398 41.1141 117.061 41.0221 116.662 41.0221H115.313V44.4869H115.957V43.0764H116.417L117.275 44.4869H117.95L117.061 43.0151ZM116.724 42.5245H115.957V41.5434H116.724C116.816 41.5434 116.908 41.574 117 41.6047C117.092 41.6353 117.153 41.6967 117.183 41.758C117.214 41.8193 117.245 41.9113 117.245 42.034C117.245 42.1566 117.214 42.2486 117.183 42.3099C117.122 42.3712 117.061 42.4325 117 42.4632C116.908 42.4939 116.816 42.5245 116.724 42.5245Z" fill="black"/>
</g>
<defs>
<clipPath id="clip0_5_270">
<rect width="120" height="46.176" fill="white" transform="translate(0 0.119995)"/>
</clipPath>
</defs>
</svg>
