<svg width="180" height="56" viewBox="0 0 180 56" fill="none" xmlns="http://www.w3.org/2000/svg">
<g clip-path="url(#clip0_5_276)">
<path d="M-1.52588e-05 39.5378V1.68764H6.64851V39.5377H-1.52588e-05V39.5379V39.5378ZM23.6683 12.0789C15.1434 12.0789 9.24443 18.6333 9.24443 26.1354C9.24443 34.508 15.6621 40.2763 23.7345 40.2763C31.3957 40.2763 38.044 34.6147 38.044 26.1173C38.044 18.9722 32.5349 12.0789 23.6683 12.0789ZM23.5899 18.4931C28.0513 18.4931 31.3348 21.9655 31.3348 26.1595C31.3348 30.6064 27.7143 33.8501 23.7101 33.8501C18.9791 33.8501 16.0014 30.1003 16.0014 26.1715C16.0016 21.8652 19.3633 18.4931 23.5899 18.4931ZM54.749 12.0789C46.2244 12.0789 40.3252 18.6333 40.3252 26.1354C40.3252 34.508 46.7429 40.2763 54.8153 40.2763C62.4765 40.2763 69.1247 34.6147 69.1247 26.1173C69.1247 21.1136 66.9578 18.8936 66.9578 18.8936L68.8008 18.2615V12.8655H59.3576C59.3576 12.8655 57.3102 12.0789 54.749 12.0789ZM54.6707 18.4931C59.1319 18.4931 62.4156 21.9655 62.4156 26.1595C62.4156 30.6064 58.7951 33.8501 54.7911 33.8501C50.0599 33.8501 47.0824 30.1003 47.0824 26.1715C47.0826 21.8652 50.4443 18.4931 54.6707 18.4931ZM62.3686 41.3881C62.3686 45.8348 58.7484 49.1028 54.7442 49.1028C50.0129 49.1028 47.0234 45.3165 47.0234 41.3881H40.2783C40.2783 49.7608 46.6958 55.5287 54.7684 55.5287C62.4295 55.5287 69.0778 49.8848 69.0778 41.3881H62.3686ZM71.7878 39.5378V12.8655H78.4367V39.5378H71.7878ZM84.8927 39.5378V18.8399H81.3274V12.8655H84.8927V4.67486H91.5415V12.8655H95.2032V18.8399H91.5415V39.5378H84.8927ZM79.5012 5.29004C79.5012 7.7216 77.5299 9.69287 75.0985 9.69287C72.6665 9.69287 70.6955 7.72148 70.6955 5.29004C70.6955 2.85835 72.6668 0.887085 75.0985 0.887085C77.53 0.887085 79.5012 2.85835 79.5012 5.29004ZM110.151 12.0609C101.586 12.0609 96.0645 18.6184 96.0645 26.3763C96.0645 34.3932 101.605 40.2944 110.29 40.2944C118.391 40.2944 122.377 35.2352 122.377 35.2352L117.932 30.7845C117.932 30.7845 114.576 34.4043 110.374 34.4043C106.871 34.4043 104.07 32.4489 103.093 28.8635H123.81V27.0328C123.81 19.7274 119.582 12.0609 110.151 12.0609ZM109.94 17.9148C113.003 17.9148 116.136 19.5533 116.836 23.4675H102.912C103.463 20.716 105.871 17.9148 109.94 17.9148ZM140.441 40.2979C131.852 40.2979 125.999 33.7558 125.999 26.0426C125.999 18.0825 132.613 12.0559 140.413 12.0559C147.953 12.0559 151.813 17.3787 151.813 17.3787L147.175 21.996C147.175 21.996 144.488 18.5245 140.381 18.5245C135.83 18.5245 132.718 22.0062 132.718 26.1447C132.718 30.5143 136.029 33.8672 140.33 33.8672C144.503 33.8672 147.168 30.4015 147.168 30.4015L151.853 35.016C151.853 35.016 148.031 40.298 140.441 40.298L140.441 40.2979ZM154.272 39.5571V1.59143H160.92V15.5402C160.92 15.5402 163.466 12.0559 169.004 12.0559C175.966 12.0559 180 17.2312 180 23.8505V39.557H173.351V24.8554C173.351 20.4084 170.583 18.5634 167.515 18.5634C164.021 18.5634 160.921 20.5522 160.921 25.1993V39.5571H154.272Z" fill="black"/>
</g>
<defs>
<clipPath id="clip0_5_276">
<rect width="180" height="54.648" fill="white" transform="translate(0 0.884033)"/>
</clipPath>
</defs>
</svg>
