<svg width="160" height="101" viewBox="0 0 160 101" fill="none" xmlns="http://www.w3.org/2000/svg">
<g clip-path="url(#clip0_5_273)">
<path fill-rule="evenodd" clip-rule="evenodd" d="M66.2985 19.177C67.5927 18.6509 68.1102 18.0231 69.6671 17.9828C70.2307 17.3673 72.064 17.1431 72.3203 16.4841C72.5093 15.998 72.4022 15.9481 72.9044 15.6625C73.5014 15.3232 74.4811 15.2067 75.2388 15.2413C76.4676 15.2975 77.3969 14.9253 77.6458 15.5024C77.261 15.6729 77.0043 15.603 76.699 15.8803C76.3569 16.191 76.5881 16.0175 76.1682 16.1879C75.8206 16.3288 76.0882 16.2629 75.8335 16.4085C75.7164 16.0856 75.3601 15.7288 74.9088 15.7285C74.8355 15.7285 73.5266 15.9661 73.4825 15.9803C73.7181 17.243 74.7376 15.5039 75.3998 17.4201C75.415 17.402 75.428 17.3445 75.4336 17.3577C75.4391 17.3709 75.4592 17.3102 75.4667 17.2966C75.6476 16.971 75.4991 17.1052 75.6549 17.0076C75.8556 17.2873 76.0117 17.8769 76.2461 16.987C76.6724 17.405 77.5002 16.9816 78.372 16.7237C78.9081 16.5649 80.0345 16.0866 80.6183 16.1972C80.5415 16.6577 79.9245 16.7556 79.8433 17.2096C80.2425 17.1646 80.79 16.7217 81.2877 16.5626C82.6148 16.1385 84.0862 16.2548 85.3849 16.2761C86.129 16.2882 86.8514 16.2132 87.5957 16.2883C87.9401 16.3195 88.2639 16.3891 88.5901 16.4334C89.2408 16.5217 90.8965 16.5142 91.2722 17.1815C91.2845 17.2033 91.3154 17.2772 91.3245 17.2976L91.3725 17.4182C91.9218 17.2699 91.9523 17.3308 92.5009 17.4536C94.8769 17.985 92.872 18.1484 94.1334 18.6473C95.9446 19.364 97.4558 20.5211 97.7774 20.6658C98.3598 20.9278 98.285 20.0785 99.742 21.1018L102.354 22.7343C103.644 23.4679 104.581 25.3402 105.181 25.5452C104.829 25.0137 103.404 23.6802 103.44 22.9115C104.576 22.5449 105.517 24.3749 106.337 25.4827L108.559 29.0041C108.881 29.3891 108.675 28.9482 108.827 29.3903C109.005 29.9089 109.296 30.2464 109.723 30.6644C109.928 30.8655 110.292 31.0217 110.414 31.3832C110.892 32.805 111.422 32.2743 111.888 34.1622C112.097 35.0101 112.485 35.5706 112.623 36.4068C113.997 40.9882 115.524 46.8539 115.763 52.544C115.79 52.5187 115.827 52.4853 115.9 52.4362C115.947 52.9393 115.88 53.2438 115.99 53.7592C116.105 54.2994 116.103 54.4817 116.021 55.051C115.836 56.3312 116.306 55.3928 115.632 57.5299L115.592 57.5774C115.362 59.4673 114.927 61.2838 114.224 62.9658C113.05 66.6042 112.714 68.1933 110.695 71.3319C110.077 72.2933 110.593 71.7885 109.569 73.1177L108.234 74.7749C107.6 75.6542 107.976 75.4325 106.926 76.4605C106.473 76.9047 105.896 77.426 105.562 78.113L104.208 79.4811C103.926 79.7168 103.846 79.6732 103.837 80.0977C103.397 79.9466 103.717 79.9472 103.324 80.3389C102.804 80.8561 101.833 81.2529 101.412 81.9218C100.983 81.861 101.004 81.7495 100.587 82.1724C100.57 82.1895 100.526 82.2419 100.509 82.259L100.421 82.3408C100.397 82.3616 100.274 82.4513 100.229 82.4891C100.077 82.6143 100 82.7104 99.8821 82.8359C100.367 82.8007 100.355 82.6081 100.766 82.8614L101.098 83.0284C100.749 83.328 100.8 83.5379 100.247 83.5463C100.453 83.23 100.449 83.4288 100.617 83.0798C100.193 83.1351 99.9596 83.3494 99.6015 83.5232C99.4087 83.617 99.6668 83.5423 99.4462 83.5673C99.2022 83.5951 99.5897 83.5408 99.2643 83.5594C98.9501 83.5774 98.9505 83.6468 98.7469 83.9124L98.5117 84.1765C98.038 84.5665 97.5386 84.8404 97.0437 85.1229C96.533 85.4144 96.2765 85.4755 95.7947 85.8607C95.7878 86.2194 95.9238 86.1977 95.7426 86.4024L96.145 86.4796C95.4753 86.9181 95.7686 86.2133 94.9423 86.9289C94.7224 87.1194 94.7317 87.0897 94.6798 87.4415L96.0034 86.9789C95.8335 87.0609 95.6834 87.189 95.4755 87.292C95.0083 87.5234 95.1351 87.3097 94.9448 87.7578C94.5768 87.38 94.3598 87.817 94.1442 88.182C94.4427 88.1198 94.4564 88.0006 94.7056 88.0974C94.5386 88.1757 94.1829 88.2606 94.039 88.4392C93.8049 88.73 94.024 88.9038 93.6251 89.071L93.8382 88.5445C93.1558 88.5151 93.6556 88.7648 93.1866 89.0011C92.7449 89.2238 92.8426 88.9408 92.4172 89.3946C92.1433 89.6868 92.2186 89.3571 92.1949 89.7726C92.1715 90.1827 92.2914 90.0653 92.5234 90.2865L92.6883 90.4336C92.8354 90.557 92.7432 90.4664 92.8695 90.6476C93.3477 90.6767 93.4302 90.6224 93.591 90.4063C93.8301 90.0852 93.4177 90.4027 93.7621 90.1674C94.2277 90.1035 94.3052 90.2635 94.6338 90.3531C94.9309 89.8864 94.6292 90.2013 95.1063 89.9978C95.3062 89.9125 95.4412 89.804 95.7279 89.7444C95.7116 89.7609 95.6905 89.766 95.6833 89.7977C95.6416 89.9777 95.3467 90.0977 95.2191 90.2041C95.2056 90.2154 95.1875 90.232 95.1746 90.2439C94.7097 90.6708 95.0485 90.5218 94.3111 90.5642C94.3007 90.5648 94.2746 90.5648 94.2574 90.5701L94.2586 90.666C94.2853 90.8914 94.4068 90.734 94.2277 91.0302C93.8891 91.5897 93.9846 91.0388 93.7982 91.4279C93.8916 91.8136 94.0657 91.7702 94.4495 91.7849L94.59 92.0929C94.6167 92.0834 94.7284 91.9296 94.7445 91.9217C94.9792 91.8052 95.0392 91.9929 95.5523 91.6233C95.9445 91.3409 96.0123 91.1525 96.5613 90.9664C97.0329 90.8067 97.7962 90.7832 97.9675 90.2893C98.1038 89.8967 97.8892 90.1832 97.9546 89.7833C97.9678 89.7024 98.0059 89.5694 98.0201 89.4395L98.7238 89.3C98.662 89.27 98.5504 89.1887 98.4681 89.0995C98.5149 89.0526 98.5543 89.0217 98.589 88.9872L98.7404 88.8296C98.276 88.8888 98.4799 88.89 98.2018 89.1731L97.9686 88.7643L97.794 89.1339C97.704 89.2966 97.7675 89.2489 97.5491 89.3159C97.5545 89.3002 97.571 89.2616 97.5735 89.2724L97.668 88.9687C97.0631 88.9531 97.4419 89.1802 97.1366 89.4578C96.6574 89.8933 96.7263 89.231 96.681 90.1784C96.0805 90.1778 96.5274 90.3869 96.1126 90.5615C95.8928 90.1403 96.2807 90.6201 96.0757 90.2928C95.9502 90.0923 96.2009 90.3267 95.9574 90.1902C95.9412 90.1812 95.9124 90.1725 95.896 90.165C95.8757 90.1557 95.7819 90.1334 95.7572 90.1211C95.7717 90.1028 95.7935 90.0524 95.8004 90.0662L95.9901 89.792C96.0417 89.697 96.1192 89.5637 96.0561 89.3931C95.506 89.2345 94.9324 89.9485 94.4222 89.9696C94.7014 89.8201 95.7633 89.1042 96.1463 89.0715C96.7371 89.0209 96.1083 89.4416 97.5242 88.7649C98.224 88.4307 98.1466 88.4772 97.8384 87.852C98.1214 87.6393 98.4784 87.5715 98.8354 87.3925C99.0714 87.2741 99.1155 87.1666 99.4474 87.102C99.1939 88.3039 98.6783 87.2458 98.1373 88.2677C98.4813 88.4868 98.0657 88.3111 98.536 88.3431C98.7341 88.3566 98.7181 88.3701 98.9238 88.417C98.8985 88.145 98.9039 88.2114 98.7793 88.0379L99.1033 87.9358C99.2197 88.2113 98.8751 88.1063 99.264 88.2423C99.3038 88.1733 99.639 87.4276 99.6711 87.3317C99.687 87.3488 99.7038 87.3566 99.7108 87.3895C99.7177 87.422 99.7405 87.4336 99.7506 87.4465C99.949 87.7048 100.019 87.7357 100.377 87.6846C100.402 87.681 100.47 87.6687 100.492 87.6654C100.506 87.6633 100.533 87.6593 100.545 87.6573C100.557 87.6557 100.588 87.6519 100.597 87.6506C100.607 87.6494 100.632 87.6491 100.649 87.6452C100.679 87.4881 100.64 87.1737 100.528 86.9928C100.224 86.5047 100.41 87.1929 100.244 86.7286C100.336 86.6446 100.725 86.4193 100.937 86.3916L101.103 86.7632L101.754 86.3989C101.645 86.8898 101.47 86.6516 101.125 87.0201C101.209 87.2752 101.004 87.0859 101.415 87.2346C101.07 87.465 101.338 87.4241 101.103 87.8035L100.936 87.4592L100.656 87.8975C100.502 88.1874 100.38 88.2864 99.9383 88.3503C99.8074 88.1201 99.841 88.0114 99.5918 87.9263C99.3914 88.5383 99.82 88.7907 98.7796 88.6438L98.9634 89.574C99.581 89.4596 99.5232 89.0614 100.174 89.0871C100.233 88.2162 100.221 88.5376 100.936 88.4883C101.231 88.1424 101.092 87.9545 101.83 87.9844C101.749 88.3413 101.737 88.269 101.485 88.402L101.679 88.5215C101.846 88.6435 101.765 88.5049 101.87 88.6898L101.266 88.8668L101.362 89.0758C101.368 89.5932 101.17 88.7529 101.352 89.1928C101.898 89.0371 101.893 88.9529 102.415 89.1688L102.572 88.706C103.21 88.7519 103.286 88.5203 103.539 88.8207C102.991 88.9858 102.151 89.3387 101.513 89.5849C100.897 89.8231 100.075 90.2175 99.4223 90.3609C99.47 90.8178 99.5994 90.4378 99.4213 90.7332C98.7935 90.7844 99.4217 90.7064 99.1239 90.578C98.9312 90.4949 98.9088 90.5647 98.7809 90.6759C98.3627 91.0396 98.675 90.8775 98.0363 91.0108C97.5212 91.1185 97.0823 91.47 96.5371 91.6701C95.4375 92.0736 96.773 91.8883 95.1156 92.2471C93.873 92.5162 94.3814 92.6622 93.7448 92.993C93.73 93.0008 93.7 93.0098 93.6799 93.0227C94.0447 92.9803 94.1116 92.8237 94.2778 92.9251C93.9188 93.3957 92.7469 93.4228 92.5015 93.4656C92.0996 93.5358 90.9342 93.7555 90.7901 94.0893C91.1024 94.2335 91.4067 93.9988 91.8524 94.0084C91.6294 94.3279 91.5597 94.1328 91.1251 94.5033L90.8517 94.7722C92.2321 94.5605 92.14 94.2199 92.4136 93.9638C92.6166 93.7736 92.7201 93.8096 92.9301 93.6734L93.0494 93.746C93.3984 93.981 93.4782 94.051 94.3222 93.8144C95.2446 93.5557 94.8687 93.6187 95.1626 93.3868C95.2881 93.2877 95.3133 93.2796 95.5138 93.2783L95.2344 93.5506L95.8412 93.5728L95.7169 93.938C95.6779 94.1818 95.879 94.1829 95.5042 94.3091C94.9969 94.4799 94.758 94.2713 94.3372 94.1954C93.8309 94.1044 93.716 94.2827 93.354 94.4111C92.9484 94.5549 91.3983 94.6878 90.3298 95.2918C90.1235 95.4085 89.7465 95.6272 89.5278 95.7395C88.9376 96.0429 88.6526 96.0079 88.583 96.3339L88.6294 96.8249C88.8213 97.1713 88.642 96.8647 88.7945 97.0163C88.9792 96.8443 89.0101 96.9564 88.9163 96.7381C88.7522 96.3572 88.9699 97.0221 88.7096 96.5763C89.0277 96.462 89.1129 96.3348 89.3767 96.1609C89.4519 96.2861 89.4917 96.1172 89.4146 96.4538C89.2616 96.2348 89.3777 96.3179 89.0877 96.3647L89.074 96.9843C89.5179 96.877 89.7405 96.625 90.0081 96.3845C90.5014 95.941 90.396 96.0897 91.0057 96.0613C91.0143 95.8262 90.9703 95.7987 90.8634 95.6539L91.521 95.6937C91.472 96.0622 91.2877 96.0075 91.3107 96.4724C92.0145 96.4223 93.115 96.113 93.7781 95.9191C94.2323 95.7864 94.5701 95.6744 94.9717 95.5243C95.5124 95.3221 95.8064 95.3604 95.6324 94.7467L95.2812 95.1044C95.0008 95.0804 95.0132 95.0979 94.8256 94.921C94.9396 94.732 95.596 94.5443 95.8599 94.4201C96.5148 94.1118 96.5526 94.2269 96.8614 94.6729C97.1624 94.6269 97.2294 94.5593 97.5013 94.4808C97.9632 94.3475 97.9887 94.493 98.2382 94.4439C99.3448 94.2271 99.0023 93.8472 99.6921 93.784C100.623 93.6986 100.177 93.4399 100.764 93.3387C101.013 93.2958 101.056 93.2624 101.257 93.159C101.567 93.0002 101.822 92.8726 102.128 92.7044C102.906 92.2761 102.832 92.4998 102.891 92.1493C103.927 91.9494 103.831 92.2089 105.014 91.4351L110.25 87.9482C110.346 88.063 110.405 88.1621 110.587 88.1708C110.78 88.1801 110.765 88.1075 110.971 88.0253C110.836 88.4563 110.731 88.2294 110.625 88.5565C110.828 88.5173 112.859 86.5997 113.044 86.4031C113.636 85.7743 114.291 85.5301 115.551 84.1705C116.056 83.6264 116.43 83.8127 116.987 83.2779C117.359 82.9204 117.776 82.5114 118.112 82.0753C118.625 81.4102 118.438 81.2223 119.303 80.9236C119.705 80.7847 120.111 79.959 120.327 79.5633C120.335 79.5436 120.337 79.488 120.339 79.5003C120.341 79.5123 120.348 79.4511 120.35 79.4396C120.427 79.0645 120.353 79.3146 120.857 78.8316C121.156 78.5453 121.312 78.4448 121.537 78.0149C121.973 77.1826 122.258 76.7691 123.211 76.8668C123.84 75.1456 124.516 74.7181 125.065 73.2373C125.403 72.327 125.448 72.8462 125.782 72.1261C126.173 72.2024 125.907 72.1375 126.199 72.4007L126.982 69.8952C127.074 69.671 127.282 69.4023 127.412 69.1655C127.626 68.7738 127.474 67.8086 127.506 67.225C127.529 66.8052 127.668 66.7958 127.809 66.49C127.967 66.1445 127.938 65.8655 128.04 65.554C128.133 65.2718 128.279 65.1787 128.42 64.8552C128.515 64.636 128.591 64.3011 128.733 64.0867C129.194 63.3911 129.681 63.3796 129.495 62.6918C129.281 61.9027 128.934 62.7319 129.384 61.1581C129.973 59.1 129.897 60.4158 130.313 59.8056C130.379 59.1123 130.461 58.4646 130.567 57.7739L130.78 54.4162C130.765 53.8334 130.929 53.8558 130.996 53.3994C131.126 52.5163 130.803 52.9194 131.201 52.4211C131.446 52.1142 131.47 51.8587 131.314 51.4147C131.219 51.1447 130.979 50.8794 130.905 50.6437L130.696 48.5194C130.78 48.0742 131.027 48.1163 131.095 47.6673C131.148 47.3109 131.096 46.9193 131.234 46.6245C131.503 46.0537 131.47 46.4037 131.416 45.6745C131.386 45.2763 131.486 44.8839 131.466 44.607C131.418 43.9434 131.251 44.7451 131.387 43.6095C131.247 43.4404 130.993 43.3248 130.928 43.0697C130.839 42.7205 131.004 42.6209 130.849 42.1428L130.399 39.5988C130.367 39.0396 130.425 39.1996 130.199 38.7971C129.914 38.2884 129.949 37.6409 129.746 37.249C129.548 36.7453 129.548 36.9572 129.508 36.3068C129.486 35.9287 129.388 35.6176 129.274 35.3103C128.88 34.2529 129.016 34.1693 128.511 33.5465C128.628 33.1856 128.747 33.2928 128.627 32.9717C128.566 32.8113 128.4 32.606 128.328 32.3515C128.172 31.8002 128.416 32.0325 128.001 30.8523C127.906 30.5813 127.81 30.4472 127.725 30.2148C127.634 29.9651 127.632 29.7097 127.526 29.4906C127.42 29.2706 127.273 29.1779 127.14 28.9626C127.007 28.7483 126.938 28.5794 126.849 28.3374L126.469 28.3411C126.59 27.9455 126.822 27.8711 126.662 27.4565C126.531 27.1162 126.3 27.0574 126.145 26.8037C125.591 25.8993 126.126 25.7928 124.996 24.4569C124.416 23.7717 125.13 24.1738 123.615 22.2611C122.112 20.3624 123.097 20.9687 122.403 19.9809C122.224 19.7264 122.135 19.4952 121.95 19.2686C121.713 18.9783 121.585 19.037 121.32 18.7322C120.75 18.0779 121.054 18.4753 120.71 18.1796C120.423 17.9335 120.518 17.7387 120.275 17.4515C120.084 17.2252 119.837 17.1949 119.512 16.9969C119.35 16.3635 119.881 16.1066 119.147 15.7485C118.604 15.483 118.582 15.3523 118.256 14.8958C117.83 14.3004 117.322 13.2855 116.488 13.1919L116.429 13.0611C116.302 12.7822 116.419 12.8561 116.204 12.7048C116.041 12.5901 115.827 12.6126 115.58 12.597C115.348 11.8277 115.067 11.7759 114.597 11.3199C114.109 10.8455 112.63 9.77299 112.012 9.41623C111.609 9.18363 111.662 9.07056 111.371 8.88371C111.086 8.70135 110.901 8.65291 110.625 8.47295C110.103 8.13418 109.741 7.92648 109.247 7.60541C108.972 7.42725 108.788 7.29498 108.489 7.18971C108.192 7.08533 107.796 7.11038 107.562 6.96791C107.058 6.65958 107.83 6.56736 104.747 5.20808C104.253 4.99003 100.437 3.33457 100.147 2.98111C99.8712 2.64579 100.074 2.6119 99.4949 2.47333C99.1488 2.39055 98.8767 2.35351 98.5402 2.26068C97.9908 2.10937 97.3362 1.93511 96.7415 1.82248C95.7891 1.64208 95.6554 1.86117 94.8719 1.35459C94.3646 1.02647 93.6983 1.03982 93.034 0.95494C91.6954 0.78383 91.2857 0.969786 90.858 0.907701C90.4095 0.683504 89.2391 0.631316 88.6561 0.733142C87.618 0.914299 86.7226 0.390474 85.3231 0.625918C84.7036 0.729993 84.8095 0.640314 84.3384 0.505046C83.8452 0.36348 77.4881 0.259555 76.9906 0.298095C75.7118 0.397222 74.8303 -3.37213e-05 73.614 0.326439C73.1444 0.452559 73.248 0.682004 72.9106 0.950591C72.1651 0.918348 72.9604 0.717996 72.1639 0.726694C71.6858 0.731942 71.8308 0.91295 71.4123 0.95359C68.5971 1.22668 69.9543 1.3195 69.1655 1.46797C68.6006 1.57429 68.0972 1.48356 67.1869 2.171C67.0449 2.20234 65.8583 2.51337 65.7901 2.54891C65.5373 2.68058 65.5908 2.8112 65.174 2.85079C64.8078 2.88558 64.0168 2.63229 62.948 3.12073C62.4444 3.35092 62.3886 3.76317 61.8427 3.82601C61.2568 3.89334 60.9419 4.06595 60.4044 4.15563L58.861 4.45031C58.7053 4.52619 58.5749 4.7051 58.3958 4.81397C57.8624 5.13805 57.4473 4.896 56.8596 6.00289C56.2588 6.01729 55.9577 5.86237 55.4136 6.15226C54.8507 6.45218 54.9231 6.63694 54.8259 7.31718C54.0026 7.58307 53.1157 7.81566 52.7207 8.38897C52.3274 8.40967 51.7632 8.75939 51.4646 9.10491C50.5809 10.1272 50.9175 9.7568 50.2245 9.92776C49.5262 10.0999 49.5406 10.7292 49.2034 10.9094C48.6303 11.2161 48.6603 10.7478 48.0877 11.5565C47.8653 11.8707 47.9221 11.5889 47.6597 11.9568C46.9346 12.9729 46.9237 12.2447 45.556 13.4276L43.6594 15.0184C43.4469 15.2127 43.5022 15.1311 43.3787 15.3731C43.2062 15.4192 43.3344 15.3467 43.1404 15.501L42.5408 16.1507C41.9524 16.7966 42.1887 16.329 41.721 17.0752C41.345 17.6749 40.6795 17.8808 39.9247 18.7731C39.3907 19.4046 38.8731 19.9233 38.387 20.6459C38.185 20.9461 38.2532 20.8561 37.9906 21.0697C37.7736 21.2462 36.9896 22.1682 37.1139 22.6999C36.3212 22.7193 36.6313 23.1456 35.9442 24.0234C35.274 24.8795 34.4375 26.2509 33.8105 27.0459C33.3832 27.5876 33.1052 27.8801 32.7951 28.6411C32.2749 29.1382 31.4286 30.5123 31.2167 31.266C31.057 31.8338 30.9279 32.3717 30.7877 32.9098C30.7149 33.1892 30.6094 33.4278 30.4927 33.7103C30.2965 34.1851 30.3823 34.1127 30.3133 34.618C30.2457 35.1135 30.1238 34.8451 30.0488 35.3752C29.9837 35.8358 30.0156 35.8056 29.8378 36.2131C29.4257 37.1568 29.8291 37.5193 29.6829 37.8928C29.637 38.0101 29.3937 38.2706 29.2819 38.4879C29.0712 38.897 29.1803 38.934 29.0914 39.3596C29.0148 39.7257 28.3371 40.5878 28.8692 40.8227C28.5129 41.0647 28.5466 41.0587 28.4886 41.5729C28.42 42.1803 28.3167 43.9712 28.7831 44.4031L28.9962 44.5476C28.1697 45.6949 28.369 45.8211 28.4337 47.1021C28.4595 47.6113 28.2995 47.6931 28.2968 48.1802C28.2926 48.8969 28.4713 49.5833 28.4463 50.3454C28.4206 51.1284 28.2783 51.7726 28.3747 52.5385C28.5 53.5334 29.2159 54.9001 29.5494 55.9541C29.9701 57.2829 30.2557 58.1172 30.4631 59.5933C30.5443 60.1703 30.886 61.0151 30.8262 61.4677C30.7004 62.419 30.0863 62.1707 30.7755 63.1251C31.3844 63.9682 31.0669 65.8208 31.7374 67.2422C31.9674 67.7299 31.6194 67.3188 31.9793 67.9901L32.5291 69.1871C32.7777 69.6205 32.6348 69.7421 32.7988 70.0756C33.0089 70.5026 33.7277 71.2407 34.1271 72.1591C34.3432 72.6558 34.3591 72.4344 34.746 72.7165C34.6704 72.7702 34.8004 72.7048 34.5789 72.8113C34.4888 72.8545 34.5288 72.8222 34.4111 72.883C34.4264 73.7339 34.6413 73.5302 34.7665 73.8304C34.867 74.0716 34.6061 73.9432 34.8733 74.2451C35.0269 74.4184 35.0285 74.2517 35.2388 74.5462C35.1056 74.6588 34.9711 74.623 34.7919 74.6004C34.8235 75.1377 36.1205 76.8732 36.5563 77.1296C37.0356 77.4119 36.6715 77.3537 37.0686 77.706C37.3384 77.9452 37.4158 77.962 37.6727 78.2646C37.9417 78.5815 38.4595 79.2067 38.6278 79.5579L38.9861 79.1948C39.0772 79.744 39.0955 79.7443 39.4175 80.0138C39.793 80.3279 39.7266 80.5485 39.9496 80.7274C40.3149 81.0202 40.4895 80.699 40.7513 81.1784C40.8885 81.4293 40.9478 81.8318 41.1054 82.0732C41.3365 82.4274 42.0764 82.8767 42.4035 83.2651C42.7685 83.6987 43.2083 84.3774 43.5505 84.6958C43.8134 84.9406 43.756 84.7678 43.9578 84.9455L44.0709 85.0824C44.1544 85.174 44.1474 85.1629 44.2444 85.2457C44.4769 85.4443 44.8447 86.0317 45.4293 86.5594L46.6921 87.7849C46.9372 88.0204 47.0089 88.2887 47.2359 88.4949L48.9221 89.968C49.203 90.226 49.0161 90.0564 49.3416 90.2173C49.7739 90.4312 49.5934 90.6218 49.8861 90.9174C50.0408 91.0736 50.3994 91.2495 50.6017 91.4494C51.0435 91.8855 51.2852 92.4262 51.7984 92.7492C52.3569 93.1007 53.0766 93.9105 53.8712 94.5017C54.7953 95.1891 55.0579 96.1831 56.7793 96.5818L59.7914 97.3212C60.4115 97.4953 60.4655 97.3514 61.0181 97.4077C61.2795 97.5933 61.2303 97.6857 61.477 97.8693C61.6329 97.9854 61.9074 98.0761 62.0855 98.1824C62.6217 98.5021 63.1185 98.3373 63.5313 98.5626C63.7435 98.6783 63.8125 98.871 63.9916 99.0173C64.2593 99.2357 64.3263 99.1573 64.6316 99.2948C65.1 99.5058 64.7646 99.7602 65.7862 100.05C67.0638 100.413 67.7504 100.321 69.1082 100.265C70.2379 100.219 70.8205 100.405 71.1212 99.8792C71.2253 99.697 70.8697 99.9122 71.2077 99.7716C71.6006 99.6081 71.422 100.123 71.397 100.318C71.9291 100.416 73.4921 100.399 74.004 100.263C75.1836 99.9506 76.4737 100.05 77.598 99.534C78.4925 99.1233 78.3991 99.5937 79.7221 98.7407C80.2219 98.4184 80.3741 98.5026 81.0023 98.4931C81.1144 98.0596 81.5955 97.6419 82.1416 97.6611C82.2733 97.8768 82.1935 98.0251 82.3079 98.2212C82.8559 97.5127 82.5155 97.7222 82.5723 97.0134C83.1048 96.7499 83.6092 96.4247 84.1048 96.1379C84.4893 95.9152 84.6042 96.0886 84.8435 95.7125C84.9963 95.4724 85.1597 95.1335 85.2876 94.9088C85.7159 94.1571 86.1281 94.1619 86.4642 93.6712C86.6672 93.3747 86.6573 93.182 86.9231 92.8831C87.5094 92.2234 86.9207 91.7036 87.7366 90.0354C88.6021 88.2665 87.091 88.6457 86.8292 87.7353C86.6606 87.1489 87.3734 86.5384 86.6205 85.9446C86.1973 85.6109 86.1998 85.9248 85.6344 85.8735C85.2069 85.6518 84.9932 85.0971 84.7455 84.7729C84.3522 84.7131 84.1504 84.779 83.8229 84.7439L83.3382 84.404C83.3304 84.3918 83.319 84.3645 83.3058 84.347C81.7171 84.4969 82.2028 83.7962 81.7496 83.5943C81.0757 83.5472 80.5779 83.5285 79.9787 83.3659C79.1999 83.1546 79.1159 82.8908 78.4823 83.3721C77.8189 83.0413 77.3629 83.2984 76.667 83.1866C75.8443 83.054 75.6876 83.1371 74.9322 83.391C74.7604 84.6058 74.1727 84.3137 74.0537 83.7884C74.0474 83.7605 74.0318 83.6721 74.0264 83.6481L73.9917 83.5166C73.1459 83.525 72.2819 83.7053 72.0876 82.8628C72.2759 82.6148 72.3641 82.5975 72.6802 82.4663L73.2336 82.2841C73.4074 82.2217 73.345 82.2592 73.4266 82.1974C73.1037 81.953 73.1277 82.0846 72.741 82.126C72.3923 82.1634 72.1942 82.093 71.8365 82.1319C71.6506 82.3905 71.5213 82.7506 71.3304 83.0227C70.5128 83.1282 70.4864 82.6444 70.2168 82.1538C70.038 81.8282 69.3952 81.5541 68.9299 81.4513C68.8236 82.1034 68.9876 82.2005 68.3585 82.3768C67.2073 82.6993 66.9958 82.1607 66.3046 81.4848C65.9159 81.1046 65.601 81.276 65.1525 81.061L64.1895 80.5226C63.8878 80.3548 63.5571 80.0852 63.2614 79.8713C62.0798 79.0164 60.9585 78.0161 59.976 77.0028C59.5597 76.5734 58.9472 75.6092 58.5521 75.3479C57.8117 74.8583 58.0299 74.6354 57.564 74.0915C57.3426 73.8331 57.254 73.8828 57.0842 73.7375C56.8405 73.529 56.9902 73.5494 56.8378 73.2429C56.6931 72.952 56.6321 73.0172 56.4118 72.8309C56.1442 72.6048 56.0031 72.2419 55.6957 71.9493C54.9873 71.9712 55.0279 71.9785 54.5081 71.4097C54.1887 71.0601 53.9402 70.7392 53.6568 70.3481L52.7991 69.2948C52.4946 68.838 52.6378 68.2807 52.0327 68.0402C51.9965 68.5514 52.0589 68.8233 52.0465 69.2444C51.4863 69.6422 51.3115 69.1875 50.7502 68.5974C50.3348 68.1607 50.0378 67.8022 49.5821 67.3559C48.1264 65.9308 48.2111 65.7799 48.1062 64.0012C47.931 64.1757 48.0507 64.0913 47.9668 64.2368C47.7618 64.5926 48.064 64.3762 47.712 64.5101C47.4444 64.3305 47.6207 64.4828 47.4931 64.1202C47.347 63.7054 47.017 63.4039 46.997 62.9363C44.8639 59.0688 42.6914 52.1393 43.7345 44.6718C43.8215 43.678 43.7786 44.0862 44.38 43.8596C44.672 42.9607 44.7835 39.6888 44.8867 39.2149C45.1232 38.1301 46.2436 35.7491 46.2571 35.439C46.8471 34.8748 46.5108 34.4219 48.0343 33.2036C48.522 32.8135 48.6652 32.7537 49.0371 32.2111C49.3389 31.771 49.5772 31.4676 49.8634 31.0429C50.164 30.5968 50.4972 30.3769 50.8375 30.0201C51.8046 29.0062 51.3509 29.2061 52.345 28.5313C52.5803 28.3716 52.8354 28.2825 52.9867 28.181L53.9252 27.0811L55.7885 25.4891L60.8518 21.9873C61.2253 21.7658 61.6586 21.5983 61.9746 21.372L62.0138 21.227C62.0197 21.2079 62.0438 21.1165 62.053 21.0929C62.1559 20.8272 62.2261 20.8104 62.7625 20.5632C63.1524 20.3837 63.4844 20.2345 63.9052 20.0516C64.5677 19.7635 65.8612 19.5327 66.2983 19.177H66.2985ZM85.088 15.8235C85.4956 15.7521 85.3564 15.6646 85.7735 15.5549C85.9927 15.4971 86.3063 15.47 86.5884 15.436L86.6443 15.1683C85.5505 14.1127 85.299 14.9957 84.6354 14.6773C83.7798 14.2668 83.096 14.596 82.3432 14.369C82.0432 14.2785 81.5188 13.7493 80.3067 14.1658C79.5892 14.4123 78.7143 14.1311 77.8211 14.1404L78.0531 14.9546C78.355 14.9207 79.4741 14.7053 79.723 14.8352C79.5274 15.1801 79.0732 15.0477 78.4732 15.0622C77.9303 15.0756 78.1157 15.0861 78.0666 15.1449C77.6634 15.8836 79.3377 15.6532 79.8037 15.5778C81.5116 15.3014 81.3135 15.0462 81.6511 15.7309C82.0978 15.7719 82.2643 15.732 82.66 15.6814C83.1531 15.6185 83.7951 15.9817 84.6594 15.8873C85.1749 15.8311 84.7775 15.6509 85.088 15.8233V15.8235ZM53.2331 75.157C53.0358 75.0489 53.1354 74.8586 52.9112 74.5867C52.1706 73.6892 52.6312 74.6437 52.2356 73.1893C52.1301 72.8018 51.9823 72.7478 51.9466 72.384L52.4548 72.0547C52.3743 71.6197 52.3641 72.0955 52.1259 71.1452C52.0373 70.7914 51.8094 70.6534 51.3943 70.6669C50.9597 71.278 51.1069 71.6549 50.6065 71.8109C50.5377 71.6618 50.4426 71.4349 50.3793 71.1987C50.2476 70.7074 50.3735 71.085 50.5438 70.6614C49.2168 70.4885 49.5842 71.1102 50.044 71.7158C50.3889 72.1702 50.6732 72.6514 50.9972 73.0079C51.3485 73.3946 52.8191 75.148 53.2333 75.157H53.2331ZM101.569 90.8463C101.579 90.4375 101.585 90.6626 101.693 90.5318L101.918 90.3472C101.6 90.1632 100.903 91.0108 100.691 91.1828C100.373 91.4397 99.5978 91.9271 99.0452 91.6778C99.2049 91.5172 99.8071 91.3682 100.042 91.2815C99.9151 91.1897 100.052 91.2375 99.8412 91.2001C99.7173 91.178 99.6701 91.1834 99.5424 91.1953C97.4431 91.3914 98.3472 92.1705 96.6966 92.9239C97.1451 93.2015 98.1869 92.5247 98.4913 92.3113C99.066 91.9088 99.899 91.9649 100.649 92.155C100.309 92.476 100.301 92.2584 99.9877 92.4263C100.58 92.9287 101.064 92.6378 101.442 92.1769C101.249 92.0514 101.107 92.2513 100.713 91.9059C100.854 91.6164 103.868 90.1759 104.243 89.8769C102.957 89.7904 103.377 90.1862 102.815 90.3166C102.054 90.4927 102.059 91.1177 101.569 90.8464L101.569 90.8463ZM98.4586 84.8728L98.3759 85.3107C98.6572 85.375 98.5801 85.3227 98.6669 85.326C98.9517 85.3368 98.795 85.2771 98.9235 85.3574C98.7283 85.7331 98.8172 85.1039 98.3882 85.6302C97.9906 86.1178 98.1944 85.7637 97.8036 86.0525C97.7001 86.129 97.6406 86.2053 97.6175 86.3667L97.6392 86.6542C97.7109 86.9667 97.7583 87.0511 98.1923 87.2629C98.3843 87.04 98.4289 86.9973 98.2517 86.7713C98.2724 86.7601 98.3075 86.7268 98.3172 86.7449C98.3174 86.7452 98.5126 86.722 98.6032 86.5219L98.2003 86.4661C98.9967 86.2371 99.0453 86.4078 99.8701 85.9555C100.362 85.6859 100.794 85.3492 101.256 85.0905C100.881 84.9013 101.022 85.2345 100.831 84.8587C100.927 84.67 100.895 84.7687 101.005 84.6649C101.066 84.6078 101.027 84.709 101.176 84.5219L100.277 84.9315C100.148 84.6841 99.9081 84.3837 100.413 84.3734C100.878 84.3639 101.005 84.5424 101.122 83.982L99.584 84.4893C99.2428 84.6384 99.5501 84.4127 99.2737 84.6877C98.6653 85.2931 98.8665 85.0893 98.4588 84.8728H98.4586Z" fill="url(#paint0_linear_5_273)"/>
<path fill-rule="evenodd" clip-rule="evenodd" d="M0.205322 41.7821H10.767C12.0687 41.7821 20.8155 41.5995 21.2446 41.892C21.4782 42.1432 21.3908 42.6828 21.3903 43.1427C21.3897 43.9181 21.5213 46.7375 21.2455 46.9724C20.8071 47.1934 2.4143 47.0645 0.205322 47.0645V62.9817L5.51301 62.9776L5.51331 52.3843L15.2721 52.3708L21.3999 62.9776L27.508 62.9832C27.1664 62.032 21.6622 53.048 21.4884 52.3765C23.4221 52.3179 24.6365 51.4535 25.4887 50.4628C26.6571 49.1044 26.7175 47.8503 26.7175 45.7209C26.7175 42.2808 27.3625 38.6758 23.625 36.9368C22.1505 36.2507 19.9844 36.4518 18.1687 36.4518H0.205472V41.7823L0.205322 41.7821ZM64.8728 41.7503L83.168 41.7829C82.9462 42.1366 81.0115 43.711 80.5346 44.1346C80.1222 44.5008 79.6828 44.8886 79.2393 45.2482L72.6233 50.9433C70.4774 52.6847 68.1771 54.8748 66.0542 56.5985C65.8135 56.7939 65.6246 56.9855 65.38 57.1716C65.1108 57.3766 64.9009 57.4624 64.873 57.9391C64.783 59.4839 64.8796 61.3712 64.8788 62.9554L91.3705 62.9629L91.3714 57.6782L73.07 57.6611C73.2564 57.3448 75.2052 55.7541 75.632 55.3659C76.057 54.9791 76.4745 54.6452 76.9314 54.2542C77.3707 53.8785 77.8143 53.4628 78.2729 53.0999L80.2458 51.4142C82.5358 49.4009 85.4881 47.0202 87.5689 45.0971L90.2028 42.8251C90.8032 42.3356 91.3519 42.0093 91.378 41.4867C91.4491 40.0505 91.4324 37.9244 91.36 36.4824C89.239 36.3882 86.9243 36.4716 84.7821 36.4716C81.8164 36.4716 65.4478 36.3423 64.8758 36.5329L64.8728 41.7502V41.7503ZM159.795 62.9629V36.4606L154.531 36.4614L154.488 54.7374C154.04 54.4991 145.949 44.9047 145.286 44.1802C143.508 42.2362 141.321 39.4037 139.594 37.5642C139.396 37.3531 139.217 37.1461 139.011 36.8994C138.782 36.6244 138.782 36.4582 138.263 36.4542C136.693 36.4425 134.871 36.3887 133.325 36.4689L133.283 62.9253L138.609 62.9638L138.61 44.6677C138.967 44.8993 150.72 58.6596 152.44 60.6442L154.473 62.9482L159.795 62.9632V62.9629ZM98.7646 62.9619L125.256 62.9845L125.253 57.6648L115.604 57.6687L104.112 57.6606L104.079 52.3892L115.511 52.3807L125.266 52.3453L125.258 47.067L115.018 47.0775L98.764 47.064L98.7645 62.9616L98.7646 62.9619ZM47.0596 62.9677L48.0048 62.9512C48.0225 57.9447 48.0339 58.8323 48.0024 53.2051C47.996 52.0376 48.2833 51.9416 49.3403 50.5294C49.9689 49.6894 59.3351 36.8279 59.4529 36.4735L52.9082 36.4722L45.3627 46.8955C45.1125 46.6299 43.9126 45.0086 43.797 44.7033C43.4029 44.357 42.6325 43.1342 42.2741 42.6561C41.751 41.9585 41.2821 41.3271 40.8005 40.6368C40.4232 40.0962 37.9739 36.816 37.9013 36.501L31.2943 36.4717C31.4023 36.8187 38.3777 46.4403 39.1757 47.5018C39.8708 48.4264 40.5044 49.3523 41.1658 50.2508C41.524 50.7371 41.7967 51.1332 42.1402 51.6049C42.7229 52.4057 42.7045 52.1953 42.7013 53.4546C42.6937 56.5184 42.5662 59.9106 42.7033 62.9359L47.0594 62.9676L47.0596 62.9677ZM98.7705 36.4687L98.7538 41.7839L114.137 41.7914L125.263 41.7595L125.224 36.433L98.7705 36.4684V36.4687Z" fill="#121210"/>
</g>
<defs>
<linearGradient id="paint0_linear_5_273" x1="50.3109" y1="84.4956" x2="107.165" y2="29.1379" gradientUnits="userSpaceOnUse">
<stop stop-color="#9D141C"/>
<stop offset="0.6" stop-color="#C04215"/>
<stop offset="1" stop-color="#E4700D"/>
</linearGradient>
<clipPath id="clip0_5_273">
<rect width="160" height="100.416" fill="white"/>
</clipPath>
</defs>
</svg>
